<?xml version="1.0" encoding="UTF-8"?>
<svg width="135px" height="174px" viewBox="0 0 135 174" version="1.1" xmlns="http://www.w3.org/2000/svg" xmlns:xlink="http://www.w3.org/1999/xlink">
    <!-- Generator: Sketch 52.6 (67491) - http://www.bohemiancoding.com/sketch -->
    <title>Group 12</title>
    <desc>Created with Sketch.</desc>
    <defs>
        <path d="M15.8898737,14.0427158 C16.6451368,4.68090526 23.8740842,0 31.9377053,0 C40.0013263,0 47.2285474,4.68090526 47.9855368,14.0427158 C48.3808632,18.9299158 47.4357053,30.4910526 45.3399579,34.8672632 C43.5083368,38.6962316 39.2400211,42.3724211 34.5125053,43.6300421 C32.2242737,44.0227789 31.652,44.0210526 29.3637684,43.6300421 C24.6345263,42.3732842 20.3679368,38.6962316 18.5345895,34.8672632 C16.4388421,30.4910526 15.4928211,18.9299158 15.8898737,14.0427158 Z M11.3660632,48.6337684 L17.6144632,45.7490947 C26.5913053,53.5071579 37.2832421,53.5071579 46.2600842,45.7490947 L52.5067579,48.6337684 C58.1984211,51.2612211 63.8736842,55.9119158 63.8736842,62.2457684 L63.8736842,80.5421263 C63.8736842,83.7030105 61.3014737,86.3157895 58.1906526,86.3157895 L5.68303158,86.3157895 C2.57221053,86.3157895 0,83.7185474 0,80.5421263 L0,62.2457684 C0,55.8937895 5.67526316,51.2620842 11.3660632,48.6337684 Z" id="path-1"></path>
    </defs>
    <g id="Page-1" stroke="none" stroke-width="1" fill="none" fill-rule="evenodd">
        <g id="11" transform="translate(-20.000000, 0.000000)">
            <g id="Group-12" transform="translate(25.000000, 5.000000)">
                <path d="M62.1473684,164 C96.4699789,164 124.294737,127.287305 124.294737,82 C124.294737,36.7126947 96.4699789,0 62.1473684,0 C27.8238947,0 0,36.7126947 0,82 C0,127.287305 27.8238947,164 62.1473684,164 Z" id="Stroke-94" stroke="#ED4962" stroke-width="10"></path>
                <g id="Group-97" transform="translate(31.073684, 37.978947)">
                    <mask id="mask-2" fill="white">
                        <use xlink:href="#path-1"></use>
                    </mask>
                    <g id="Clip-96"></g>
                    <polygon id="Fill-95" fill="#EA4A65" mask="url(#mask-2)" points="-0.0863157895 86.4021053 63.9254737 86.4021053 63.9254737 -0.0863157895 -0.0863157895 -0.0863157895"></polygon>
                </g>
            </g>
        </g>
    </g>
</svg>