<?xml version="1.0" encoding="UTF-8"?>
<svg width="202px" height="202px" viewBox="0 0 202 202" version="1.1" xmlns="http://www.w3.org/2000/svg" xmlns:xlink="http://www.w3.org/1999/xlink">
    <title>Untitled</title>
    <defs>
        <path d="M53.594,53.002 L60.831,56.344 C67.425,59.388 74,64.776 74,72.114 L74,93.311 C74,96.973 71.02,100 67.416,100 L6.584,100 C2.98,100 0,96.991 0,93.311 L0,72.114 C0,64.755 6.575,59.389 13.168,56.344 L20.407,53.002 C30.807,61.99 43.194,61.99 53.594,53.002 Z M37.001,0 C46.343,0 54.716,5.423 55.593,16.269 C56.051,21.931 54.956,35.325 52.528,40.395 C50.406,44.831 45.461,49.09 39.984,50.547 C37.333,51.002 36.67,51 34.019,50.547 C28.54,49.091 23.597,44.831 21.473,40.395 C19.045,35.325 17.949,21.931 18.409,16.269 C19.284,5.423 27.659,0 37.001,0 Z" id="path-1"></path>
    </defs>
    <g id="Page-1" stroke="none" stroke-width="1" fill="none" fill-rule="evenodd">
        <path d="M100,196 C139.764,196 172,153.467 172,101 C172,48.533 139.764,6 100,6 C60.235,6 28,48.533 28,101 C28,153.467 60.235,196 100,196 Z" id="Stroke-94" stroke="#ED4D62" stroke-width="10"></path>
        <g id="Group-97" transform="translate(64.000000, 50.000000)">
            <mask id="mask-2" fill="white">
                <use xlink:href="#path-1"></use>
            </mask>
            <g id="Clip-96"></g>
            <polygon id="Fill-95" fill="#EA4D64" mask="url(#mask-2)" points="-0.1 100.1 74.06 100.1 74.06 -0.1 -0.1 -0.1"></polygon>
        </g>
        <rect id="Rectangle" opacity="0" x="0" y="0" width="202" height="202"></rect>
    </g>
</svg>