<?xml version="1.0" encoding="UTF-8"?>
<svg width="132px" height="174px" viewBox="0 0 132 174" version="1.1" xmlns="http://www.w3.org/2000/svg" xmlns:xlink="http://www.w3.org/1999/xlink">
    <!-- Generator: Sketch 52.6 (67491) - http://www.bohemiancoding.com/sketch -->
    <title>Group 13</title>
    <desc>Created with Sketch.</desc>
    <defs>
        <path d="M15.7243542,13.8964375 C16.47175,4.63214583 23.6253958,0 31.6050208,0 C39.5846458,0 46.7365833,4.63214583 47.4856875,13.8964375 C47.8768958,18.7327292 46.9415833,30.1734375 44.8676667,34.5040625 C43.055125,38.2931458 38.8312708,41.9310417 34.153,43.1755625 C31.8886042,43.5650625 31.3222917,43.5625 29.0578958,43.1755625 C24.3779167,41.93275 20.1557708,38.2931458 18.3415208,34.5040625 C16.2676042,30.1734375 15.3314375,18.7327292 15.7243542,13.8964375 Z M11.2485208,48.1271667 L17.4309792,45.2725417 C26.3143125,52.9497917 36.894875,52.9497917 45.7782083,45.2725417 L51.9598125,48.1271667 C57.5921875,50.72725 63.2083333,55.3295 63.2083333,61.597375 L63.2083333,79.7031458 C63.2083333,82.8311042 60.6629167,85.4166667 57.5845,85.4166667 L5.62383333,85.4166667 C2.54541667,85.4166667 0,82.8464792 0,79.7031458 L0,61.597375 C0,55.3115625 5.61614583,50.7281042 11.2485208,48.1271667 Z" id="path-1"></path>
    </defs>
    <g id="Page-1" stroke="none" stroke-width="1" fill="none" fill-rule="evenodd">
        <g id="12" transform="translate(-21.000000, 0.000000)">
            <g id="Group-13" transform="translate(26.000000, 5.000000)">
                <path d="M121.291667,135.918417 C121.291667,151.426667 109.552854,164 95.0713125,164 L26.2203542,164 C11.7405208,164 0,151.427521 0,135.918417 L0,28.0807292 C0,12.5724792 11.7405208,0 26.2203542,0 L95.0713125,0 C109.552854,0 121.291667,12.5724792 121.291667,28.0807292 L121.291667,135.918417 Z" id="Stroke-81" stroke="#ED4962" stroke-width="10"></path>
                <g id="Group-84" transform="translate(28.187500, 35.020833)">
                    <mask id="mask-2" fill="white">
                        <use xlink:href="#path-1"></use>
                    </mask>
                    <g id="Clip-83"></g>
                    <polygon id="Fill-82" fill="#EA4A65" mask="url(#mask-2)" points="-0.0170833333 85.43375 63.2254167 85.43375 63.2254167 -0.05125 -0.0170833333 -0.05125"></polygon>
                </g>
            </g>
        </g>
    </g>
</svg>