<?xml version="1.0" encoding="UTF-8"?>
<svg width="202px" height="202px" viewBox="0 0 202 202" version="1.1" xmlns="http://www.w3.org/2000/svg" xmlns:xlink="http://www.w3.org/1999/xlink">
    <title>Untitled</title>
    <defs>
        <path d="M158,0 C173.464,0 186,12.536 186,28 L186,106 C186,121.464 173.464,134 158,134 L28,134 C12.536,134 0,121.464 0,106 L0,28 C0,12.536 12.536,0 28,0 L158,0 Z" id="path-1"></path>
        <path d="M53.594,53.002 L60.831,56.344 C67.425,59.388 74,64.776 74,72.114 L74,93.312 C74,96.973 71.02,100 67.416,100 L6.584,100 C2.98,100 0,96.991 0,93.312 L0,72.114 C0,64.755 6.575,59.389 13.168,56.344 L20.407,53.002 C30.807,61.99 43.194,61.99 53.594,53.002 Z M37.001,0 C46.343,0 54.716,5.423 55.593,16.269 C56.051,21.931 54.956,35.325 52.528,40.395 C50.406,44.83 45.461,49.09 39.984,50.547 C37.333,51.003 36.67,51 34.019,50.547 C28.54,49.092 23.597,44.83 21.473,40.395 C19.045,35.325 17.949,21.931 18.409,16.269 C19.284,5.423 27.659,0 37.001,0 Z" id="path-3"></path>
    </defs>
    <g id="Page-1" stroke="none" stroke-width="1" fill="none" fill-rule="evenodd">
        <g id="Group-72" transform="translate(7.000000, 34.000000)">
            <mask id="mask-2" fill="white">
                <use xlink:href="#path-1"></use>
            </mask>
            <g id="Clip-71"></g>
            <path d="M28,0 L158,0 C173.464,0 186,12.536 186,28 L186,106 C186,121.464 173.464,134 158,134 L28,134 C12.536,134 0,121.464 0,106 L0,28 C0,12.536 12.536,0 28,0 Z" id="Stroke-70" stroke="#ED4D62" stroke-width="20" mask="url(#mask-2)"></path>
        </g>
        <g id="Group-75" transform="translate(64.000000, 52.000000)">
            <mask id="mask-4" fill="white">
                <use xlink:href="#path-3"></use>
            </mask>
            <g id="Clip-74"></g>
            <polygon id="Fill-73" fill="#EA4D64" mask="url(#mask-4)" points="-0.1 100.06 74.06 100.06 74.06 -0.02 -0.1 -0.02"></polygon>
        </g>
        <rect id="Rectangle" opacity="0" x="0" y="0" width="202" height="202"></rect>
    </g>
</svg>