<?xml version="1.0" encoding="UTF-8"?>
<svg width="173px" height="156px" viewBox="0 0 173 156" version="1.1" xmlns="http://www.w3.org/2000/svg" xmlns:xlink="http://www.w3.org/1999/xlink">
    <!-- Generator: Sketch 52.6 (67491) - http://www.bohemiancoding.com/sketch -->
    <title>Group 2</title>
    <desc>Created with Sketch.</desc>
    <defs>
        <path d="M15.7929842,13.9570895 C16.5436421,4.65236316 23.7285105,0 31.7429632,0 C39.7574158,0 46.9405684,4.65236316 47.6929421,13.9570895 C48.0858579,18.8144895 47.1464632,30.3051316 45.0634947,34.6546579 C43.2430421,38.4594211 39.0007526,42.1140526 34.3020632,43.3640053 C32.0277842,43.7543474 31.459,43.7526316 29.1847211,43.3640053 C24.4843158,42.1157684 20.2437421,38.4594211 18.4215737,34.6546579 C16.3386053,30.3051316 15.3983526,18.8144895 15.7929842,13.9570895 Z M11.2967579,48.3372211 L17.5070579,45.4701368 C26.4291632,53.1808947 37.0559053,53.1808947 45.9780105,45.4701368 L52.1865947,48.3372211 C57.8435526,50.9486526 63.4842105,55.5709895 63.4842105,61.8662211 L63.4842105,80.0510158 C63.4842105,83.1926263 60.9276842,85.7894737 57.8358316,85.7894737 L5.64837895,85.7894737 C2.55652632,85.7894737 0,83.2080684 0,80.0510158 L0,61.8662211 C0,55.5529737 5.64065789,50.9495105 11.2967579,48.3372211 Z" id="path-1"></path>
    </defs>
    <g id="Page-1" stroke="none" stroke-width="1" fill="none" fill-rule="evenodd">
        <g id="14" transform="translate(-1.000000, -9.000000)">
            <g id="Group-2" transform="translate(6.000000, 14.000000)">
                <g id="Group">
                    <path d="M61.9727855,11.1742934 L3.05429073,112.320083 C-5.62417243,127.219141 5.22476441,145.84232 22.5808328,145.84232 L140.41868,145.84232 C157.775607,145.84232 168.624543,127.219141 159.94608,112.320083 L101.027585,11.1742934 C92.3482644,-3.72476447 70.6521065,-3.72476447 61.9727855,11.1742934" id="Stroke-80" stroke="#ED4962" stroke-width="10"></path>
                    <g id="Group-87" transform="translate(48.042291, 39.463372)">
                        <mask id="mask-2" fill="white">
                            <use xlink:href="#path-1"></use>
                        </mask>
                        <g id="Clip-86"></g>
                        <polygon id="Fill-85" fill="#EA4A65" mask="url(#mask-2)" points="-0.0857894737 85.8066316 63.5356842 85.8066316 63.5356842 -0.0514736842 -0.0857894737 -0.0514736842"></polygon>
                    </g>
                </g>
            </g>
        </g>
    </g>
</svg>