<?xml version="1.0" encoding="UTF-8"?>
<svg width="174px" height="169px" viewBox="0 0 174 169" version="1.1" xmlns="http://www.w3.org/2000/svg" xmlns:xlink="http://www.w3.org/1999/xlink">
    <!-- Generator: Sketch 52.6 (67491) - http://www.bohemiancoding.com/sketch -->
    <title>Group 18</title>
    <desc>Created with Sketch.</desc>
    <defs>
        <path d="M15.8898737,14.0427158 C16.6451368,4.68090526 23.8740842,0 31.9377053,0 C40.0013263,0 47.2285474,4.68090526 47.9855368,14.0427158 C48.3808632,18.9299158 47.4357053,30.4910526 45.3399579,34.8672632 C43.5083368,38.6953684 39.2400211,42.3724211 34.5125053,43.6300421 C32.2242737,44.0236421 31.652,44.0210526 29.3637684,43.6300421 C24.6345263,42.3741474 20.3679368,38.6953684 18.5345895,34.8672632 C16.4388421,30.4910526 15.4928211,18.9299158 15.8898737,14.0427158 Z M11.3660632,48.6337684 L17.6144632,45.7490947 C26.5913053,53.5071579 37.2832421,53.5071579 46.2600842,45.7490947 L52.5067579,48.6337684 C58.1984211,51.2612211 63.8736842,55.9119158 63.8736842,62.2457684 L63.8736842,80.5421263 C63.8736842,83.7030105 61.3014737,86.3157895 58.1906526,86.3157895 L5.68303158,86.3157895 C2.57221053,86.3157895 0,83.7185474 0,80.5421263 L0,62.2457684 C0,55.8937895 5.67526316,51.2620842 11.3660632,48.6337684 Z" id="path-1"></path>
    </defs>
    <g id="Page-1" stroke="none" stroke-width="1" fill="none" fill-rule="evenodd">
        <g id="16" transform="translate(0.000000, -3.000000)">
            <g id="Group-18" transform="translate(5.000000, 8.000000)">
                <path d="M65.9038316,5.23505263 L11.2892421,44.9575789 C1.69178947,51.9379368 -2.32362105,64.3113053 1.34221053,75.6065895 L22.2021474,139.879916 C25.8688421,151.174337 36.3829684,158.821053 48.2470737,158.821053 L115.753789,158.821053 C127.617032,158.821053 138.131158,151.174337 141.796989,139.879916 L162.657789,75.6065895 C166.323621,64.3113053 162.308211,51.9379368 152.709895,44.9575789 L98.0961684,5.23505263 C88.4978526,-1.74530526 75.5012842,-1.74530526 65.9038316,5.23505263" id="Stroke-103" stroke="#ED4962" stroke-width="10"></path>
                <g id="Group-106" transform="translate(50.063158, 37.978947)">
                    <mask id="mask-2" fill="white">
                        <use xlink:href="#path-1"></use>
                    </mask>
                    <g id="Clip-105"></g>
                    <polygon id="Fill-104" fill="#EA4A65" mask="url(#mask-2)" points="-0.0863157895 86.4021053 63.9254737 86.4021053 63.9254737 -0.0863157895 -0.0863157895 -0.0863157895"></polygon>
                </g>
            </g>
        </g>
    </g>
</svg>