<?xml version="1.0" encoding="UTF-8"?>
<svg width="172px" height="158px" viewBox="0 0 172 158" version="1.1" xmlns="http://www.w3.org/2000/svg" xmlns:xlink="http://www.w3.org/1999/xlink">
    <!-- Generator: Sketch 52.6 (67491) - http://www.bohemiancoding.com/sketch -->
    <title>Group 19</title>
    <desc>Created with Sketch.</desc>
    <g id="Page-1" stroke="none" stroke-width="1" fill="none" fill-rule="evenodd">
        <g id="17" transform="translate(-1.000000, -8.000000)">
            <g id="Group-19" transform="translate(6.000000, 13.000000)">
                <path d="M108.913723,0 L53.0862772,0 C44.0928713,0 35.7827525,4.81508911 31.2860495,12.6311881 L3.37232673,61.1509901 C-1.12437624,68.9670891 -1.12437624,78.5972673 3.37232673,86.4141683 L31.2860495,134.933168 C35.7827525,142.750069 44.0928713,147.564356 53.0862772,147.564356 L108.913723,147.564356 C117.907129,147.564356 126.217248,142.750069 130.71395,134.933168 L158.626871,86.4141683 C163.124376,78.5972673 163.124376,68.9670891 158.626871,61.1509901 L130.71395,12.6311881 C126.217248,4.81508911 117.907129,0 108.913723,0" id="Path" stroke="#ED4962" stroke-width="10"></path>
                <path d="M67.6943465,45.1266238 C68.3960792,36.4283465 75.1126634,32.0792079 82.6047624,32.0792079 C90.0968614,32.0792079 96.8118416,36.4283465 97.5151782,45.1266238 C97.8824851,49.6674356 97.0043168,60.4091584 95.0571089,64.475198 C93.3553069,68.0319802 89.3895149,71.4484158 84.9970693,72.616901 C82.8710198,72.982604 82.3393069,72.980198 80.2132574,72.616901 C75.8192079,71.4500198 71.8550198,68.0319802 70.1516139,64.475198 C68.2044059,60.4091584 67.3254356,49.6674356 67.6943465,45.1266238 Z" id="Path" fill="#EA4A65"></path>
                <path d="M63.4911683,77.2659802 L69.296703,74.5857624 C77.637297,81.7939604 87.5714257,81.7939604 95.9120198,74.5857624 L101.71595,77.2659802 C107.004208,79.7072079 112.277228,84.0282772 112.277228,89.9132079 L112.277228,106.912782 C112.277228,109.849634 109.887327,112.277228 106.99699,112.277228 L58.2109307,112.277228 C55.3205941,112.277228 52.9306931,109.864069 52.9306931,106.912782 L52.9306931,89.9132079 C52.9306931,84.0114356 58.2037129,79.7080099 63.4911683,77.2659802 Z" id="Path" fill="#EA4A65"></path>
            </g>
        </g>
    </g>
</svg>