<?xml version="1.0" encoding="UTF-8"?>
<svg width="212px" height="202px" viewBox="0 0 212 202" version="1.1" xmlns="http://www.w3.org/2000/svg" xmlns:xlink="http://www.w3.org/1999/xlink">
    <title>Untitled</title>
    <defs>
        <path d="M53.594,53.002 L60.831,56.344 C67.425,59.388 74,64.776 74,72.114 L74,93.311 C74,96.973 71.02,100 67.416,100 L6.584,100 C2.98,100 0,96.991 0,93.311 L0,72.114 C0,64.755 6.575,59.389 13.168,56.344 L20.407,53.002 C30.807,61.99 43.194,61.99 53.594,53.002 Z M37.001,0 C46.343,0 54.716,5.423 55.593,16.269 C56.051,21.931 54.956,35.325 52.528,40.395 C50.406,44.83 45.461,49.09 39.984,50.547 C37.333,51.003 36.67,51 34.019,50.547 C28.54,49.092 23.597,44.83 21.473,40.395 C19.045,35.325 17.949,21.931 18.409,16.269 C19.284,5.423 27.659,0 37.001,0 Z" id="path-1"></path>
    </defs>
    <g id="Page-1" stroke="none" stroke-width="1" fill="none" fill-rule="evenodd">
        <path d="M140.80625,9 L71.19425,9 C59.98025,9 49.61825,15.004 44.01125,24.75 L9.20525,85.25 C3.59825,94.996 3.59825,107.004 9.20525,116.751 L44.01125,177.25 C49.61825,186.997 59.98025,193 71.19425,193 L140.80625,193 C152.02025,193 162.38225,186.997 167.98925,177.25 L202.79425,116.751 C208.40225,107.004 208.40225,94.996 202.79425,85.25 L167.98925,24.75 C162.38225,15.004 152.02025,9 140.80625,9" id="Path" stroke="#ED4D62" stroke-width="10"></path>
        <g id="Group-90" transform="translate(69.000250, 49.000000)">
            <mask id="mask-2" fill="white">
                <use xlink:href="#path-1"></use>
            </mask>
            <g id="Clip-89"></g>
            <polygon id="Fill-88" fill="#EA4D64" mask="url(#mask-2)" points="-0.1 100.06 74.06 100.06 74.06 -0.02 -0.1 -0.02"></polygon>
        </g>
        <rect id="Rectangle" opacity="0" x="5.00025" y="0" width="202" height="202"></rect>
    </g>
</svg>