<?xml version="1.0" encoding="UTF-8"?>
<svg width="172px" height="171px" viewBox="0 0 172 171" version="1.1" xmlns="http://www.w3.org/2000/svg" xmlns:xlink="http://www.w3.org/1999/xlink">
    <!-- Generator: Sketch 52.6 (67491) - http://www.bohemiancoding.com/sketch -->
    <title>Group 21</title>
    <desc>Created with Sketch.</desc>
    <defs>
        <path d="M16.2079239,14.3237935 C16.9783043,4.77459783 24.3519457,0 32.5769674,0 C40.8019891,0 48.1738696,4.77459783 48.9460109,14.3237935 C49.34925,19.3088152 48.3851739,31.1013587 46.2474783,35.565163 C44.3791957,39.4698913 40.0254457,43.2205435 35.2033043,44.503337 C32.8692717,44.9048152 32.2855435,44.9021739 29.9515109,44.503337 C25.1276087,43.2223043 20.7756196,39.4698913 18.9055761,35.565163 C16.7678804,31.1013587 15.8029239,19.3088152 16.2079239,14.3237935 Z M11.5935652,49.6072174 L17.9670326,46.6648043 C27.1235543,54.5781522 38.0295,54.5781522 47.1860217,46.6648043 L53.5577283,49.6072174 C59.3633152,52.2872609 65.1521739,57.0310435 65.1521739,63.4916739 L65.1521739,82.15425 C65.1521739,85.3784022 62.5284783,88.0434783 59.3553913,88.0434783 L5.79678261,88.0434783 C2.62369565,88.0434783 0,85.39425 0,82.15425 L0,63.4916739 C0,57.0125543 5.7888587,52.2881413 11.5935652,49.6072174 Z" id="path-1"></path>
    </defs>
    <g id="Page-1" stroke="none" stroke-width="1" fill="none" fill-rule="evenodd">
        <g id="18" transform="translate(-1.000000, -1.000000)">
            <g id="Group-21" transform="translate(6.000000, 6.000000)">
                <path d="M60.8054674,160.23913 C51.307337,160.23913 38.6907065,154.145641 32.7689022,146.695402 L7.58670652,115.01912 C1.66578261,107.572402 -1.45095652,93.8763587 0.662086957,84.5886522 L9.65132609,45.0861848 C11.7634891,35.795837 20.4947609,24.8159348 29.0517065,20.681413 L65.4409565,3.1008913 C73.9987826,-1.03363043 88.0020978,-1.03363043 96.5590435,3.1008913 L132.949174,20.681413 C141.50612,24.8159348 150.236511,35.795837 152.349554,45.0861848 L161.337913,84.5886522 C163.451837,93.8763587 160.334217,107.572402 154.413293,115.01912 L129.231978,146.695402 C123.309293,154.145641 110.693543,160.23913 101.195413,160.23913 L60.8054674,160.23913" id="Stroke-110" stroke="#ED4962" stroke-width="10"></path>
                <g id="Group-113" transform="translate(47.543478, 33.456522)">
                    <mask id="mask-2" fill="white">
                        <use xlink:href="#path-1"></use>
                    </mask>
                    <g id="Clip-112"></g>
                    <polygon id="Fill-111" fill="#EA4A65" mask="url(#mask-2)" points="-0.052826087 88.0963043 65.2402174 88.0963043 65.2402174 -0.0176086957 -0.052826087 -0.0176086957"></polygon>
                </g>
            </g>
        </g>
    </g>
</svg>