<?xml version="1.0" encoding="UTF-8"?>
<svg width="202px" height="202px" viewBox="0 0 202 202" version="1.1" xmlns="http://www.w3.org/2000/svg" xmlns:xlink="http://www.w3.org/1999/xlink">
    <title>Untitled</title>
    <defs>
        <path d="M53.594,53.002 L60.831,56.344 C67.425,59.388 74,64.776 74,72.114 L74,93.311 C74,96.973 71.02,100 67.416,100 L6.584,100 C2.98,100 0,96.991 0,93.311 L0,72.114 C0,64.755 6.575,59.389 13.168,56.344 L20.407,53.002 C30.807,61.99 43.194,61.99 53.594,53.002 Z M37.001,0 C46.343,0 54.716,5.423 55.593,16.269 C56.051,21.931 54.956,35.325 52.528,40.395 C50.406,44.83 45.461,49.09 39.984,50.547 C37.333,51.003 36.67,51 34.019,50.547 C28.54,49.092 23.597,44.83 21.473,40.395 C19.045,35.325 17.949,21.931 18.409,16.269 C19.284,5.423 27.659,0 37.001,0 Z" id="path-1"></path>
    </defs>
    <g id="Page-1" stroke="none" stroke-width="1" fill="none" fill-rule="evenodd">
        <path d="M78.063,192 C67.275,192 52.945,185.079 46.219,176.617 L17.617,140.639 C10.892,132.181 7.352,116.625 9.752,106.076 L19.962,61.209 C22.361,50.657 32.278,38.186 41.997,33.49 L83.328,13.522 C93.048,8.826 108.953,8.826 118.672,13.522 L160.004,33.49 C169.723,38.186 179.639,50.657 182.039,61.209 L192.248,106.076 C194.649,116.625 191.108,132.181 184.383,140.639 L155.782,176.617 C149.055,185.079 134.726,192 123.938,192 L78.063,192" id="Stroke-110" stroke="#ED4D62" stroke-width="10"></path>
        <g id="Group-113" transform="translate(64.000000, 48.000000)">
            <mask id="mask-2" fill="white">
                <use xlink:href="#path-1"></use>
            </mask>
            <g id="Clip-112"></g>
            <polygon id="Fill-111" fill="#EA4D64" mask="url(#mask-2)" points="-0.06 100.06 74.1 100.06 74.1 -0.02 -0.06 -0.02"></polygon>
        </g>
        <rect id="Rectangle" opacity="0" x="0" y="0" width="202" height="202"></rect>
    </g>
</svg>