<?xml version="1.0" encoding="UTF-8"?>
<svg width="172px" height="172px" viewBox="0 0 172 172" version="1.1" xmlns="http://www.w3.org/2000/svg" xmlns:xlink="http://www.w3.org/1999/xlink">
    <!-- Generator: Sketch 52.6 (67491) - http://www.bohemiancoding.com/sketch -->
    <title>Group 22</title>
    <desc>Created with Sketch.</desc>
    <defs>
        <path d="M15.5325937,13.7269688 C16.270875,4.57565625 23.3372812,0 31.2195938,0 C39.1019062,0 46.166625,4.57565625 46.9065937,13.7269688 C47.2930312,18.5042812 46.369125,29.8054687 44.3205,34.0832812 C42.5300625,37.8261563 38.3577187,41.4196875 33.7365,42.6490312 C31.4997188,43.0337813 30.9403125,43.03125 28.7035312,42.6490312 C24.080625,41.421375 19.9099688,37.8261563 18.1178438,34.0832812 C16.0692188,29.8054687 15.1444688,18.5042812 15.5325937,13.7269688 Z M11.1105,47.54025 L17.2184062,44.7204375 C25.9934063,52.3040625 36.4449375,52.3040625 45.2199375,44.7204375 L51.3261563,47.54025 C56.8898438,50.108625 62.4375,54.65475 62.4375,60.8461875 L62.4375,78.7311562 C62.4375,81.8209688 59.923125,84.375 56.88225,84.375 L5.55525,84.375 C2.514375,84.375 0,81.8361562 0,78.7311562 L0,60.8461875 C0,54.6370313 5.54765625,50.1094688 11.1105,47.54025 Z" id="path-1"></path>
    </defs>
    <g id="Page-1" stroke="none" stroke-width="1" fill="none" fill-rule="evenodd">
        <g id="19" transform="translate(-1.000000, -1.000000)">
            <g id="Group-22" transform="translate(6.000000, 6.000000)">
                <path d="M103.451344,0 L58.546125,0 C51.4400625,0 44.6250937,2.8231875 39.6005625,7.84771875 L7.84771875,39.6014062 C2.8231875,44.6259375 -1.13686838e-13,51.4409062 -1.13686838e-13,58.5469688 L-1.13686838e-13,103.453875 C-1.13686838e-13,110.559094 2.8231875,117.374063 7.84771875,122.399438 L39.6005625,154.152281 C44.6250937,159.177656 51.4400625,162 58.546125,162 L103.451344,162 C110.557406,162 117.373219,159.177656 122.39775,154.152281 L154.14975,122.399438 C159.175969,117.374063 162,110.559094 162,103.453875 L162,58.5469688 C162,51.4409062 159.175969,44.6259375 154.14975,39.6014062 L122.39775,7.84771875 C117.373219,2.8231875 110.557406,0 103.451344,0" id="Path" stroke="#ED4962" stroke-width="10"></path>
                <g id="Group-93" transform="translate(50.625000, 38.812500)">
                    <mask id="mask-2" fill="white">
                        <use xlink:href="#path-1"></use>
                    </mask>
                    <g id="Clip-92"></g>
                    <polygon id="Fill-91" fill="#EA4A65" mask="url(#mask-2)" points="-0.084375 84.459375 62.488125 84.459375 62.488125 -0.084375 -0.084375 -0.084375"></polygon>
                </g>
            </g>
        </g>
    </g>
</svg>