<?xml version="1.0" encoding="UTF-8"?>
<svg width="173px" height="173px" viewBox="0 0 173 173" version="1.1" xmlns="http://www.w3.org/2000/svg" xmlns:xlink="http://www.w3.org/1999/xlink">
    <!-- Generator: Sketch 52.6 (67491) - http://www.bohemiancoding.com/sketch -->
    <title>Group 24</title>
    <desc>Created with Sketch.</desc>
    <defs>
        <path d="M16.1326183,14.2572419 C16.8994194,4.75241398 24.2388011,0 32.4256075,0 C40.612414,0 47.950043,4.75241398 48.7185968,14.2572419 C49.1199624,19.2191022 48.1603656,30.9568548 46.0326022,35.3999194 C44.173,39.2873817 39.8394785,43.0197312 35.0397419,44.2965645 C32.7165538,44.6961774 32.1355376,44.6935484 29.8123495,44.2965645 C25.0108602,43.0214839 20.6790914,39.2873817 18.8177366,35.3999194 C16.6899731,30.9568548 15.7295,19.2191022 16.1326183,14.2572419 Z M11.5405753,49.3767312 L17.8835538,46.4479892 C26.9975323,54.3245699 37.8528065,54.3245699 46.9667849,46.4479892 L53.3088871,49.3767312 C59.0875,52.0443226 64.8494624,56.7660645 64.8494624,63.1966774 L64.8494624,81.772543 C64.8494624,84.9817151 62.237957,87.6344086 59.0796129,87.6344086 L5.76984946,87.6344086 C2.61150538,87.6344086 0,84.9974892 0,81.772543 L0,63.1966774 C0,56.7476613 5.76196237,52.0451989 11.5405753,49.3767312 Z" id="path-1"></path>
    </defs>
    <g id="Page-1" stroke="none" stroke-width="1" fill="none" fill-rule="evenodd">
        <g id="20">
            <g id="Group-24" transform="translate(5.000000, 5.000000)">
                <path d="M81.5,163 C126.510785,163 163,126.510785 163,81.5 C163,36.4892151 126.510785,0 81.5,0 C36.4892151,0 0,36.4892151 0,81.5 C0,126.510785 36.4892151,163 81.5,163 Z" id="Stroke-98" stroke="#ED4962" stroke-width="10"></path>
                <g id="Group-102" transform="translate(49.075269, 36.806452)">
                    <mask id="mask-2" fill="white">
                        <use xlink:href="#path-1"></use>
                    </mask>
                    <g id="Clip-100"></g>
                    <polygon id="Fill-99" fill="#FFFFFE" mask="url(#mask-2)" points="-0.0175268817 87.6519355 64.8669892 87.6519355 64.8669892 -0.0525806452 -0.0175268817 -0.0525806452"></polygon>
                    <polygon id="Fill-101" fill="#EA4A65" mask="url(#mask-2)" points="-0.0175268817 87.6519355 64.8669892 87.6519355 64.8669892 -0.0525806452 -0.0175268817 -0.0525806452"></polygon>
                </g>
            </g>
        </g>
    </g>
</svg>