<?xml version="1.0" encoding="utf-8"?>
<svg width="174px" height="174px" viewBox="0 0 174 174" version="1.1" xmlns="http://www.w3.org/2000/svg" xmlns:bx="https://boxy-svg.com">
  <title>Group 132</title>
  <desc>Created with Sketch.</desc>
  <defs>
    <path d="M20.896,18.502 C21.89,6.167 31.397,0 42.002,0 C52.606,0 62.11,6.167 63.105,18.502 C63.625,24.941 62.383,40.173 59.627,45.939 C57.217,50.983 51.605,55.828 45.387,57.485 C42.377,58.003 41.625,58 38.616,57.485 C32.397,55.83 26.786,50.983 24.375,45.939 C21.619,40.173 20.375,24.941 20.896,18.502 Z M14.948,66.352 L23.165,62.551 C34.97,72.773 49.031,72.773 60.837,62.551 L69.052,66.352 C76.537,69.813 84,75.941 84,84.287 L84,108.393 C84,112.557 80.617,116 76.526,116 L7.474,116 C3.383,116 0,112.578 0,108.393 L0,84.287 C0,75.918 7.463,69.815 14.948,66.352 Z" id="path-1"/>
  </defs>
  <g id="Page-1" stroke="none" stroke-width="1" fill="none" fill-rule="evenodd" transform="matrix(1.000001, 0, 0, 1.000001, 45.904655, 33.135002)">
    <g id="61" transform="translate(-45.000000, -29.000000)">
      <g id="Group-132" transform="translate(45.000000, 29.000000)">
        <mask id="mask-2" fill="white">
          <path d="M 26.44 20.557 C 27.186 11.478 34.329 6.938 42.296 6.938 C 50.263 6.938 57.404 11.478 58.152 20.557 C 58.543 25.297 57.609 36.508 55.538 40.752 C 53.728 44.465 49.512 48.031 44.84 49.251 C 42.578 49.632 42.013 49.63 39.753 49.251 C 35.08 48.033 30.865 44.465 29.053 40.752 C 26.982 36.508 26.047 25.297 26.44 20.557 Z M 21.971 55.777 L 28.143 52.98 C 37.014 60.504 47.577 60.504 56.448 52.98 L 62.619 55.777 C 68.243 58.325 73.85 62.835 73.85 68.978 L 73.85 86.722 C 73.85 89.787 71.308 92.321 68.235 92.321 L 16.355 92.321 C 13.282 92.321 10.74 89.802 10.74 86.722 L 10.74 68.978 C 10.74 62.818 16.347 58.326 21.971 55.777 Z"/>
        </mask>
        <g id="Clip-131"/>
        <polygon id="Fill-130" fill="#00AFE4" mask="url(#mask-2)" points="10.695 92.365 73.895 92.365 73.895 6.865 10.695 6.865" bx:origin="0.5 0.499415"/>
      </g>
    </g>
  </g>
</svg>