<?xml version="1.0" encoding="UTF-8"?>
<svg width="134px" height="173px" viewBox="0 0 134 173" version="1.1" xmlns="http://www.w3.org/2000/svg" xmlns:xlink="http://www.w3.org/1999/xlink">
    <!-- Generator: Sketch 52.6 (67491) - http://www.bohemiancoding.com/sketch -->
    <title>Group 55</title>
    <desc>Created with Sketch.</desc>
    <defs>
        <path d="M15.7929842,13.9570895 C16.5436421,4.65236316 23.7285105,0 31.7429632,0 C39.7574158,0 46.9405684,4.65236316 47.6929421,13.9570895 C48.0858579,18.8144895 47.1464632,30.3051316 45.0634947,34.6546579 C43.2430421,38.4602789 39.0007526,42.1140526 34.3020632,43.3640053 C32.0277842,43.7543474 31.459,43.7526316 29.1847211,43.3640053 C24.4843158,42.1149105 20.2437421,38.4602789 18.4215737,34.6546579 C16.3386053,30.3051316 15.3983526,18.8144895 15.7929842,13.9570895 Z M11.2976158,48.3372211 L17.5070579,45.4701368 C26.4291632,53.1808947 37.0559053,53.1808947 45.9780105,45.4701368 L52.1865947,48.3372211 C57.8435526,50.9486526 63.4842105,55.5709895 63.4842105,61.8662211 L63.4842105,80.0510158 C63.4842105,83.1926263 60.9276842,85.7894737 57.8358316,85.7894737 L5.64837895,85.7894737 C2.55652632,85.7894737 0,83.2080684 0,80.0510158 L0,61.8662211 C0,55.5529737 5.64065789,50.9495105 11.2976158,48.3372211 Z" id="path-1"></path>
    </defs>
    <g id="Page-1" stroke="none" stroke-width="1" fill="none" fill-rule="evenodd">
        <g id="41" transform="translate(-20.000000, -1.000000)">
            <g id="Group-55" transform="translate(25.000000, 6.000000)">
                <path d="M61.7684211,163 C95.8826053,163 123.536842,126.511163 123.536842,81.5 C123.536842,36.4888368 95.8826053,0 61.7684211,0 C27.6542368,0 0,36.4888368 0,81.5 C0,126.511163 27.6542368,163 61.7684211,163 Z" id="Stroke-229" stroke="#ED4962" stroke-width="10"></path>
                <g id="Group-232" transform="translate(30.884211, 37.747368)">
                    <mask id="mask-2" fill="white">
                        <use xlink:href="#path-1"></use>
                    </mask>
                    <g id="Clip-231"></g>
                    <polygon id="Fill-230" fill="#EA4A65" mask="url(#mask-2)" points="-0.0857894737 85.8752632 63.5356842 85.8752632 63.5356842 -0.0857894737 -0.0857894737 -0.0857894737"></polygon>
                </g>
                <polygon id="Fill-264" fill="#FFFFFF" points="18.8736842 114.957895 109.810526 114.957895 109.810526 101.231579 18.8736842 101.231579"></polygon>
            </g>
        </g>
    </g>
</svg>