<?xml version="1.0" encoding="UTF-8"?>
<svg width="130px" height="172px" viewBox="0 0 130 172" version="1.1" xmlns="http://www.w3.org/2000/svg" xmlns:xlink="http://www.w3.org/1999/xlink">
    <!-- Generator: Sketch 52.6 (67491) - http://www.bohemiancoding.com/sketch -->
    <title>Group 56</title>
    <desc>Created with Sketch.</desc>
    <defs>
        <path d="M15.5325938,13.7269687 C16.270875,4.57565625 23.3372813,0 31.2195938,0 C39.1019063,0 46.166625,4.57565625 46.9065938,13.7269687 C47.2930313,18.5042812 46.369125,29.8054687 44.3205,34.0832812 C42.5300625,37.8261562 38.3577188,41.4196875 33.7365,42.6490312 C31.4997188,43.0337813 30.9403125,43.03125 28.7035313,42.6490312 C24.080625,41.421375 19.9099688,37.8261562 18.1178437,34.0832812 C16.0692188,29.8054687 15.1444688,18.5042812 15.5325938,13.7269687 Z M11.1113438,47.54025 L17.2184062,44.7204375 C25.9934063,52.3040625 36.4449375,52.3040625 45.2199375,44.7204375 L51.3261563,47.54025 C56.8898438,50.108625 62.4375,54.65475 62.4375,60.8461875 L62.4375,78.7311562 C62.4375,81.8209687 59.923125,84.375 56.88225,84.375 L5.55525,84.375 C2.514375,84.375 0,81.8361562 0,78.7311562 L0,60.8461875 C0,54.6370312 5.54765625,50.1094687 11.1113438,47.54025 Z" id="path-1"></path>
    </defs>
    <g id="Page-1" stroke="none" stroke-width="1" fill="none" fill-rule="evenodd">
        <g id="42" transform="translate(-22.000000, -1.000000)">
            <g id="Group-56" transform="translate(27.000000, 6.000000)">
                <path d="M119.8125,134.260875 C119.8125,149.58 108.216844,162 93.9119063,162 L25.9005938,162 C11.5973438,162 0,149.580844 0,134.260875 L0,27.7382812 C0,12.4191563 11.5973438,0 25.9005938,0 L93.9119063,0 C108.216844,0 119.8125,12.4191563 119.8125,27.7382812 L119.8125,134.260875 Z" id="Stroke-216" stroke="#ED4962" stroke-width="10"></path>
                <g id="Group-219" transform="translate(27.843750, 32.906250)">
                    <mask id="mask-2" fill="white">
                        <use xlink:href="#path-1"></use>
                    </mask>
                    <g id="Clip-218"></g>
                    <polygon id="Fill-217" fill="#EA4A65" mask="url(#mask-2)" points="-0.016875 84.391875 62.454375 84.391875 62.454375 -0.050625 -0.016875 -0.050625"></polygon>
                </g>
                <polygon id="Fill-274" fill="#FFFFFF" points="16.03125 107.15625 105.46875 107.15625 105.46875 93.65625 16.03125 93.65625"></polygon>
            </g>
        </g>
    </g>
</svg>