<?xml version="1.0" encoding="UTF-8"?>
<svg width="172px" height="124px" viewBox="0 0 172 124" version="1.1" xmlns="http://www.w3.org/2000/svg" xmlns:xlink="http://www.w3.org/1999/xlink">
    <!-- Generator: Sketch 52.6 (67491) - http://www.bohemiancoding.com/sketch -->
    <title>Group 58</title>
    <desc>Created with Sketch.</desc>
    <defs>
        <path d="M25.8924731,0 L146.107527,0 C160.40757,0 172,11.5924301 172,25.8924731 L172,98.0215054 C172,112.321548 160.40757,123.913978 146.107527,123.913978 L25.8924731,123.913978 C11.5924301,123.913978 0,112.321548 0,98.0215054 L0,25.8924731 C0,11.5924301 11.5924301,0 25.8924731,0 Z" id="path-1"></path>
        <path d="M17.0233763,15.0444516 C17.8325161,5.0148172 25.5771398,0 34.2159785,0 C42.8548172,0 50.5975914,5.0148172 51.4085806,15.0444516 C51.8321075,20.2802796 50.8195269,32.666129 48.5742796,37.3545161 C46.612,41.4556989 42.0392043,45.3950538 36.9744516,46.7423871 C34.5229892,47.1640645 33.9098925,47.1612903 31.4584301,46.7423871 C26.391828,45.3969032 21.8208817,41.4556989 19.8567527,37.3545161 C17.6115054,32.666129 16.598,20.2802796 17.0233763,15.0444516 Z M12.1777849,52.1030538 L18.8709892,49.0126022 C28.4881935,57.324086 39.9428387,57.324086 49.560043,49.0126022 L56.2523226,52.1030538 C62.35,54.9179355 68.4301075,59.9003871 68.4301075,66.6860645 L68.4301075,86.2885161 C68.4301075,89.673957 65.6744086,92.4731183 62.3416774,92.4731183 L6.08843011,92.4731183 C2.75569892,92.4731183 0,89.6906022 0,86.2885161 L0,66.6860645 C0,59.8809677 6.08010753,54.9188602 12.1777849,52.1030538 Z" id="path-3"></path>
    </defs>
    <g id="Page-1" stroke="none" stroke-width="1" fill="none" fill-rule="evenodd">
        <g id="43" transform="translate(-1.000000, -25.000000)">
            <g id="Group-58" transform="translate(1.000000, 25.000000)">
                <g id="Group-207">
                    <mask id="mask-2" fill="white">
                        <use xlink:href="#path-1"></use>
                    </mask>
                    <g id="Clip-206"></g>
                    <path d="M25.8924731,0 L146.107527,0 C160.40757,0 172,11.5924301 172,25.8924731 L172,98.0215054 C172,112.321548 160.40757,123.913978 146.107527,123.913978 L25.8924731,123.913978 C11.5924301,123.913978 0,112.321548 0,98.0215054 L0,25.8924731 C0,11.5924301 11.5924301,0 25.8924731,0 Z" id="Stroke-205" stroke="#ED4962" stroke-width="20" mask="url(#mask-2)"></path>
                </g>
                <g id="Group-210" transform="translate(48.086022, 16.645161)">
                    <mask id="mask-4" fill="white">
                        <use xlink:href="#path-3"></use>
                    </mask>
                    <g id="Clip-209"></g>
                    <polygon id="Fill-208" fill="#EA4A65" mask="url(#mask-4)" points="-0.0924731183 92.5286022 68.4855914 92.5286022 68.4855914 -0.0184946237 -0.0924731183 -0.0184946237"></polygon>
                </g>
                <polygon id="Fill-276" fill="#FFFFFF" points="33.2903226 98.0215054 131.311828 98.0215054 131.311828 83.2258065 33.2903226 83.2258065"></polygon>
            </g>
        </g>
    </g>
</svg>