<?xml version="1.0" encoding="UTF-8"?>
<svg width="202px" height="202px" viewBox="0 0 202 202" version="1.1" xmlns="http://www.w3.org/2000/svg" xmlns:xlink="http://www.w3.org/1999/xlink">
    <title>Untitled</title>
    <defs>
        <path d="M53.594,53.002 L60.831,56.344 C67.425,59.388 74,64.776 74,72.114 L74,93.311 C74,96.973 71.02,100 67.416,100 L6.584,100 C2.98,100 0,96.991 0,93.311 L0,72.114 C0,64.755 6.575,59.389 13.169,56.344 L20.407,53.002 C30.807,61.99 43.194,61.99 53.594,53.002 Z M37.001,0 C46.343,0 54.716,5.423 55.593,16.269 C56.051,21.931 54.956,35.325 52.528,40.395 C50.406,44.83 45.461,49.09 39.984,50.547 C37.333,51.003 36.67,51 34.019,50.547 C28.54,49.092 23.597,44.83 21.473,40.395 C19.045,35.325 17.949,21.931 18.409,16.269 C19.284,5.423 27.659,0 37.001,0 Z" id="path-1"></path>
    </defs>
    <g id="Page-1" stroke="none" stroke-width="1" fill="none" fill-rule="evenodd">
        <path d="M82.353,15.065 L19.079,61.085 C7.96,69.172 3.308,83.507 7.555,96.593 L31.723,171.056 C35.97,184.141 48.151,193 61.896,193 L140.105,193 C153.849,193 166.03,184.141 170.277,171.056 L194.445,96.593 C198.692,83.507 194.04,69.172 182.92,61.085 L119.648,15.065 C108.528,6.978 93.471,6.978 82.353,15.065" id="Stroke-238" stroke="#ED4D62" stroke-width="10"></path>
        <g id="Group-241" transform="translate(64.000000, 53.000000)">
            <mask id="mask-2" fill="white">
                <use xlink:href="#path-1"></use>
            </mask>
            <g id="Clip-240"></g>
            <polygon id="Fill-239" fill="#EA4D64" mask="url(#mask-2)" points="-0.1 100.1 74.06 100.1 74.06 -0.1 -0.1 -0.1"></polygon>
        </g>
        <polygon id="Fill-308" fill="#FFFFFF" points="42 143 148 143 148 127 42 127"></polygon>
        <rect id="Rectangle" opacity="0" x="0" y="0" width="202" height="202"></rect>
    </g>
</svg>