<?xml version="1.0" encoding="UTF-8"?>
<svg width="173px" height="168px" viewBox="0 0 173 168" version="1.1" xmlns="http://www.w3.org/2000/svg" xmlns:xlink="http://www.w3.org/1999/xlink">
    <!-- Generator: Sketch 52.6 (67491) - http://www.bohemiancoding.com/sketch -->
    <title>Group 62</title>
    <desc>Created with Sketch.</desc>
    <defs>
        <path d="M15.7929842,13.9570895 C16.5436421,4.65236316 23.7285105,0 31.7429632,0 C39.7574158,0 46.9405684,4.65236316 47.6929421,13.9570895 C48.0858579,18.8144895 47.1464632,30.3051316 45.0634947,34.6546579 C43.2430421,38.4594211 39.0007526,42.1140526 34.3020632,43.3640053 C32.0277842,43.7552053 31.459,43.7526316 29.1847211,43.3640053 C24.4843158,42.1157684 20.2437421,38.4594211 18.4215737,34.6546579 C16.3386053,30.3051316 15.3983526,18.8144895 15.7929842,13.9570895 Z M11.2976158,48.3372211 L17.5070579,45.4701368 C26.4291632,53.1808947 37.0559053,53.1808947 45.9780105,45.4701368 L52.1865947,48.3372211 C57.8435526,50.9486526 63.4842105,55.5709895 63.4842105,61.8662211 L63.4842105,80.0510158 C63.4842105,83.1926263 60.9276842,85.7894737 57.8358316,85.7894737 L5.64837895,85.7894737 C2.55652632,85.7894737 0,83.2080684 0,80.0510158 L0,61.8662211 C0,55.5529737 5.64065789,50.9495105 11.2976158,48.3372211 Z" id="path-1"></path>
    </defs>
    <g id="Page-1" stroke="none" stroke-width="1" fill="none" fill-rule="evenodd">
        <g id="46" transform="translate(-1.000000, -3.000000)">
            <g id="Group-62" transform="translate(6.000000, 8.000000)">
                <path d="M65.5028368,5.20313158 L11.2204053,44.6834474 C1.68147368,51.6212421 -2.30945263,63.9191632 1.33402632,75.1455737 L22.0676263,139.026989 C25.7111053,150.252542 36.1611211,157.852632 47.9528842,157.852632 L115.047974,157.852632 C126.838879,157.852632 137.288895,150.252542 140.932374,139.026989 L161.665974,75.1455737 C165.309453,63.9191632 161.318526,51.6212421 151.778737,44.6834474 L97.4980211,5.20313158 C87.9582316,-1.73466316 75.0409105,-1.73466316 65.5028368,5.20313158" id="Stroke-238" stroke="#ED4962" stroke-width="10"></path>
                <g id="Group-241" transform="translate(49.757895, 37.747368)">
                    <mask id="mask-2" fill="white">
                        <use xlink:href="#path-1"></use>
                    </mask>
                    <g id="Clip-240"></g>
                    <polygon id="Fill-239" fill="#EA4A65" mask="url(#mask-2)" points="-0.0857894737 85.8752632 63.5356842 85.8752632 63.5356842 -0.0857894737 -0.0857894737 -0.0857894737"></polygon>
                </g>
                <polygon id="Fill-308" fill="#FFFFFF" points="30.8842105 114.957895 121.821053 114.957895 121.821053 101.231579 30.8842105 101.231579"></polygon>
            </g>
        </g>
    </g>
</svg>