<?xml version="1.0" encoding="UTF-8"?>
<svg width="173px" height="158px" viewBox="0 0 173 158" version="1.1" xmlns="http://www.w3.org/2000/svg" xmlns:xlink="http://www.w3.org/1999/xlink">
    <!-- Generator: Sketch 52.6 (67491) - http://www.bohemiancoding.com/sketch -->
    <title>Group 64</title>
    <desc>Created with Sketch.</desc>
    <g id="Page-1" stroke="none" stroke-width="1" fill="none" fill-rule="evenodd">
        <g id="47" transform="translate(-1.000000, -8.000000)">
            <g id="Group-64" transform="translate(6.000000, 13.000000)">
                <path d="M109.046197,0 L53.1508473,0 C44.1465025,0 35.8262759,4.82094581 31.3241034,12.6465517 L3.37642857,61.2253695 C-1.12574384,69.0509754 -1.12574384,78.692867 3.37642857,86.5192759 L31.3241034,135.097291 C35.8262759,142.9237 44.1465025,147.743842 53.1508473,147.743842 L109.046197,147.743842 C118.050542,147.743842 126.370768,142.9237 130.872941,135.097291 L158.820616,86.5192759 C163.322788,78.692867 163.322788,69.0509754 158.820616,61.2253695 L130.872941,12.6465517 C126.370768,4.82094581 118.050542,0 109.046197,0" id="Path" stroke="#ED4962" stroke-width="10"></path>
                <path d="M67.7766847,45.1815123 C68.4792709,36.4726552 75.2040246,32.1182266 82.7052365,32.1182266 C90.2064483,32.1182266 96.9295961,36.4726552 97.6337882,45.1815123 C98.0015419,49.7278473 97.1223054,60.4826355 95.1727291,64.5536207 C93.4688571,68.1147291 89.4982414,71.5353202 85.1004532,72.7052266 C82.9718177,73.0713744 82.4394581,73.0689655 80.3108227,72.7052266 C75.9114286,71.5369261 71.9424187,68.1147291 70.2369409,64.5536207 C68.2873645,60.4826355 67.4073251,49.7278473 67.7766847,45.1815123 Z" id="Path" fill="#EA4A65"></path>
                <path d="M63.569197,77.3599606 L69.3809901,74.6764828 C77.7317291,81.8934483 87.6779409,81.8934483 96.0286798,74.6764828 L101.83967,77.3599606 C107.13436,79.8041576 112.413793,84.1304828 112.413793,90.0225714 L112.413793,107.042823 C112.413793,109.983246 110.020985,112.413793 107.127133,112.413793 L58.281734,112.413793 C55.3878818,112.413793 52.9950739,109.9977 52.9950739,107.042823 L52.9950739,90.0225714 C52.9950739,84.1136207 58.2745074,79.8049606 63.569197,77.3599606 Z" id="Path" fill="#EA4A65"></path>
                <polygon id="Fill-310" fill="#FFFFFF" points="40.1477833 102.778325 125.261084 102.778325 125.261084 89.9310345 40.1477833 89.9310345"></polygon>
            </g>
        </g>
    </g>
</svg>