<?xml version="1.0" encoding="UTF-8"?>
<svg width="173px" height="172px" viewBox="0 0 173 172" version="1.1" xmlns="http://www.w3.org/2000/svg" xmlns:xlink="http://www.w3.org/1999/xlink">
    <!-- Generator: Sketch 52.6 (67491) - http://www.bohemiancoding.com/sketch -->
    <title>Group 65</title>
    <desc>Created with Sketch.</desc>
    <defs>
        <path d="M16.3079728,14.412212 C17.0831087,4.80407065 24.5022663,0 32.7780598,0 C41.0538533,0 48.4712391,4.80407065 49.2481467,14.412212 C49.653875,19.4280054 48.6838478,31.2933424 46.5329565,35.7847011 C44.6531413,39.7135326 40.2725163,43.487337 35.4206087,44.7780489 C33.0721685,45.1820054 32.484837,45.1793478 30.1363967,44.7780489 C25.2827174,43.4891087 20.9038641,39.7135326 19.0222772,35.7847011 C16.8713859,31.2933424 15.9004728,19.4280054 16.3079728,14.412212 Z M11.6660163,49.9134348 L18.0779402,46.9528587 C27.2909837,54.9150543 38.26425,54.9150543 47.4772935,46.9528587 L53.8883315,49.9134348 C59.7297554,52.6100217 65.5543478,57.383087 65.5543478,63.8835978 L65.5543478,82.661375 C65.5543478,85.9054293 62.9144565,88.5869565 59.7217826,88.5869565 L5.83256522,88.5869565 C2.6398913,88.5869565 0,85.921375 0,82.661375 L0,63.8835978 C0,57.3644837 5.82459239,52.6109076 11.6660163,49.9134348 Z" id="path-1"></path>
    </defs>
    <g id="Page-1" stroke="none" stroke-width="1" fill="none" fill-rule="evenodd">
        <g id="48" transform="translate(0.000000, -1.000000)">
            <g id="Group-65" transform="translate(5.000000, 6.000000)">
                <path d="M61.1808098,161.228261 C51.6240489,161.228261 38.929538,155.097158 32.9711793,147.600929 L7.63353804,115.729114 C1.67606522,108.236429 -1.45991304,94.4558424 0.666173913,85.1108043 L9.71090217,45.3644946 C11.8361033,36.0167989 20.6212717,24.9691196 29.231038,20.8090761 L65.844913,3.12003261 C74.4555652,-1.04001087 88.5453207,-1.04001087 97.155087,3.12003261 L133.769848,20.8090761 C142.379614,24.9691196 151.163897,36.0167989 153.289984,45.3644946 L162.333826,85.1108043 C164.460799,94.4558424 161.323935,108.236429 155.366462,115.729114 L130.029707,147.600929 C124.070462,155.097158 111.376837,161.228261 101.820076,161.228261 L61.1808098,161.228261" id="Stroke-245" stroke="#ED4962" stroke-width="10"></path>
                <g id="Group-248" transform="translate(47.836957, 33.663043)">
                    <mask id="mask-2" fill="white">
                        <use xlink:href="#path-1"></use>
                    </mask>
                    <g id="Clip-247"></g>
                    <polygon id="Fill-246" fill="#EA4A65" mask="url(#mask-2)" points="-0.0531521739 88.6401087 65.6429348 88.6401087 65.6429348 -0.0177173913 -0.0531521739 -0.0177173913"></polygon>
                </g>
                <polygon id="Fill-318" fill="#FFFFFF" points="35.4347826 113.391304 129.336957 113.391304 129.336957 99.2173913 35.4347826 99.2173913"></polygon>
            </g>
        </g>
    </g>
</svg>