<?xml version="1.0" encoding="UTF-8"?>
<svg width="173px" height="173px" viewBox="0 0 173 173" version="1.1" xmlns="http://www.w3.org/2000/svg" xmlns:xlink="http://www.w3.org/1999/xlink">
    <!-- Generator: Sketch 52.6 (67491) - http://www.bohemiancoding.com/sketch -->
    <title>Group 67</title>
    <desc>Created with Sketch.</desc>
    <defs>
        <path d="M15.628474,13.8117031 C16.3713125,4.60390104 23.4813385,0 31.4123073,0 C39.343276,0 46.4516042,4.60390104 47.1961406,13.8117031 C47.5849635,18.6185052 46.6553542,29.9894531 44.5940833,34.2936719 C42.7925937,38.059651 38.5944948,41.6753646 33.94475,42.9122969 C31.6941615,43.2994219 31.1313021,43.296875 28.8807135,42.9122969 C24.2292708,41.6770625 20.0328698,38.059651 18.2296823,34.2936719 C16.1684115,29.9894531 15.2379531,18.6185052 15.628474,13.8117031 Z M11.1799323,47.8337083 L17.3246927,44.9964896 C26.1538594,52.6269271 36.6699062,52.6269271 45.4990729,44.9964896 L51.6429844,47.8337083 C57.2410156,50.4179375 62.8229167,54.992125 62.8229167,61.2217812 L62.8229167,79.217151 C62.8229167,82.3260365 60.2930208,84.8958333 57.233375,84.8958333 L5.58954167,84.8958333 C2.52989583,84.8958333 0,82.3413177 0,79.217151 L0,61.2217812 C0,54.9742969 5.58190104,50.4187865 11.1799323,47.8337083 Z" id="path-1"></path>
    </defs>
    <g id="Page-1" stroke="none" stroke-width="1" fill="none" fill-rule="evenodd">
        <g id="49">
            <g id="Group-67" transform="translate(5.000000, 5.000000)">
                <path d="M104.089932,0 L58.9075208,0 C51.7575938,0 44.9005573,2.84061458 39.8450104,7.89616146 L7.89616146,39.8458594 C2.84061458,44.9014062 0,51.7584427 0,58.9083698 L0,104.092479 C0,111.241557 2.84061458,118.098594 7.89616146,123.15499 L39.8450104,155.103839 C44.9005573,160.160234 51.7575938,163 58.9075208,163 L104.089932,163 C111.239859,163 118.097745,160.160234 123.153292,155.103839 L155.101292,123.15499 C160.158536,118.098594 163,111.241557 163,104.092479 L163,58.9083698 C163,51.7584427 160.158536,44.9014062 155.101292,39.8458594 L123.153292,7.89616146 C118.097745,2.84061458 111.239859,0 104.089932,0" id="Path" stroke="#ED4962" stroke-width="10"></path>
                <g id="Group-228" transform="translate(50.937500, 39.052083)">
                    <mask id="mask-2" fill="white">
                        <use xlink:href="#path-1"></use>
                    </mask>
                    <g id="Clip-227"></g>
                    <polygon id="Fill-226" fill="#EA4A65" mask="url(#mask-2)" points="-0.0848958333 84.9807292 62.8738542 84.9807292 62.8738542 -0.0848958333 -0.0848958333 -0.0848958333"></polygon>
                </g>
                <polygon id="Fill-320" fill="#FFFFFF" points="35.65625 115.458333 125.645833 115.458333 125.645833 101.875 35.65625 101.875"></polygon>
            </g>
        </g>
    </g>
</svg>