<?xml version="1.0" encoding="UTF-8"?>
<svg width="172px" height="172px" viewBox="0 0 172 172" version="1.1" xmlns="http://www.w3.org/2000/svg" xmlns:xlink="http://www.w3.org/1999/xlink">
    <!-- Generator: Sketch 52.6 (67491) - http://www.bohemiancoding.com/sketch -->
    <title>Group 68</title>
    <desc>Created with Sketch.</desc>
    <defs>
        <path d="M16.0336452,14.1697742 C16.7957419,4.72325806 24.0900968,0 32.2266774,0 C40.3632581,0 47.655871,4.72325806 48.4197097,14.1697742 C48.8186129,19.1011935 47.8649032,30.7669355 45.7501935,35.1827419 C43.902,39.0463548 39.5950645,42.7558065 34.8247742,44.0248065 C32.5158387,44.4219677 31.9383871,44.4193548 29.6294516,44.0248065 C24.8574194,42.7575484 20.5522258,39.0463548 18.7022903,35.1827419 C16.5875806,30.7669355 15.633,19.1011935 16.0336452,14.1697742 Z M11.4697742,49.0738065 L17.7738387,46.1630323 C26.8319032,53.9912903 37.6205806,53.9912903 46.6786452,46.1630323 L52.9818387,49.0738065 C58.725,51.7250323 64.4516129,56.4178065 64.4516129,62.8089677 L64.4516129,81.270871 C64.4516129,84.4603548 61.856129,87.0967742 58.7171613,87.0967742 L5.73445161,87.0967742 C2.59548387,87.0967742 0,84.4760323 0,81.270871 L0,62.8089677 C0,56.3995161 5.7266129,51.7259032 11.4697742,49.0738065 Z" id="path-1"></path>
    </defs>
    <g id="Page-1" stroke="none" stroke-width="1" fill="none" fill-rule="evenodd">
        <g id="50" transform="translate(-1.000000, -1.000000)">
            <g id="Group-68" transform="translate(6.000000, 6.000000)">
                <path d="M81,162 C125.735516,162 162,125.734645 162,81 C162,36.2653548 125.735516,0 81,0 C36.2644839,0 0,36.2653548 0,81 C0,125.734645 36.2644839,162 81,162 Z" id="Stroke-233" stroke="#ED4962" stroke-width="10"></path>
                <g id="Group-237" transform="translate(48.774194, 36.580645)">
                    <mask id="mask-2" fill="white">
                        <use xlink:href="#path-1"></use>
                    </mask>
                    <g id="Clip-235"></g>
                    <polygon id="Fill-234" fill="#FFFFFE" mask="url(#mask-2)" points="-0.0174193548 87.1141935 64.4690323 87.1141935 64.4690323 -0.0522580645 -0.0174193548 -0.0522580645"></polygon>
                    <polygon id="Fill-236" fill="#EA4A65" mask="url(#mask-2)" points="-0.0174193548 87.1141935 64.4690323 87.1141935 64.4690323 -0.0522580645 -0.0174193548 -0.0522580645"></polygon>
                </g>
                <polygon id="Fill-322" fill="#FFFFFF" points="34.8387097 113.225806 127.16129 113.225806 127.16129 99.2903226 34.8387097 99.2903226"></polygon>
            </g>
        </g>
    </g>
</svg>