<?xml version="1.0" encoding="UTF-8"?>
<svg width="202px" height="202px" viewBox="0 0 202 202" version="1.1" xmlns="http://www.w3.org/2000/svg" xmlns:xlink="http://www.w3.org/1999/xlink">
    <title>Untitled</title>
    <defs>
        <path d="M60.836,62.551 L69.052,66.352 C76.537,69.813 84,75.941 84,84.287 L84,108.393 C84,112.557 80.617,116 76.526,116 L7.474,116 C3.383,116 0,112.578 0,108.393 L0,84.287 C0,75.918 7.463,69.815 14.948,66.352 L23.165,62.551 C34.97,72.773 49.031,72.773 60.836,62.551 Z M42.001,0 C52.606,0 62.11,6.167 63.105,18.502 C63.625,24.941 62.382,40.173 59.627,45.939 C57.217,50.983 51.605,55.828 45.387,57.485 C42.378,58.003 41.625,58 38.616,57.485 C32.397,55.83 26.786,50.983 24.375,45.939 C21.619,40.173 20.375,24.941 20.896,18.502 C21.89,6.167 31.397,0 42.001,0 Z" id="path-1"></path>
    </defs>
    <g id="Page-1" stroke="none" stroke-width="1" fill="none" fill-rule="evenodd">
        <g id="Group-142" transform="translate(59.000000, 40.000000)">
            <mask id="mask-2" fill="white">
                <use xlink:href="#path-1"></use>
            </mask>
            <g id="Clip-141"></g>
            <polygon id="Fill-140" fill="#15ADE4" mask="url(#mask-2)" points="-0.06 116.06 84.06 116.06 84.06 -0.1 -0.06 -0.1"></polygon>
        </g>
        <polygon id="Fill-324" fill="#FFFFFF" points="57 142 145 142 145 126 57 126"></polygon>
        <rect id="Rectangle" opacity="0" x="0" y="0" width="202" height="202"></rect>
    </g>
</svg>