<?xml version="1.0" encoding="UTF-8"?>
<svg width="132px" height="174px" viewBox="0 0 132 174" version="1.1" xmlns="http://www.w3.org/2000/svg" xmlns:xlink="http://www.w3.org/1999/xlink">
    <!-- Generator: Sketch 52.6 (67491) - http://www.bohemiancoding.com/sketch -->
    <title>Group 2</title>
    <desc>Created with Sketch.</desc>
    <defs>
        <path d="M65.9368421,174 C29.5204737,174 0,135.048726 0,87 C0,38.9512737 29.5204737,0 65.9368421,0 C102.352295,0 131.873684,38.9512737 131.873684,87 C131.873684,135.048726 102.352295,174 65.9368421,174 Z" id="path-1"></path>
        <path d="M16.8587684,14.8989789 C17.6600842,4.96632632 25.3298211,0 33.8851263,0 C42.4404316,0 50.1083368,4.96632632 50.9114842,14.8989789 C51.3309158,20.0841789 50.3281263,32.3502632 48.1045895,36.9933158 C46.1612842,41.0557579 41.6327053,44.9561053 36.6169263,46.2904105 C34.1891684,46.7070947 33.582,46.7052632 31.1542421,46.2904105 C26.1366316,44.9570211 21.6098842,41.0557579 19.6647474,36.9933158 C17.4412105,32.3502632 16.4375053,20.0841789 16.8587684,14.8989789 Z M12.0591158,51.5992421 L18.6885158,48.5386737 C28.2127263,56.7697895 39.5566105,56.7697895 49.0808211,48.5386737 L55.7083895,51.5992421 C61.7471053,54.3869053 67.7684211,59.3211789 67.7684211,66.0412421 L67.7684211,85.4532316 C67.7684211,88.8068526 65.0393684,91.5789474 61.7388632,91.5789474 L6.02955789,91.5789474 C2.72905263,91.5789474 0,88.8233368 0,85.4532316 L0,66.0412421 C0,59.3019474 6.02131579,54.3878211 12.0591158,51.5992421 Z" id="path-3"></path>
    </defs>
    <g id="Page-1" stroke="none" stroke-width="1" fill="none" fill-rule="evenodd">
        <g id="1" transform="translate(-21.000000, 0.000000)">
            <g id="Group-2" transform="translate(21.000000, 0.000000)">
                <g id="Group">
                    <g id="Group-38">
                        <mask id="mask-2" fill="white">
                            <use xlink:href="#path-1"></use>
                        </mask>
                        <g id="Clip-37"></g>
                        <polygon id="Fill-36" fill="#EA4A65" mask="url(#mask-2)" points="-0.0183157895 174.054947 131.965263 174.054947 131.965263 -0.0183157895 -0.0183157895 -0.0183157895"></polygon>
                    </g>
                    <g id="Group-41" transform="translate(32.968421, 40.294737)">
                        <mask id="mask-4" fill="white">
                            <use xlink:href="#path-3"></use>
                        </mask>
                        <g id="Clip-40"></g>
                        <polygon id="Fill-39" fill="#FFFFFE" mask="url(#mask-4)" points="-0.0183157895 91.6705263 67.7867368 91.6705263 67.7867368 -0.0915789474 -0.0183157895 -0.0915789474"></polygon>
                    </g>
                </g>
            </g>
        </g>
    </g>
</svg>