<?xml version="1.0" encoding="UTF-8"?>
<svg width="129px" height="174px" viewBox="0 0 129 174" version="1.1" xmlns="http://www.w3.org/2000/svg" xmlns:xlink="http://www.w3.org/1999/xlink">
    <!-- Generator: Sketch 52.6 (67491) - http://www.bohemiancoding.com/sketch -->
    <title>Group</title>
    <desc>Created with Sketch.</desc>
    <defs>
        <path d="M128.6875,144.206125 C128.6875,160.66 116.232906,174 100.868344,174 L27.8191563,174 C12.4564063,174 0,160.660906 0,144.206125 L0,29.7929688 C0,13.3390938 12.4564063,0 27.8191563,0 L100.868344,0 C116.232906,0 128.6875,13.3390938 128.6875,29.7929688 L128.6875,144.206125 Z" id="path-1"></path>
        <path d="M16.6831563,14.7437812 C17.476125,4.91459375 25.0659688,0 33.5321563,0 C41.9983438,0 49.586375,4.91459375 50.3811563,14.7437812 C50.7962188,19.8749688 49.803875,32.0132812 47.6035,36.6079687 C45.6804375,40.6280938 41.1990313,44.4878125 36.2355,45.8082188 C33.8330313,46.2214688 33.2321875,46.21875 30.8297188,45.8082188 C25.864375,44.489625 21.3847813,40.6280938 19.4599063,36.6079687 C17.2595313,32.0132812 16.2662813,19.8749688 16.6831563,14.7437812 Z M11.9335,51.06175 L18.4938438,48.0330625 C27.9188438,56.1784375 39.1445625,56.1784375 48.5695625,48.0330625 L55.1280938,51.06175 C61.1039063,53.820375 67.0625,58.70325 67.0625,65.3533125 L67.0625,84.5630937 C67.0625,87.8817812 64.361875,90.625 61.09575,90.625 L5.96675,90.625 C2.700625,90.625 0,87.8980937 0,84.5630937 L0,65.3533125 C0,58.6842187 5.95859375,53.8212812 11.9335,51.06175 Z" id="path-3"></path>
    </defs>
    <g id="Page-1" stroke="none" stroke-width="1" fill="none" fill-rule="evenodd">
        <g id="2" transform="translate(-23.000000, 0.000000)">
            <g id="Group" transform="translate(23.000000, 0.000000)">
                <g id="Group-23">
                    <mask id="mask-2" fill="white">
                        <use xlink:href="#path-1"></use>
                    </mask>
                    <g id="Clip-22"></g>
                    <polygon id="Fill-21" fill="#EA4A65" mask="url(#mask-2)" points="-0.054375 174.018125 128.705625 174.018125 128.705625 -0.090625 -0.054375 -0.090625"></polygon>
                </g>
                <g id="Group-26" transform="translate(29.906250, 37.156250)">
                    <mask id="mask-4" fill="white">
                        <use xlink:href="#path-3"></use>
                    </mask>
                    <g id="Clip-25"></g>
                    <polygon id="Fill-24" fill="#FFFFFE" mask="url(#mask-4)" points="-0.054375 90.643125 67.153125 90.643125 67.153125 -0.054375 -0.054375 -0.054375"></polygon>
                </g>
            </g>
        </g>
    </g>
</svg>