<?xml version="1.0" encoding="UTF-8"?>
<svg width="174px" height="126px" viewBox="0 0 174 126" version="1.1" xmlns="http://www.w3.org/2000/svg" xmlns:xlink="http://www.w3.org/1999/xlink">
    <!-- Generator: Sketch 52.6 (67491) - http://www.bohemiancoding.com/sketch -->
    <title>Group 2</title>
    <desc>Created with Sketch.</desc>
    <defs>
        <path d="M26.1935484,0 L147.806452,0 C162.272774,0 174,11.7272258 174,26.1935484 L174,99.1612903 C174,113.627613 162.272774,125.354839 147.806452,125.354839 L26.1935484,125.354839 C11.7272258,125.354839 0,113.627613 0,99.1612903 L0,26.1935484 C0,11.7272258 11.7272258,0 26.1935484,0 Z" id="path-1"></path>
        <path d="M17.2213226,15.2193871 C18.039871,5.07312903 25.8745484,0 34.6138387,0 C43.353129,0 51.1859355,5.07312903 52.0063548,15.2193871 C52.4348065,20.5160968 51.4104516,33.0459677 49.1390968,37.788871 C47.154,41.9377419 42.5280323,45.9229032 37.4043871,47.2859032 C34.9244194,47.7124839 34.3041935,47.7096774 31.8242258,47.2859032 C26.6987097,45.9247742 22.0746129,41.9377419 20.0876452,37.788871 C17.8162903,33.0459677 16.791,20.5160968 17.2213226,15.2193871 Z M12.3184516,52.7089032 L19.0904194,49.5825161 C28.8194516,57.9906452 40.4072903,57.9906452 50.1363226,49.5825161 L56.9064194,52.7089032 C63.075,55.5565161 69.2258065,60.5969032 69.2258065,67.4614839 L69.2258065,87.291871 C69.2258065,90.7166774 66.4380645,93.5483871 63.0665806,93.5483871 L6.15922581,93.5483871 C2.78774194,93.5483871 0,90.7335161 0,87.291871 L0,67.4614839 C0,60.5772581 6.15080645,55.5574516 12.3184516,52.7089032 Z" id="path-3"></path>
    </defs>
    <g id="Page-1" stroke="none" stroke-width="1" fill="none" fill-rule="evenodd">
        <g id="3" transform="translate(0.000000, -24.000000)">
            <g id="Group-2" transform="translate(0.000000, 24.000000)">
                <g id="Group">
                    <g id="Group-5">
                        <mask id="mask-2" fill="white">
                            <use xlink:href="#path-1"></use>
                        </mask>
                        <g id="Clip-4"></g>
                        <polygon id="Fill-3" fill="#EA4A65" mask="url(#mask-2)" points="-0.0935483871 125.373548 174.01871 125.373548 174.01871 -0.0187096774 -0.0935483871 -0.0187096774"></polygon>
                    </g>
                    <g id="Group-8" transform="translate(52.000000, 16.000000)">
                        <mask id="mask-4" fill="white">
                            <use xlink:href="#path-3"></use>
                        </mask>
                        <g id="Clip-7"></g>
                        <polygon id="Fill-6" fill="#FFFFFE" mask="url(#mask-4)" points="-0.0187096774 93.6045161 69.2445161 93.6045161 69.2445161 -0.0187096774 -0.0187096774 -0.0187096774"></polygon>
                    </g>
                </g>
            </g>
        </g>
    </g>
</svg>