<?xml version="1.0" encoding="UTF-8"?>
<svg width="174px" height="156px" viewBox="0 0 174 156" version="1.1" xmlns="http://www.w3.org/2000/svg" xmlns:xlink="http://www.w3.org/1999/xlink">
    <!-- Generator: Sketch 52.6 (67491) - http://www.bohemiancoding.com/sketch -->
    <title>Group 3</title>
    <desc>Created with Sketch.</desc>
    <defs>
        <path d="M65.9535176,11.8918653 C75.1903699,-3.96425944 98.2802181,-3.96425944 107.51707,11.8918653 L170.220297,119.53493 C179.456236,135.391055 167.910399,155.210526 149.438521,155.210526 L24.0311545,155.210526 C5.56018885,155.210526 -5.98564829,135.391055 3.25029102,119.53493 L65.9535176,11.8918653 Z" id="path-1"></path>
        <path d="M16.807474,14.8536473 C17.6063517,4.95121578 25.2527526,0 33.7820275,0 C42.3113024,0 49.9558773,4.95121578 50.756581,14.8536473 C51.1747365,20.0230709 50.1749981,32.2518343 47.9582266,36.88076 C46.020834,40.9299287 41.5060337,44.8193219 36.5055157,46.1495674 C34.0851445,46.5649838 33.4798235,46.5631578 31.0594523,46.1495674 C26.0571083,44.8211479 21.544134,40.9299287 19.6049155,36.88076 C17.3881439,32.2518343 16.3874925,20.0230709 16.807474,14.8536473 Z M12.0224248,51.4422464 L18.6316542,48.39099 C28.1268863,56.5970618 39.4362557,56.5970618 48.9314879,48.39099 L55.5388913,51.4422464 C61.5592337,54.2214278 67.562229,59.1406885 67.562229,65.8403052 L67.562229,85.1932318 C67.562229,88.5366491 64.8414798,91.3003095 61.5510166,91.3003095 L6.01121238,91.3003095 C2.72074922,91.3003095 0,88.5530832 0,85.1932318 L0,65.8403052 C0,59.1215154 6.00299535,54.2223408 12.0224248,51.4422464 Z" id="path-3"></path>
    </defs>
    <g id="Page-1" stroke="none" stroke-width="1" fill="none" fill-rule="evenodd">
        <g id="4" transform="translate(0.000000, -9.000000)">
            <g id="Group-3" transform="translate(0.000000, 9.000000)">
                <g id="Group-20">
                    <mask id="mask-2" fill="white">
                        <use xlink:href="#path-1"></use>
                    </mask>
                    <g id="Clip-19"></g>
                    <polygon id="Fill-18" fill="#EA4A65" mask="url(#mask-2)" points="-0.0547801857 155.228786 173.488848 155.228786 173.488848 -0.0182600619 -0.0547801857 -0.0182600619"></polygon>
                </g>
                <g id="Group-29" transform="translate(51.128173, 41.998142)">
                    <mask id="mask-4" fill="white">
                        <use xlink:href="#path-3"></use>
                    </mask>
                    <g id="Clip-28"></g>
                    <polygon id="Fill-27" fill="#FFFFFE" mask="url(#mask-4)" points="-0.0182600619 91.3185695 67.5804891 91.3185695 67.5804891 -0.0547801857 -0.0182600619 -0.0547801857"></polygon>
                </g>
            </g>
        </g>
    </g>
</svg>