<?xml version="1.0" encoding="UTF-8"?>
<svg width="174px" height="169px" viewBox="0 0 174 169" version="1.1" xmlns="http://www.w3.org/2000/svg" xmlns:xlink="http://www.w3.org/1999/xlink">
    <!-- Generator: Sketch 52.6 (67491) - http://www.bohemiancoding.com/sketch -->
    <title>Group 6</title>
    <desc>Created with Sketch.</desc>
    <defs>
        <path d="M69.791319,5.54385412 C79.9548992,-1.84825606 93.7180997,-1.84825606 103.882594,5.54385412 L161.717835,47.609504 C171.882329,55.0016142 176.134598,68.1048539 172.252529,80.0664161 L150.161207,148.131051 C146.279138,160.091699 135.144812,168.189474 122.58179,168.189474 L51.092123,168.189474 C38.5291006,168.189474 27.3947746,160.091699 23.5117915,148.131051 L1.42138387,80.0664161 C-2.46068513,68.1048539 1.79158352,55.0016142 11.9551637,47.609504 L69.791319,5.54385412 Z" id="path-1"></path>
        <path d="M16.827174,14.8710573 C17.6269881,4.95701911 25.2823514,0 33.8216234,0 C42.3608955,0 50.0144307,4.95701911 50.8160729,14.8710573 C51.2347184,20.0465399 50.2338082,32.2896367 48.0144384,36.923988 C46.074775,40.9779027 41.5546829,44.8718547 36.5483039,46.2036594 C34.1250958,46.6204768 33.5190652,46.6177345 31.0958571,46.2036594 C26.0876499,44.8736828 21.5693859,40.9779027 19.6278944,36.923988 C17.4085246,32.2896367 16.4067003,20.0465399 16.827174,14.8710573 Z M12.0365162,51.5025419 L18.6534923,48.4477091 C28.1598539,56.6633993 39.4824789,56.6633993 48.9888405,48.4477091 L55.6039884,51.5025419 C61.6313873,54.2849808 67.6414187,59.2100073 67.6414187,65.9174766 L67.6414187,85.2930868 C67.6414187,88.640423 64.9174805,91.4073226 61.6231606,91.4073226 L6.01825812,91.4073226 C2.72393821,91.4073226 0,88.6568763 0,85.2930868 L0,65.9174766 C0,59.1908118 6.01003146,54.2858948 12.0365162,51.5025419 Z" id="path-3"></path>
    </defs>
    <g id="Page-1" stroke="none" stroke-width="1" fill="none" fill-rule="evenodd">
        <g id="6" transform="translate(0.000000, -3.000000)">
            <g id="Group-6" transform="translate(0.000000, 3.000000)">
                <g id="Group-57">
                    <mask id="mask-2" fill="white">
                        <use xlink:href="#path-1"></use>
                    </mask>
                    <g id="Clip-56"></g>
                    <polygon id="Fill-55" fill="#EA4A65" mask="url(#mask-2)" points="-0.0914073226 168.244318 173.76532 168.244318 173.76532 -0.0182814645 -0.0914073226 -0.0182814645"></polygon>
                </g>
                <g id="Group-60" transform="translate(53.016247, 40.219222)">
                    <mask id="mask-4" fill="white">
                        <use xlink:href="#path-3"></use>
                    </mask>
                    <g id="Clip-59"></g>
                    <polygon id="Fill-58" fill="#FFFFFE" mask="url(#mask-4)" points="-0.0182814645 91.49873 67.6597002 91.49873 67.6597002 -0.0914073226 -0.0182814645 -0.0914073226"></polygon>
                </g>
            </g>
        </g>
    </g>
</svg>