<?xml version="1.0" encoding="UTF-8"?>
<svg width="202px" height="202px" viewBox="0 0 202 202" version="1.1" xmlns="http://www.w3.org/2000/svg" xmlns:xlink="http://www.w3.org/1999/xlink">
    <title>Untitled</title>
    <defs>
        <path d="M76.352,6.065 C87.471,-2.022 102.528,-2.022 113.648,6.065 L113.648,6.065 L176.92,52.085 C188.04,60.172 192.692,74.507 188.445,87.593 L188.445,87.593 L164.277,162.056 C160.03,175.141 147.849,184 134.105,184 L134.105,184 L55.895,184 C42.151,184 29.97,175.141 25.722,162.056 L25.722,162.056 L1.555,87.593 C-2.692,74.507 1.96,60.172 13.079,52.085 L13.079,52.085 L76.352,6.065 Z" id="path-1"></path>
        <path d="M53.594,53.002 L60.831,56.344 C67.425,59.388 74,64.776 74,72.114 L74,93.311 C74,96.973 71.02,100 67.416,100 L6.584,100 C2.98,100 0,96.991 0,93.311 L0,72.114 C0,64.755 6.575,59.389 13.168,56.344 L20.407,53.002 C30.807,61.99 43.194,61.99 53.594,53.002 Z M37.001,0 C46.343,0 54.716,5.423 55.593,16.269 C56.051,21.931 54.956,35.325 52.528,40.395 C50.406,44.83 45.461,49.09 39.984,50.547 C37.333,51.003 36.67,51 34.019,50.547 C28.54,49.092 23.597,44.83 21.473,40.395 C19.045,35.325 17.949,21.931 18.409,16.269 C19.284,5.423 27.659,0 37.001,0 Z" id="path-3"></path>
    </defs>
    <g id="Page-1" stroke="none" stroke-width="1" fill="none" fill-rule="evenodd">
        <g id="Group-57" transform="translate(6.000000, 7.000000)">
            <mask id="mask-2" fill="white">
                <use xlink:href="#path-1"></use>
            </mask>
            <g id="Clip-56"></g>
            <polygon id="Fill-55" fill="#EA4D64" mask="url(#mask-2)" points="-0.1 184.06 190.1 184.06 190.1 -0.02 -0.1 -0.02"></polygon>
        </g>
        <g id="Group-60" transform="translate(64.000000, 51.000000)">
            <mask id="mask-4" fill="white">
                <use xlink:href="#path-3"></use>
            </mask>
            <g id="Clip-59"></g>
            <polygon id="Fill-58" fill="#FFFFFE" mask="url(#mask-4)" points="-0.02 100.1 74.02 100.1 74.02 -0.1 -0.02 -0.1"></polygon>
        </g>
        <rect id="Rectangle" opacity="0" x="0" y="0" width="202" height="202"></rect>
    </g>
</svg>