<?xml version="1.0" encoding="UTF-8"?>
<svg width="174px" height="158px" viewBox="0 0 174 158" version="1.1" xmlns="http://www.w3.org/2000/svg" xmlns:xlink="http://www.w3.org/1999/xlink">
    <!-- Generator: Sketch 52.6 (67491) - http://www.bohemiancoding.com/sketch -->
    <title>Group 7</title>
    <desc>Created with Sketch.</desc>
    <defs>
        <path d="M116.405143,0 C126.017143,0 134.898857,5.14628571 139.704857,13.5 L169.538571,65.3571429 C174.344571,73.7108571 174.344571,84.0034286 169.538571,92.358 L139.704857,144.214286 C134.898857,152.568857 126.017143,157.714286 116.405143,157.714286 L56.7377143,157.714286 C47.1257143,157.714286 38.244,152.568857 33.438,144.214286 L3.60428571,92.358 C-1.20171429,84.0034286 -1.20171429,73.7108571 3.60428571,65.3571429 L33.438,13.5 C38.244,5.14628571 47.1257143,0 56.7377143,0 L116.405143,0 Z" id="path-1"></path>
        <path d="M15.7791429,13.9448571 C16.5291429,4.64828571 23.7077143,0 31.7151429,0 C39.7225714,0 46.8994286,4.64828571 47.6511429,13.9448571 C48.0437143,18.798 47.1051429,30.2785714 45.024,34.6242857 C43.2051429,38.4257143 38.9665714,42.0771429 34.272,43.326 C31.9997143,43.7168571 31.4314286,43.7142857 29.1591429,43.326 C24.4628571,42.0788571 20.226,38.4257143 18.4054286,34.6242857 C16.3242857,30.2785714 15.3848571,18.798 15.7791429,13.9448571 Z M11.2868571,48.2948571 L17.4917143,45.4302857 C26.406,53.1342857 37.0234286,53.1342857 45.9377143,45.4302857 L52.1408571,48.2948571 C57.7928571,50.904 63.4285714,55.5222857 63.4285714,61.812 L63.4285714,79.9808571 C63.4285714,83.1197143 60.8742857,85.7142857 57.7851429,85.7142857 L5.64342857,85.7142857 C2.55428571,85.7142857 0,83.1351429 0,79.9808571 L0,61.812 C0,55.5042857 5.63571429,50.9048571 11.2868571,48.2948571 Z" id="path-3"></path>
    </defs>
    <g id="Page-1" stroke="none" stroke-width="1" fill="none" fill-rule="evenodd">
        <g id="7" transform="translate(0.000000, -8.000000)">
            <g id="Group-7" transform="translate(0.000000, 8.000000)">
                <g id="Group-14">
                    <mask id="mask-2" fill="white">
                        <use xlink:href="#path-1"></use>
                    </mask>
                    <g id="Clip-13"></g>
                    <polygon id="Fill-12" fill="#EA4A65" mask="url(#mask-2)" points="-0.0171428571 157.8 173.194286 157.8 173.194286 -0.0857142857 -0.0171428571 -0.0857142857"></polygon>
                </g>
                <g id="Group-32" transform="translate(56.571429, 34.285714)">
                    <mask id="mask-4" fill="white">
                        <use xlink:href="#path-3"></use>
                    </mask>
                    <g id="Clip-31"></g>
                    <polygon id="Fill-30" fill="#FFFFFE" mask="url(#mask-4)" points="-0.0171428571 85.7657143 63.4457143 85.7657143 63.4457143 -0.0171428571 -0.0171428571 -0.0171428571"></polygon>
                </g>
            </g>
        </g>
    </g>
</svg>