<?xml version="1.0" encoding="UTF-8"?>
<svg width="174px" height="172px" viewBox="0 0 174 172" version="1.1" xmlns="http://www.w3.org/2000/svg" xmlns:xlink="http://www.w3.org/1999/xlink">
    <!-- Generator: Sketch 52.6 (67491) - http://www.bohemiancoding.com/sketch -->
    <title>Group</title>
    <desc>Created with Sketch.</desc>
    <defs>
        <path d="M65.3095761,172.108696 C55.1078804,172.108696 41.5566848,165.563837 35.1962283,157.561728 L8.14868478,123.539054 C1.78917391,115.540728 -1.55843478,100.830163 0.711130435,90.8535326 L10.3662391,48.4259022 C12.6348587,38.4473804 22.0128913,26.6541522 31.2036848,22.2133696 L70.2884348,3.33058696 C79.4801739,-1.11019565 94.5207717,-1.11019565 103.711565,3.33058696 L142.797261,22.2133696 C151.988054,26.6541522 161.365141,38.4473804 163.634707,48.4259022 L173.28887,90.8535326 C175.558435,100.830163 172.210826,115.540728 165.851315,123.539054 L138.804717,157.561728 C132.443315,165.563837 118.89212,172.108696 108.69137,172.108696 L65.3095761,172.108696 Z" id="path-1"></path>
        <path d="M17.4085109,15.3848152 C18.2359565,5.12827174 26.1557935,0 34.9900761,0 C43.8243587,0 51.7423043,5.12827174 52.5716413,15.3848152 C53.00475,20.7390978 51.9692609,33.405163 49.6732174,38.1996196 C47.6665435,42.393587 42.9902935,46.4220652 37.8109565,47.7998804 C35.3040326,48.2310978 34.6770652,48.2282609 32.1701413,47.7998804 C26.988913,46.4239565 22.3145543,42.393587 20.3059891,38.1996196 C18.0099457,33.405163 16.9735109,20.7390978 17.4085109,15.3848152 Z M12.4532935,53.2818261 L19.2979239,50.1214565 C29.1327065,58.6209783 40.8465,58.6209783 50.6812826,50.1214565 L57.525913,53.2818261 C63.7605978,56.1603913 69.9782609,61.2555652 69.9782609,68.1947609 L69.9782609,88.23975 C69.9782609,91.7027283 67.1602174,94.5652174 63.752087,94.5652174 L6.22617391,94.5652174 C2.81804348,94.5652174 0,91.71975 0,88.23975 L0,68.1947609 C0,61.2357065 6.21766304,56.161337 12.4532935,53.2818261 Z" id="path-3"></path>
    </defs>
    <g id="Page-1" stroke="none" stroke-width="1" fill="none" fill-rule="evenodd">
        <g id="8" transform="translate(0.000000, -2.000000)">
            <g id="Group" transform="translate(0.000000, 2.000000)">
                <g id="Group-66">
                    <mask id="mask-2" fill="white">
                        <use xlink:href="#path-1"></use>
                    </mask>
                    <g id="Clip-65"></g>
                    <polygon id="Fill-64" fill="#EA4A65" mask="url(#mask-2)" points="-0.0945652174 172.203261 174.094565 172.203261 174.094565 -0.0567391304 -0.0945652174 -0.0567391304"></polygon>
                </g>
                <g id="Group-69" transform="translate(51.065217, 35.934783)">
                    <mask id="mask-4" fill="white">
                        <use xlink:href="#path-3"></use>
                    </mask>
                    <g id="Clip-68"></g>
                    <polygon id="Fill-67" fill="#FFFFFE" mask="url(#mask-4)" points="-0.0945652174 94.6219565 70.035 94.6219565 70.035 -0.0189130435 -0.0945652174 -0.0189130435"></polygon>
                </g>
            </g>
        </g>
    </g>
</svg>