<?xml version="1.0" encoding="UTF-8"?>
<svg width="202px" height="202px" viewBox="0 0 202 202" version="1.1" xmlns="http://www.w3.org/2000/svg" xmlns:xlink="http://www.w3.org/1999/xlink">
    <title>Untitled</title>
    <defs>
        <path d="M122.609,0 C131.031,0 139.109,3.346 145.064,9.301 L145.064,9.301 L182.696,46.935 C188.653,52.89 192,60.967 192,69.389 L192,69.389 L192,122.612 C192,131.033 188.653,139.11 182.696,145.066 L182.696,145.066 L145.064,182.699 C139.109,188.655 131.031,192 122.609,192 L122.609,192 L69.388,192 C60.966,192 52.889,188.655 46.934,182.699 L46.934,182.699 L9.301,145.066 C3.346,139.11 0,131.033 0,122.612 L0,122.612 L0,69.389 C0,60.967 3.346,52.89 9.301,46.935 L9.301,46.935 L46.934,9.301 C52.889,3.346 60.966,0 69.388,0 L69.388,0 L122.609,0 Z" id="path-1"></path>
        <path d="M53.594,53.002 L60.831,56.344 C67.425,59.388 74,64.776 74,72.114 L74,93.311 C74,96.973 71.02,100 67.416,100 L6.584,100 C2.98,100 0,96.991 0,93.311 L0,72.114 C0,64.755 6.575,59.389 13.168,56.344 L20.407,53.002 C30.807,61.99 43.194,61.99 53.594,53.002 Z M37.001,0 C46.343,0 54.716,5.423 55.593,16.269 C56.051,21.931 54.956,35.325 52.528,40.395 C50.406,44.831 45.461,49.09 39.984,50.547 C37.333,51.003 36.67,51 34.019,50.547 C28.54,49.092 23.597,44.831 21.473,40.395 C19.045,35.325 17.949,21.931 18.409,16.269 C19.284,5.423 27.659,0 37.001,0 Z" id="path-3"></path>
    </defs>
    <g id="Page-1" stroke="none" stroke-width="1" fill="none" fill-rule="evenodd">
        <g id="Group-11" transform="translate(5.000000, 5.000000)">
            <mask id="mask-2" fill="white">
                <use xlink:href="#path-1"></use>
            </mask>
            <g id="Clip-10"></g>
            <polygon id="Fill-9" fill="#EA4D64" mask="url(#mask-2)" points="-0.02 192.06 192.1 192.06 192.1 -0.06 -0.02 -0.06"></polygon>
        </g>
        <g id="Group-35" transform="translate(64.000000, 51.000000)">
            <mask id="mask-4" fill="white">
                <use xlink:href="#path-3"></use>
            </mask>
            <g id="Clip-34"></g>
            <polygon id="Fill-33" fill="#FFFFFE" mask="url(#mask-4)" points="-0.02 100.1 74.02 100.1 74.02 -0.1 -0.02 -0.1"></polygon>
        </g>
        <rect id="Rectangle" opacity="0" x="0" y="0" width="202" height="202"></rect>
    </g>
</svg>