<?xml version="1.0" encoding="UTF-8"?>
<svg width="174px" height="174px" viewBox="0 0 174 174" version="1.1" xmlns="http://www.w3.org/2000/svg" xmlns:xlink="http://www.w3.org/1999/xlink">
    <!-- Generator: Sketch 52.6 (67491) - http://www.bohemiancoding.com/sketch -->
    <title>Group 9</title>
    <desc>Created with Sketch.</desc>
    <defs>
        <path d="M111.114406,0 C118.746844,0 126.067531,3.0323125 131.46425,8.42903125 L165.56825,42.5348437 C170.966781,47.9315625 174,55.2513437 174,62.8837813 L174,111.117125 C174,118.748656 170.966781,126.068438 165.56825,131.466062 L131.46425,165.570969 C126.067531,170.968594 118.746844,174 111.114406,174 L62.882875,174 C55.2504375,174 47.9306563,170.968594 42.5339375,165.570969 L8.42903125,131.466062 C3.0323125,126.068438 0,118.748656 0,111.117125 L0,62.8837813 C0,55.2513437 3.0323125,47.9315625 8.42903125,42.5348437 L42.5339375,8.42903125 C47.9306563,3.0323125 55.2504375,0 62.882875,0 L111.114406,0 Z" id="path-1"></path>
        <path d="M16.6831562,14.7437813 C17.476125,4.91459375 25.0659687,0 33.5321562,0 C41.9983438,0 49.586375,4.91459375 50.3811563,14.7437813 C50.7962188,19.8749688 49.803875,32.0132813 47.6035,36.6079688 C45.6804375,40.6280938 41.1990313,44.4878125 36.2355,45.8082188 C33.8330312,46.2214688 33.2321875,46.21875 30.8297187,45.8082188 C25.864375,44.489625 21.3847813,40.6280938 19.4599063,36.6079688 C17.2595313,32.0132813 16.2662813,19.8749688 16.6831562,14.7437813 Z M11.9335,51.06175 L18.4938438,48.0330625 C27.9188438,56.1784375 39.1445625,56.1784375 48.5695625,48.0330625 L55.1280938,51.06175 C61.1039063,53.820375 67.0625,58.70325 67.0625,65.3533125 L67.0625,84.5630938 C67.0625,87.8817813 64.361875,90.625 61.09575,90.625 L5.96675,90.625 C2.700625,90.625 0,87.8980938 0,84.5630938 L0,65.3533125 C0,58.6842188 5.95859375,53.8212813 11.9335,51.06175 Z" id="path-3"></path>
    </defs>
    <g id="Page-1" stroke="none" stroke-width="1" fill="none" fill-rule="evenodd">
        <g id="9">
            <g id="Group-9">
                <g id="Group-11">
                    <mask id="mask-2" fill="white">
                        <use xlink:href="#path-1"></use>
                    </mask>
                    <g id="Clip-10"></g>
                    <polygon id="Fill-9" fill="#EA4A65" mask="url(#mask-2)" points="-0.018125 174.054375 174.090625 174.054375 174.090625 -0.054375 -0.018125 -0.054375"></polygon>
                </g>
                <g id="Group-35" transform="translate(54.375000, 41.687500)">
                    <mask id="mask-4" fill="white">
                        <use xlink:href="#path-3"></use>
                    </mask>
                    <g id="Clip-34"></g>
                    <polygon id="Fill-33" fill="#FFFFFE" mask="url(#mask-4)" points="-0.018125 90.715625 67.080625 90.715625 67.080625 -0.090625 -0.018125 -0.090625"></polygon>
                </g>
            </g>
        </g>
    </g>
</svg>