<?xml version="1.0" encoding="UTF-8"?>
<svg width="202px" height="202px" viewBox="0 0 202 202" version="1.1" xmlns="http://www.w3.org/2000/svg" xmlns:xlink="http://www.w3.org/1999/xlink">
    <title>Untitled</title>
    <defs>
        <path d="M111.303,0 C128.257,0 142,14.719 142,32.875 L142,159.124 C142,177.28 128.257,192 111.303,192 L30.697,192 C13.745,192 0,177.281 0,159.124 L0,32.875 C0,14.719 13.745,0 30.697,0 L111.303,0 Z" id="path-1"></path>
        <path d="M53.594,53.002 L60.831,56.344 C67.425,59.388 74,64.776 74,72.114 L74,93.311 C74,96.973 71.02,100 67.416,100 L6.584,100 C2.98,100 0,96.991 0,93.311 L0,72.114 C0,64.755 6.575,59.389 13.168,56.344 L20.407,53.002 C30.807,61.99 43.194,61.99 53.594,53.002 Z M37.001,0 C46.343,0 54.716,5.423 55.593,16.269 C56.051,21.931 54.956,35.325 52.528,40.395 C50.406,44.831 45.461,49.09 39.984,50.547 C37.333,51.003 36.67,51 34.019,50.547 C28.54,49.092 23.597,44.831 21.473,40.395 C19.045,35.325 17.949,21.931 18.409,16.269 C19.284,5.423 27.659,0 37.001,0 Z" id="path-3"></path>
    </defs>
    <g id="Page-1" stroke="none" stroke-width="1" fill="none" fill-rule="evenodd">
        <g id="Group-164" transform="translate(31.000000, 5.000000)">
            <mask id="mask-2" fill="white">
                <use xlink:href="#path-1"></use>
            </mask>
            <g id="Clip-163"></g>
            <polygon id="Fill-162" fill="#EA4D64" mask="url(#mask-2)" points="-0.06 192.02 142.02 192.02 142.02 -0.1 -0.06 -0.1"></polygon>
        </g>
        <g id="Group-167" transform="translate(64.000000, 46.000000)">
            <mask id="mask-4" fill="white">
                <use xlink:href="#path-3"></use>
            </mask>
            <g id="Clip-166"></g>
            <polygon id="Fill-165" fill="#FFFFFE" mask="url(#mask-4)" points="-0.06 100.02 74.1 100.02 74.1 -0.06 -0.06 -0.06"></polygon>
        </g>
        <polygon id="Fill-266" fill="#EA4D64" points="54 134 160 134 160 118 54 118"></polygon>
        <rect id="Rectangle" opacity="0" x="0" y="0" width="202" height="202"></rect>
    </g>
</svg>