<?xml version="1.0" encoding="UTF-8"?>
<svg width="173px" height="125px" viewBox="0 0 173 125" version="1.1" xmlns="http://www.w3.org/2000/svg" xmlns:xlink="http://www.w3.org/1999/xlink">
    <!-- Generator: Sketch 52.6 (67491) - http://www.bohemiancoding.com/sketch -->
    <title>Group 43</title>
    <desc>Created with Sketch.</desc>
    <defs>
        <path d="M26.0430108,0 L146.956989,0 C161.340172,0 173,11.659828 173,26.0430108 L173,98.5913978 C173,112.974581 161.340172,124.634409 146.956989,124.634409 L26.0430108,124.634409 C11.659828,124.634409 0,112.974581 0,98.5913978 L0,26.0430108 C0,11.659828 11.659828,0 26.0430108,0 Z" id="path-1"></path>
        <path d="M17.1223495,15.1319194 C17.9361935,5.04397312 25.7258441,0 34.4149086,0 C43.1039731,0 50.8917634,5.04397312 51.7074677,15.1319194 C52.133457,20.3981882 51.1149892,32.8560484 48.8566882,37.5716935 C46.883,41.6967204 42.2836183,45.6589785 37.1894194,47.0141452 C34.7237043,47.4382742 34.107043,47.4354839 31.641328,47.0141452 C26.5452688,45.6608387 21.9477473,41.6967204 19.9721989,37.5716935 C17.7138978,32.8560484 16.6945,20.3981882 17.1223495,15.1319194 Z M12.2476559,52.4059785 L18.9807043,49.2975591 C28.6538226,57.6573656 40.1750645,57.6573656 49.8481828,49.2975591 L56.579371,52.4059785 C62.7125,55.2372258 68.827957,60.2486452 68.827957,67.0737742 L68.827957,86.7901935 C68.827957,90.1953172 66.0562366,93.0107527 62.704129,93.0107527 L6.12382796,93.0107527 C2.77172043,93.0107527 0,90.2120591 0,86.7901935 L0,67.0737742 C0,60.2291129 6.11545699,55.2381559 12.2476559,52.4059785 Z" id="path-3"></path>
    </defs>
    <g id="Page-1" stroke="none" stroke-width="1" fill="none" fill-rule="evenodd">
        <g id="33" transform="translate(-1.000000, -25.000000)">
            <g id="Group-43" transform="translate(1.000000, 25.000000)">
                <g id="Group-146">
                    <mask id="mask-2" fill="white">
                        <use xlink:href="#path-1"></use>
                    </mask>
                    <g id="Clip-145"></g>
                    <polygon id="Fill-144" fill="#EA4A65" mask="url(#mask-2)" points="-0.0930107527 124.653011 173.018602 124.653011 173.018602 -0.0186021505 -0.0930107527 -0.0186021505"></polygon>
                </g>
                <g id="Group-149" transform="translate(48.365591, 16.741935)">
                    <mask id="mask-4" fill="white">
                        <use xlink:href="#path-3"></use>
                    </mask>
                    <g id="Clip-148"></g>
                    <polygon id="Fill-147" fill="#FFFFFE" mask="url(#mask-4)" points="-0.0186021505 93.0665591 68.8465591 93.0665591 68.8465591 -0.0186021505 -0.0186021505 -0.0186021505"></polygon>
                </g>
                <polygon id="Fill-270" fill="#EA4A65" points="37.2043011 98.5913978 135.795699 98.5913978 135.795699 83.7096774 37.2043011 83.7096774"></polygon>
            </g>
        </g>
    </g>
</svg>