<?xml version="1.0" encoding="UTF-8"?>
<svg width="202px" height="202px" viewBox="0 0 202 202" version="1.1" xmlns="http://www.w3.org/2000/svg" xmlns:xlink="http://www.w3.org/1999/xlink">
    <title>Untitled</title>
    <defs>
        <path d="M72.238,13.025 C82.355,-4.342 107.645,-4.342 117.762,13.025 L117.762,13.025 L186.44,130.925 C196.556,148.292 183.91,170 163.678,170 L163.678,170 L26.321,170 C6.09,170 -6.556,148.292 3.56,130.925 L3.56,130.925 L72.238,13.025 Z" id="path-1"></path>
        <path d="M53.594,53.002 L60.831,56.344 C67.425,59.388 74,64.776 74,72.114 L74,93.311 C74,96.973 71.02,100 67.416,100 L6.584,100 C2.98,100 0,96.991 0,93.311 L0,72.114 C0,64.755 6.575,59.389 13.168,56.344 L20.407,53.002 C30.807,61.99 43.194,61.99 53.594,53.002 Z M37.001,0 C46.343,0 54.716,5.423 55.593,16.269 C56.051,21.931 54.956,35.325 52.528,40.395 C50.406,44.83 45.461,49.09 39.984,50.547 C37.333,51.002 36.67,51 34.019,50.547 C28.54,49.092 23.597,44.83 21.473,40.395 C19.045,35.325 17.949,21.931 18.409,16.269 C19.284,5.423 27.659,0 37.001,0 Z" id="path-3"></path>
    </defs>
    <g id="Page-1" stroke="none" stroke-width="1" fill="none" fill-rule="evenodd">
        <g id="Group-161" transform="translate(6.000000, 16.000000)">
            <mask id="mask-2" fill="white">
                <use xlink:href="#path-1"></use>
            </mask>
            <g id="Clip-160"></g>
            <polygon id="Fill-159" fill="#EA4D64" mask="url(#mask-2)" points="-0.06 170.02 190.02 170.02 190.02 -0.02 -0.06 -0.02"></polygon>
        </g>
        <g id="Group-170" transform="translate(64.000000, 62.000000)">
            <mask id="mask-4" fill="white">
                <use xlink:href="#path-3"></use>
            </mask>
            <g id="Clip-169"></g>
            <polygon id="Fill-168" fill="#FFFFFE" mask="url(#mask-4)" points="-0.02 100.02 74.02 100.02 74.02 -0.06 -0.02 -0.06"></polygon>
        </g>
        <polygon id="Fill-272" fill="#EA4D64" points="52 150 158 150 158 134 52 134"></polygon>
        <rect id="Rectangle" opacity="0" x="0" y="0" width="202" height="202"></rect>
    </g>
</svg>