<?xml version="1.0" encoding="UTF-8"?>
<svg width="173px" height="155px" viewBox="0 0 173 155" version="1.1" xmlns="http://www.w3.org/2000/svg" xmlns:xlink="http://www.w3.org/1999/xlink">
    <!-- Generator: Sketch 52.6 (67491) - http://www.bohemiancoding.com/sketch -->
    <title>Group 45</title>
    <desc>Created with Sketch.</desc>
    <defs>
        <path d="M65.7746,11.8596053 C74.9863947,-3.95350526 98.0136053,-3.95350526 107.2254,11.8596053 L169.758526,119.210658 C178.969411,135.023768 167.454895,154.789474 149.033126,154.789474 L23.9659632,154.789474 C5.54510526,154.789474 -5.96941053,135.023768 3.24147368,119.210658 L65.7746,11.8596053 Z" id="path-1"></path>
        <path d="M16.7618789,14.8133526 C17.5585895,4.93778421 25.1842474,0 33.6903842,0 C42.1965211,0 49.8203579,4.93778421 50.6188895,14.8133526 C51.0359105,19.9687526 50.0388842,32.1643421 47.8281263,36.7807105 C45.8959895,40.8188947 41.3934368,44.6977368 36.4064842,46.0243737 C33.9926789,46.4386632 33.389,46.4368421 30.9751947,46.0243737 C25.9864211,44.6995579 21.4856895,40.8188947 19.5517316,36.7807105 C17.3409737,32.1643421 16.3430368,19.9687526 16.7618789,14.8133526 Z M11.9898105,51.3026947 L18.5811105,48.2597158 C28.0505842,56.4435263 39.3292737,56.4435263 48.7987474,48.2597158 L55.3882263,51.3026947 C61.3922368,54.0743368 67.3789474,58.9802526 67.3789474,65.6616947 L67.3789474,84.9621211 C67.3789474,88.2964684 64.6655789,91.0526316 61.3840421,91.0526316 L5.99490526,91.0526316 C2.71336842,91.0526316 0,88.3128579 0,84.9621211 L0,65.6616947 C0,58.9611316 5.98671053,54.0752474 11.9898105,51.3026947 Z" id="path-3"></path>
    </defs>
    <g id="Page-1" stroke="none" stroke-width="1" fill="none" fill-rule="evenodd">
        <g id="34" transform="translate(0.000000, -10.000000)">
            <g id="Group-45" transform="translate(0.000000, 10.000000)">
                <g id="Group-161">
                    <mask id="mask-2" fill="white">
                        <use xlink:href="#path-1"></use>
                    </mask>
                    <g id="Clip-160"></g>
                    <polygon id="Fill-159" fill="#EA4A65" mask="url(#mask-2)" points="-0.0546315789 154.807684 173.018211 154.807684 173.018211 -0.0182105263 -0.0546315789 -0.0182105263"></polygon>
                </g>
                <g id="Group-170" transform="translate(50.989474, 41.884211)">
                    <mask id="mask-4" fill="white">
                        <use xlink:href="#path-3"></use>
                    </mask>
                    <g id="Clip-169"></g>
                    <polygon id="Fill-168" fill="#FFFFFE" mask="url(#mask-4)" points="-0.0182105263 91.0708421 67.3971579 91.0708421 67.3971579 -0.0546315789 -0.0182105263 -0.0546315789"></polygon>
                </g>
                <polygon id="Fill-272" fill="#EA4A65" points="40.0631579 122.010526 136.578947 122.010526 136.578947 107.442105 40.0631579 107.442105"></polygon>
            </g>
        </g>
    </g>
</svg>