<?xml version="1.0" encoding="UTF-8"?>
<svg width="202px" height="202px" viewBox="0 0 202 202" version="1.1" xmlns="http://www.w3.org/2000/svg" xmlns:xlink="http://www.w3.org/1999/xlink">
    <title>Untitled</title>
    <defs>
        <path d="M135.806,0 C147.02,0 157.382,6.004 162.989,15.75 L162.989,15.75 L197.795,76.25 C203.402,85.996 203.402,98.004 197.795,107.751 L197.795,107.751 L162.989,168.25 C157.382,177.997 147.02,184 135.806,184 L135.806,184 L66.194,184 C54.98,184 44.618,177.997 39.011,168.25 L39.011,168.25 L4.205,107.751 C-1.402,98.004 -1.402,85.996 4.205,76.25 L4.205,76.25 L39.011,15.75 C44.618,6.004 54.98,0 66.194,0 L66.194,0 L135.806,0 Z" id="path-1"></path>
        <path d="M53.594,53.002 L60.831,56.344 C67.425,59.388 74,64.776 74,72.114 L74,93.311 C74,96.973 71.02,100 67.416,100 L6.584,100 C2.98,100 0,96.991 0,93.311 L0,72.114 C0,64.755 6.575,59.389 13.168,56.344 L20.407,53.002 C30.807,61.99 43.194,61.99 53.594,53.002 Z M37.001,0 C46.343,0 54.716,5.423 55.593,16.269 C56.051,21.931 54.956,35.325 52.528,40.395 C50.406,44.83 45.461,49.09 39.984,50.547 C37.333,51.003 36.67,51 34.019,50.547 C28.54,49.092 23.597,44.83 21.473,40.395 C19.045,35.325 17.949,21.931 18.409,16.269 C19.284,5.423 27.659,0 37.001,0 Z" id="path-3"></path>
    </defs>
    <g id="Page-1" stroke="none" stroke-width="1" fill="none" fill-rule="evenodd">
        <g id="Group-155" transform="translate(0.000000, 9.000000)">
            <mask id="mask-2" fill="white">
                <use xlink:href="#path-1"></use>
            </mask>
            <g id="Clip-154"></g>
            <polygon id="Fill-153" fill="#EA4D64" mask="url(#mask-2)" points="-0.02 184.1 202.06 184.1 202.06 -0.1 -0.02 -0.1"></polygon>
        </g>
        <g id="Group-173" transform="translate(64.000000, 49.000000)">
            <mask id="mask-4" fill="white">
                <use xlink:href="#path-3"></use>
            </mask>
            <g id="Clip-172"></g>
            <polygon id="Fill-171" fill="#FFFFFE" mask="url(#mask-4)" points="-0.02 100.06 74.02 100.06 74.02 -0.02 -0.02 -0.02"></polygon>
        </g>
        <polygon id="Fill-304" fill="#EA4D64" points="52 137 158 137 158 121 52 121"></polygon>
        <rect id="Rectangle" opacity="0" x="0" y="0" width="202" height="202"></rect>
    </g>
</svg>