<?xml version="1.0" encoding="UTF-8"?>
<svg width="173px" height="172px" viewBox="0 0 173 172" version="1.1" xmlns="http://www.w3.org/2000/svg" xmlns:xlink="http://www.w3.org/1999/xlink">
    <!-- Generator: Sketch 52.6 (67491) - http://www.bohemiancoding.com/sketch -->
    <title>Group 50</title>
    <desc>Created with Sketch.</desc>
    <defs>
        <path d="M64.9342337,171.119565 C54.7911685,171.119565 41.3178533,164.612321 34.9939511,156.656201 L8.10185326,122.82906 C1.7788913,114.876701 -1.54947826,100.250679 0.707043478,90.3313859 L10.3057228,48.1475924 C12.5622446,38.2264185 21.8863804,26.5009674 31.0243533,22.0857065 L69.8844783,3.31144565 C79.0233913,-1.10381522 93.9775489,-1.10381522 103.115522,3.31144565 L141.976587,22.0857065 C151.11456,26.5009674 160.437755,38.2264185 162.694277,48.1475924 L172.292957,90.3313859 C174.550418,100.250679 171.221109,114.876701 164.898147,122.82906 L138.006989,156.656201 C131.682147,164.612321 118.209772,171.119565 108.066707,171.119565 L64.9342337,171.119565 Z" id="path-1"></path>
        <path d="M17.308462,15.2963967 C18.1311522,5.09879891 26.0054728,0 34.7889837,0 C43.5724946,0 51.4449348,5.09879891 52.2695054,15.2963967 C52.700125,20.6199076 51.670587,33.2131793 49.3877391,37.9800815 C47.3925978,42.1499457 42.7432228,46.1552717 37.5936522,47.5251685 C35.1011359,47.9539076 34.4777717,47.951087 31.9852554,47.5251685 C26.8338043,46.1571522 22.1863098,42.1499457 20.189288,37.9800815 C17.9064402,33.2131793 16.875962,20.6199076 17.308462,15.2963967 Z M12.3807826,52.9756087 L19.1870163,49.8334022 C28.9652772,58.2840761 40.61175,58.2840761 50.3900109,49.8334022 L57.1943641,52.9756087 C63.3941576,55.8376304 69.576087,60.9035217 69.576087,67.802837 L69.576087,87.732625 C69.576087,91.1757011 66.7742391,94.0217391 63.3856957,94.0217391 L6.1903913,94.0217391 C2.80184783,94.0217391 0,91.192625 0,87.732625 L0,67.802837 C0,60.8837772 6.18192935,55.8385707 12.3807826,52.9756087 Z" id="path-3"></path>
    </defs>
    <g id="Page-1" stroke="none" stroke-width="1" fill="none" fill-rule="evenodd">
        <g id="38" transform="translate(0.000000, -1.000000)">
            <g id="Group-50" transform="translate(0.000000, 1.000000)">
                <g id="Group-201">
                    <mask id="mask-2" fill="white">
                        <use xlink:href="#path-1"></use>
                    </mask>
                    <g id="Clip-200"></g>
                    <polygon id="Fill-199" fill="#EA4A65" mask="url(#mask-2)" points="-0.0940217391 171.213587 173.094022 171.213587 173.094022 -0.0564130435 -0.0940217391 -0.0564130435"></polygon>
                </g>
                <g id="Group-204" transform="translate(50.771739, 35.728261)">
                    <mask id="mask-4" fill="white">
                        <use xlink:href="#path-3"></use>
                    </mask>
                    <g id="Clip-203"></g>
                    <polygon id="Fill-202" fill="#FFFFFE" mask="url(#mask-4)" points="-0.0940217391 94.0781522 69.6325 94.0781522 69.6325 -0.0188043478 -0.0940217391 -0.0188043478"></polygon>
                </g>
                <polygon id="Fill-312" fill="#EA4A65" points="37.6086957 120.347826 137.271739 120.347826 137.271739 105.304348 37.6086957 105.304348"></polygon>
            </g>
        </g>
    </g>
</svg>