<?xml version="1.0" encoding="UTF-8"?>
<svg width="172px" height="172px" viewBox="0 0 172 172" version="1.1" xmlns="http://www.w3.org/2000/svg" xmlns:xlink="http://www.w3.org/1999/xlink">
    <!-- Generator: Sketch 52.6 (67491) - http://www.bohemiancoding.com/sketch -->
    <title>Group 52</title>
    <desc>Created with Sketch.</desc>
    <defs>
        <path d="M109.837229,0 C117.381938,0 124.618479,2.99745833 129.953167,8.33214583 L163.665167,42.0459375 C169.001646,47.380625 172,54.6162708 172,62.1609792 L172,109.839917 C172,117.383729 169.001646,124.619375 163.665167,129.954958 L129.953167,163.667854 C124.618479,169.003437 117.381938,172 109.837229,172 L62.1600833,172 C54.615375,172 47.380625,169.003437 42.0450417,163.667854 L8.33214583,129.954958 C2.99745833,124.619375 0,117.383729 0,109.839917 L0,62.1609792 C0,54.6162708 2.99745833,47.380625 8.33214583,42.0459375 L42.0450417,8.33214583 C47.380625,2.99745833 54.615375,0 62.1600833,0 L109.837229,0 Z" id="path-1"></path>
        <path d="M16.4913958,14.5743125 C17.27525,4.85810417 24.7778542,0 33.1467292,0 C41.5156042,0 49.0164167,4.85810417 49.8020625,14.5743125 C50.2123542,19.6465208 49.2314167,31.6453125 47.0563333,36.1871875 C45.155375,40.1611042 40.7254792,43.9764583 35.819,45.2816875 C33.4441458,45.6901875 32.8502083,45.6875 30.4753542,45.2816875 C25.5670833,43.97825 21.1389792,40.1611042 19.2362292,36.1871875 C17.0611458,31.6453125 16.0793125,19.6465208 16.4913958,14.5743125 Z M11.7963333,50.4748333 L18.2812708,47.4809583 C27.5979375,55.5327083 38.694625,55.5327083 48.0112917,47.4809583 L54.4944375,50.4748333 C60.4015625,53.20175 66.2916667,58.0285 66.2916667,64.602125 L66.2916667,83.5911042 C66.2916667,86.8716458 63.6220833,89.5833333 60.3935,89.5833333 L5.89816667,89.5833333 C2.66958333,89.5833333 0,86.8877708 0,83.5911042 L0,64.602125 C0,58.0096875 5.89010417,53.2026458 11.7963333,50.4748333 Z" id="path-3"></path>
    </defs>
    <g id="Page-1" stroke="none" stroke-width="1" fill="none" fill-rule="evenodd">
        <g id="39" transform="translate(-1.000000, -1.000000)">
            <g id="Group-52" transform="translate(1.000000, 1.000000)">
                <g id="Group-152">
                    <mask id="mask-2" fill="white">
                        <use xlink:href="#path-1"></use>
                    </mask>
                    <g id="Clip-151"></g>
                    <polygon id="Fill-150" fill="#EA4A65" mask="url(#mask-2)" points="-0.0179166667 172.05375 172.089583 172.05375 172.089583 -0.05375 -0.0179166667 -0.05375"></polygon>
                </g>
                <g id="Group-176" transform="translate(53.750000, 41.208333)">
                    <mask id="mask-4" fill="white">
                        <use xlink:href="#path-3"></use>
                    </mask>
                    <g id="Clip-175"></g>
                    <polygon id="Fill-174" fill="#FFFFFE" mask="url(#mask-4)" points="-0.0179166667 89.6729167 66.3095833 89.6729167 66.3095833 -0.0895833333 -0.0179166667 -0.0895833333"></polygon>
                </g>
                <polygon id="Fill-314" fill="#EA4A65" points="37.625 121.833333 132.583333 121.833333 132.583333 107.5 37.625 107.5"></polygon>
            </g>
        </g>
    </g>
</svg>