<?xml version="1.0" encoding="UTF-8"?>
<svg width="173px" height="173px" viewBox="0 0 173 173" version="1.1" xmlns="http://www.w3.org/2000/svg" xmlns:xlink="http://www.w3.org/1999/xlink">
    <!-- Generator: Sketch 52.6 (67491) - http://www.bohemiancoding.com/sketch -->
    <title>Group 53</title>
    <desc>Created with Sketch.</desc>
    <defs>
        <path d="M86.5,173 C38.7278172,173 0,134.272183 0,86.5 C0,38.7278172 38.7278172,0 86.5,0 C134.272183,0 173,38.7278172 173,86.5 C173,134.272183 134.272183,173 86.5,173 Z" id="path-1"></path>
        <path d="M17.1223495,15.1319194 C17.9361935,5.04397312 25.7258441,0 34.4149086,0 C43.1039731,0 50.8917634,5.04397312 51.7074677,15.1319194 C52.133457,20.3981882 51.1149892,32.8560484 48.8566882,37.5716935 C46.883,41.6976505 42.2836183,45.6589785 37.1894194,47.0141452 C34.7237043,47.4382742 34.107043,47.4354839 31.641328,47.0141452 C26.5452688,45.6608387 21.9477473,41.6976505 19.9721989,37.5716935 C17.7138978,32.8560484 16.6945,20.3981882 17.1223495,15.1319194 Z M12.2476559,52.4059785 L18.9807043,49.2975591 C28.6538226,57.6573656 40.1750645,57.6573656 49.8481828,49.2975591 L56.579371,52.4059785 C62.7125,55.2372258 68.827957,60.2486452 68.827957,67.0737742 L68.827957,86.7892634 C68.827957,90.1953172 66.0562366,93.0107527 62.704129,93.0107527 L6.12382796,93.0107527 C2.77172043,93.0107527 0,90.2120591 0,86.7892634 L0,67.0737742 C0,60.2291129 6.11545699,55.2381559 12.2476559,52.4059785 Z" id="path-3"></path>
    </defs>
    <g id="Page-1" stroke="none" stroke-width="1" fill="none" fill-rule="evenodd">
        <g id="40" transform="translate(-1.000000, -1.000000)">
            <g id="Group-53" transform="translate(1.000000, 1.000000)">
                <g id="Group-185">
                    <mask id="mask-2" fill="white">
                        <use xlink:href="#path-1"></use>
                    </mask>
                    <g id="Clip-184"></g>
                    <polygon id="Fill-183" fill="#EA4A65" mask="url(#mask-2)" points="-0.0930107527 173.055806 173.018602 173.055806 173.018602 -0.0558064516 -0.0930107527 -0.0558064516"></polygon>
                </g>
                <g id="Group-189" transform="translate(52.086022, 39.064516)">
                    <mask id="mask-4" fill="white">
                        <use xlink:href="#path-3"></use>
                    </mask>
                    <g id="Clip-187"></g>
                    <polygon id="Fill-186" fill="#FFFFFE" mask="url(#mask-4)" points="-0.0558064516 93.0293548 68.9209677 93.0293548 68.9209677 -0.0558064516 -0.0558064516 -0.0558064516"></polygon>
                    <polygon id="Fill-188" fill="#FFFFFE" mask="url(#mask-4)" points="-0.0558064516 93.0293548 68.9209677 93.0293548 68.9209677 -0.0558064516 -0.0558064516 -0.0558064516"></polygon>
                </g>
                <polygon id="Fill-316" fill="#EA4A65" points="37.2043011 120.913978 135.795699 120.913978 135.795699 106.032258 37.2043011 106.032258"></polygon>
            </g>
        </g>
    </g>
</svg>