<?xml version="1.0" encoding="UTF-8"?>
<svg width="174px" height="174px" viewBox="0 0 174 174" version="1.1" xmlns="http://www.w3.org/2000/svg" xmlns:xlink="http://www.w3.org/1999/xlink">
    <!-- Generator: Sketch 52.6 (67491) - http://www.bohemiancoding.com/sketch -->
    <title>Group 88</title>
    <desc>Created with Sketch.</desc>
    <defs>
        <path d="M87,174 C38.9507419,174 0,135.049258 0,87 C0,38.9516774 38.9507419,0 87,0 C135.049258,0 174,38.9516774 174,87 C174,135.049258 135.049258,174 87,174 Z" id="path-1"></path>
        <path d="M17.2213226,15.2193871 C18.039871,5.07312903 25.8745484,0 34.6138387,0 C43.353129,0 51.1859355,5.07312903 52.0063548,15.2193871 C52.4348065,20.5160968 51.4104516,33.0459677 49.1390968,37.788871 C47.154,41.9386774 42.5280323,45.9229032 37.4043871,47.2859032 C34.9244194,47.7124839 34.3041935,47.7096774 31.8242258,47.2859032 C26.6987097,45.9247742 22.0746129,41.9386774 20.0876452,37.788871 C17.8162903,33.0459677 16.791,20.5160968 17.2213226,15.2193871 Z M12.3184516,52.7089032 L19.0904194,49.5825161 C28.8194516,57.9906452 40.4072903,57.9906452 50.1363226,49.5825161 L56.9073548,52.7089032 C63.075,55.5565161 69.2258065,60.5969032 69.2258065,67.4614839 L69.2258065,87.2909355 C69.2258065,90.7166774 66.4380645,93.5483871 63.0665806,93.5483871 L6.15922581,93.5483871 C2.78774194,93.5483871 0,90.7335161 0,87.2909355 L0,67.4614839 C0,60.5772581 6.15080645,55.5574516 12.3184516,52.7089032 Z" id="path-3"></path>
    </defs>
    <g id="Page-1" stroke="none" stroke-width="1" fill="none" fill-rule="evenodd">
        <g id="66">
            <g id="Group-88">
                <g id="Group-135">
                    <mask id="mask-2" fill="white">
                        <use xlink:href="#path-1"></use>
                    </mask>
                    <g id="Clip-134"></g>
                    <polygon id="Fill-133" fill="#00AFE4" mask="url(#mask-2)" points="-0.0935483871 174.056129 174.01871 174.056129 174.01871 -0.0561290323 -0.0935483871 -0.0561290323"></polygon>
                </g>
                <g id="Group-138" transform="translate(52.387097, 35.548387)">
                    <mask id="mask-4" fill="white">
                        <use xlink:href="#path-3"></use>
                    </mask>
                    <g id="Clip-137"></g>
                    <polygon id="Fill-136" fill="#FFFFFE" mask="url(#mask-4)" points="-0.0561290323 93.6045161 69.3193548 93.6045161 69.3193548 -0.0187096774 -0.0561290323 -0.0187096774"></polygon>
                </g>
                <polygon id="Fill-328" fill="#00AFE4" points="50.516129 119.741935 127.225806 119.741935 127.225806 104.774194 50.516129 104.774194"></polygon>
            </g>
        </g>
    </g>
</svg>