<?xml version="1.0" encoding="UTF-8"?>
<svg width="133px" height="172px" viewBox="0 0 133 172" version="1.1" xmlns="http://www.w3.org/2000/svg" xmlns:xlink="http://www.w3.org/1999/xlink">
    <!-- Generator: Sketch 52.6 (67491) - http://www.bohemiancoding.com/sketch -->
    <title>Group 25</title>
    <desc>Created with Sketch.</desc>
    <g id="Page-1" stroke="none" stroke-width="1" fill="none" fill-rule="evenodd">
        <g id="21" transform="translate(-20.000000, -1.000000)" stroke="#ED4962" stroke-width="10">
            <g id="Group-25" transform="translate(25.000000, 6.000000)">
                <path d="M61.3894737,162 C95.2943684,162 122.778947,125.735021 122.778947,81 C122.778947,36.2649789 95.2943684,0 61.3894737,0 C27.4845789,0 0,36.2649789 0,81 C0,125.735021 27.4845789,162 61.3894737,162 Z" id="Path"></path>
                <path d="M46.3908316,44.5662 C47.1368842,35.3185579 54.2776737,30.6947368 62.2429579,30.6947368 C70.2082421,30.6947368 77.3473263,35.3185579 78.0950842,44.5662 C78.4855895,49.3938 77.5519579,60.8139474 75.4817684,65.1367895 C73.6724842,68.9190632 69.4562211,72.5504211 64.7863579,73.7927053 C62.5260316,74.1815053 61.9607368,74.1789474 59.7004105,73.7927053 C55.0288421,72.5521263 50.8142842,68.9190632 49.0032947,65.1367895 C46.9331053,60.8139474 45.9986211,49.3938 46.3908316,44.5662 Z" id="Path"></path>
                <path d="M41.9230421,85.5564632 L48.0943895,82.7069684 C56.9617579,90.3704211 67.5233053,90.3704211 76.3906737,82.7069684 L82.5611684,85.5564632 C88.1834211,88.1518737 93.7894737,92.7458526 93.7894737,99.0024632 L93.7894737,117.076547 C93.7894737,120.198032 91.2486316,122.778947 88.1757474,122.778947 L36.3084632,122.778947 C33.2355789,122.778947 30.6947368,120.213379 30.6947368,117.076547 L30.6947368,99.0024632 C30.6947368,92.7279474 36.3007895,88.1527263 41.9230421,85.5564632 Z" id="Path"></path>
            </g>
        </g>
    </g>
</svg>