<?xml version="1.0" encoding="UTF-8"?>
<svg width="202px" height="202px" viewBox="0 0 202 202" version="1.1" xmlns="http://www.w3.org/2000/svg" xmlns:xlink="http://www.w3.org/1999/xlink">
    <title>Untitled</title>
    <g id="Page-1" stroke="none" stroke-width="1" fill="none" fill-rule="evenodd">
        <path d="M172,164.124 C172,182.28 158.257,197 141.303,197 L60.697,197 C43.745,197 30,182.281 30,164.124 L30,37.875 C30,19.719 43.745,5 60.697,5 L141.303,5 C158.257,5 172,19.719 172,37.875 L172,164.124 Z" id="Stroke-123" stroke="#ED4D62" stroke-width="10"></path>
        <path d="M82.409,64.269 C83.284,53.423 91.659,48 101.001,48 C110.343,48 118.716,53.423 119.593,64.269 C120.051,69.931 118.956,83.325 116.528,88.395 C114.406,92.831 109.461,97.09 103.984,98.547 C101.333,99.003 100.67,99 98.019,98.547 C92.54,97.092 87.597,92.831 85.473,88.395 C83.045,83.325 81.949,69.931 82.409,64.269 Z" id="Path" stroke="#ED4D62" stroke-width="10"></path>
        <path d="M77.169,112.344 L84.407,109.002 C94.807,117.99 107.194,117.99 117.594,109.002 L124.831,112.344 C131.425,115.388 138,120.776 138,128.114 L138,149.311 C138,152.973 135.02,156 131.416,156 L70.584,156 C66.98,156 64,152.991 64,149.311 L64,128.114 C64,120.755 70.575,115.389 77.169,112.344 Z" id="Path" stroke="#ED4D62" stroke-width="10"></path>
        <rect id="Rectangle" opacity="0" x="0" y="0" width="202" height="202"></rect>
    </g>
</svg>