<?xml version="1.0" encoding="UTF-8"?>
<svg width="133px" height="174px" viewBox="0 0 133 174" version="1.1" xmlns="http://www.w3.org/2000/svg" xmlns:xlink="http://www.w3.org/1999/xlink">
    <!-- Generator: Sketch 52.6 (67491) - http://www.bohemiancoding.com/sketch -->
    <title>Group 27</title>
    <desc>Created with Sketch.</desc>
    <g id="Page-1" stroke="none" stroke-width="1" fill="none" fill-rule="evenodd">
        <g id="22" transform="translate(-21.000000, 0.000000)" stroke="#ED4962" stroke-width="10">
            <g id="Group-27" transform="translate(26.000000, 4.000000)">
                <path d="M122.770833,137.575958 C122.770833,153.273333 110.888865,166 96.2307188,166 L26.5401146,166 C11.8836979,166 0,153.274198 0,137.575958 L0,28.4231771 C0,12.7258021 11.8836979,0 26.5401146,0 L96.2307188,0 C110.888865,0 122.770833,12.7258021 122.770833,28.4231771 L122.770833,137.575958 Z" id="Stroke-123"></path>
                <path d="M44.4473646,49.5138229 C45.203875,40.1365521 52.4447604,35.4479167 60.5216979,35.4479167 C68.5986354,35.4479167 75.8377917,40.1365521 76.5960313,49.5138229 C76.9920104,54.4090938 76.0452917,65.9893229 73.9460833,70.3727604 C72.1114375,74.2080521 67.8360729,77.8903125 63.10075,79.1500104 C60.8087396,79.5442604 60.2355208,79.5416667 57.9435104,79.1500104 C53.2064583,77.8920417 48.9328229,74.2080521 47.0964479,70.3727604 C44.9972396,65.9893229 44.0496563,54.4090938 44.4473646,49.5138229 Z" id="Path"></path>
                <path d="M39.9169479,91.0786667 L46.1748021,88.1892292 C55.1664688,95.9601042 65.8760625,95.9601042 74.8677292,88.1892292 L81.1247188,91.0786667 C86.8257813,93.7104583 92.5104167,98.3688333 92.5104167,104.713146 L92.5104167,123.039719 C92.5104167,126.205823 89.9339583,128.822917 86.818,128.822917 L34.2236667,128.822917 C31.1077083,128.822917 28.53125,126.221385 28.53125,123.039719 L28.53125,104.713146 C28.53125,98.3506771 34.2158854,93.7113229 39.9169479,91.0786667 Z" id="Path"></path>
            </g>
        </g>
    </g>
</svg>