<?xml version="1.0" encoding="UTF-8"?>
<svg width="202px" height="202px" viewBox="0 0 202 202" version="1.1" xmlns="http://www.w3.org/2000/svg" xmlns:xlink="http://www.w3.org/1999/xlink">
    <title>Untitled</title>
    <defs>
        <path d="M158,0 C173.464,0 186,12.536 186,28 L186,106 C186,121.464 173.464,134 158,134 L28,134 C12.536,134 0,121.464 0,106 L0,28 C0,12.536 12.536,0 28,0 L158,0 Z" id="path-1"></path>
    </defs>
    <g id="Page-1" stroke="none" stroke-width="1" fill="none" fill-rule="evenodd">
        <g id="Group-116" transform="translate(7.000000, 34.000000)">
            <mask id="mask-2" fill="white">
                <use xlink:href="#path-1"></use>
            </mask>
            <g id="Clip-115"></g>
            <path d="M28,0 L158,0 C173.464,0 186,12.536 186,28 L186,106 C186,121.464 173.464,134 158,134 L28,134 C12.536,134 0,121.464 0,106 L0,28 C0,12.536 12.536,0 28,0 Z" id="Stroke-114" stroke="#ED4D62" stroke-width="20" mask="url(#mask-2)"></path>
        </g>
        <path d="M84.921,68.16 C85.678,58.72 92.922,54 101.001,54 C109.081,54 116.322,58.72 117.08,68.16 C117.476,73.088 116.53,84.746 114.43,89.159 C112.594,93.019 108.318,96.727 103.581,97.995 C101.288,98.391 100.715,98.389 98.422,97.995 C93.683,96.728 89.408,93.019 87.571,89.159 C85.472,84.746 84.524,73.088 84.921,68.16 Z M80.389,110.003 L86.649,107.094 C95.644,114.917 106.357,114.917 115.352,107.094 L121.611,110.003 C127.314,112.652 133,117.342 133,123.729 L133,142.178 C133,145.365 130.423,148 127.305,148 L74.694,148 C71.577,148 69,145.381 69,142.178 L69,123.729 C69,117.324 74.686,112.653 80.389,110.003 Z" id="Stroke-117" stroke="#ED4D62" stroke-width="8"></path>
        <rect id="Rectangle" opacity="0" x="0" y="0" width="202" height="202"></rect>
    </g>
</svg>