<?xml version="1.0" encoding="UTF-8"?>
<svg width="173px" height="156px" viewBox="0 0 173 156" version="1.1" xmlns="http://www.w3.org/2000/svg" xmlns:xlink="http://www.w3.org/1999/xlink">
    <!-- Generator: Sketch 52.6 (67491) - http://www.bohemiancoding.com/sketch -->
    <title>Group 30</title>
    <desc>Created with Sketch.</desc>
    <g id="Page-1" stroke="none" stroke-width="1" fill="none" fill-rule="evenodd">
        <g id="24" transform="translate(-1.000000, -7.000000)" stroke="#ED4962" stroke-width="10">
            <g id="Group-30" transform="translate(6.000000, 12.000000)">
                <path d="M62.0396941,11.1861765 L3.05741176,112.441471 C-5.63044706,127.356659 5.23023529,146 22.6050941,146 L140.570518,146 C157.946235,146 168.806918,127.356659 160.119059,112.441471 L101.136776,11.1861765 C92.4480588,-3.72901176 70.7284118,-3.72901176 62.0396941,11.1861765" id="Stroke-122"></path>
                <path d="M65.6218471,46.6074941 C66.3733176,37.2926941 73.5659647,32.6352941 81.5890941,32.6352941 C89.6122235,32.6352941 96.8031529,37.2926941 97.5563412,46.6074941 C97.9496824,51.4701529 97.0092706,62.9732353 94.9240471,67.3274706 C93.1016235,71.1372118 88.8547412,74.7949412 84.1509647,76.0462471 C81.8742235,76.4378706 81.3048235,76.4352941 79.0280824,76.0462471 C74.3225882,74.7966588 70.0774235,71.1372118 68.2532824,67.3274706 C66.1680588,62.9732353 65.2267882,51.4701529 65.6218471,46.6074941 Z" id="Path"></path>
                <path d="M61.1216118,87.8954353 L67.3377765,85.0252471 C76.2695412,92.7443529 86.9077882,92.7443529 95.8395529,85.0252471 L102.054859,87.8954353 C107.717941,90.5096941 113.364706,95.1370353 113.364706,101.439082 L113.364706,119.643565 C113.364706,122.788576 110.805412,125.388235 107.710212,125.388235 L55.4662588,125.388235 C52.3710588,125.388235 49.8117647,122.804035 49.8117647,119.643565 L49.8117647,101.439082 C49.8117647,95.119 55.4585294,90.5105529 61.1216118,87.8954353 Z" id="Path"></path>
            </g>
        </g>
    </g>
</svg>