<?xml version="1.0" encoding="UTF-8"?>
<svg width="174px" height="174px" viewBox="0 0 174 174" version="1.1" xmlns="http://www.w3.org/2000/svg" xmlns:xlink="http://www.w3.org/1999/xlink">
    <!-- Generator: Sketch 52.6 (67491) - http://www.bohemiancoding.com/sketch -->
    <title>Group 31</title>
    <desc>Created with Sketch.</desc>
    <g id="Page-1" stroke="none" stroke-width="1" fill="none" fill-rule="evenodd">
        <g id="25">
            <g id="Group-31">
                <path d="M19.8586957,9.45652174 C14.1133138,9.45652174 9.45652174,14.1133138 9.45652174,19.8586957 L9.45652174,154.141304 C9.45652174,159.886686 14.1133138,164.543478 19.8586957,164.543478 L154.141304,164.543478 C159.886686,164.543478 164.543478,159.886686 164.543478,154.141304 L164.543478,19.8586957 C164.543478,14.1133138 159.886686,9.45652174 154.141304,9.45652174 L19.8586957,9.45652174 Z M19.8586957,0 L154.141304,0 C165.109379,0 174,8.89062102 174,19.8586957 L174,154.141304 C174,165.109379 165.109379,174 154.141304,174 L19.8586957,174 C8.89062102,174 0,165.109379 0,154.141304 L0,19.8586957 C0,8.89062102 8.89062102,0 19.8586957,0 Z" id="Stroke-119" fill="#ED4962" fill-rule="nonzero"></path>
                <path d="M69.4193804,52.26525 C70.2468261,42.0087065 78.166663,36.8804348 87.0009457,36.8804348 C95.8352283,36.8804348 103.753174,42.0087065 104.582511,52.26525 C105.01562,57.6195326 103.98013,70.2855978 101.684087,75.0800543 C99.677413,79.2740217 95.001163,83.3025 89.8218261,84.6803152 C87.3149022,85.1115326 86.6879348,85.1086957 84.1810109,84.6803152 C78.9997826,83.3043913 74.3254239,79.2740217 72.3168587,75.0800543 C70.0208152,70.2855978 68.9843804,57.6195326 69.4193804,52.26525 Z" id="Path" stroke="#ED4962" stroke-width="10"></path>
                <path d="M64.464163,97.7274783 L71.3087935,94.5671087 C81.1435761,103.06663 92.8573696,103.06663 102.692152,94.5671087 L109.535837,97.7274783 C115.771467,100.606043 121.98913,105.701217 121.98913,112.640413 L121.98913,132.685402 C121.98913,136.14838 119.171087,139.01087 115.762957,139.01087 L58.2370435,139.01087 C54.828913,139.01087 52.0108696,136.165402 52.0108696,132.685402 L52.0108696,112.640413 C52.0108696,105.681359 58.2285326,100.606989 64.464163,97.7274783 Z" id="Path" stroke="#ED4962" stroke-width="10"></path>
            </g>
        </g>
    </g>
</svg>