<?xml version="1.0" encoding="UTF-8"?>
<svg width="173px" height="168px" viewBox="0 0 173 168" version="1.1" xmlns="http://www.w3.org/2000/svg" xmlns:xlink="http://www.w3.org/1999/xlink">
    <!-- Generator: Sketch 52.6 (67491) - http://www.bohemiancoding.com/sketch -->
    <title>Group 33</title>
    <desc>Created with Sketch.</desc>
    <g id="Page-1" stroke="none" stroke-width="1" fill="none" fill-rule="evenodd">
        <g id="26" transform="translate(-1.000000, -3.000000)" stroke="#ED4962" stroke-width="10">
            <g id="Group-33" transform="translate(6.000000, 8.000000)">
                <path d="M65.5019789,5.20313158 L11.2204053,44.6834474 C1.68147368,51.6212421 -2.30945263,63.9191632 1.33402632,75.1455737 L22.0667684,139.026989 C25.7111053,150.252542 36.1611211,157.852632 47.9528842,157.852632 L115.047974,157.852632 C126.838879,157.852632 137.288895,150.252542 140.932374,139.026989 L161.665974,75.1455737 C165.309453,63.9191632 161.318526,51.6212421 151.778737,44.6834474 L97.4980211,5.20313158 C87.9582316,-1.73466316 75.0409105,-1.73466316 65.5019789,5.20313158 Z" id="Path"></path>
                <path d="M65.5508789,48.2728789 C66.3015368,38.9681526 73.4864053,34.3157895 81.5008579,34.3157895 C89.5153105,34.3157895 96.6984632,38.9681526 97.4508368,48.2728789 C97.8437526,53.1302789 96.9043579,64.6209211 94.8213895,68.9704474 C93.0009368,72.7752105 88.7586474,76.4298421 84.0599579,77.6797947 C81.7856789,78.0709947 81.2168947,78.0684211 78.9426158,77.6797947 C74.2422105,76.4315579 70.0016368,72.7752105 68.1794684,68.9704474 C66.0965,64.6209211 65.1562474,53.1302789 65.5508789,48.2728789 Z" id="Path"></path>
                <path d="M61.0555105,89.5161684 L67.2649526,86.6490842 C76.1870579,94.3598421 86.8138,94.3598421 95.7359053,86.6490842 L101.944489,89.5161684 C107.601447,92.1276 113.242105,96.7499368 113.242105,103.045168 L113.242105,121.229963 C113.242105,124.371574 110.685579,126.968421 107.593726,126.968421 L55.4062737,126.968421 C52.3144211,126.968421 49.7578947,124.387016 49.7578947,121.229963 L49.7578947,103.045168 C49.7578947,96.7319211 55.3985526,92.1284579 61.0555105,89.5161684 Z" id="Path"></path>
            </g>
        </g>
    </g>
</svg>