<?xml version="1.0" encoding="UTF-8"?>
<svg width="202px" height="202px" viewBox="0 0 202 202" version="1.1" xmlns="http://www.w3.org/2000/svg" xmlns:xlink="http://www.w3.org/1999/xlink">
    <title>Untitled</title>
    <g id="Page-1" stroke="none" stroke-width="1" fill="none" fill-rule="evenodd">
        <path d="M82.352,15.065 L19.079,61.085 C7.96,69.172 3.308,83.507 7.555,96.593 L31.722,171.056 C35.97,184.141 48.151,193 61.896,193 L140.105,193 C153.849,193 166.03,184.141 170.277,171.056 L194.445,96.593 C198.692,83.507 194.04,69.172 182.92,61.085 L119.648,15.065 C108.528,6.978 93.471,6.978 82.352,15.065 L82.352,15.065 Z" id="Path" stroke="#ED4D62" stroke-width="10"></path>
        <path d="M82.409,65.269 C83.284,54.423 91.659,49 101.001,49 C110.343,49 118.716,54.423 119.593,65.269 C120.051,70.931 118.956,84.325 116.528,89.395 C114.406,93.83 109.461,98.09 103.984,99.547 C101.333,100.003 100.67,100 98.019,99.547 C92.54,98.092 87.597,93.83 85.473,89.395 C83.045,84.325 81.949,70.931 82.409,65.269 Z" id="Path" stroke="#ED4D62" stroke-width="10"></path>
        <path d="M77.169,113.344 L84.407,110.002 C94.807,118.99 107.194,118.99 117.594,110.002 L124.831,113.344 C131.425,116.388 138,121.776 138,129.114 L138,150.311 C138,153.973 135.02,157 131.416,157 L70.584,157 C66.98,157 64,153.991 64,150.311 L64,129.114 C64,121.755 70.575,116.389 77.169,113.344 Z" id="Path" stroke="#ED4D62" stroke-width="10"></path>
        <rect id="Rectangle" opacity="0" x="0" y="0" width="202" height="202"></rect>
    </g>
</svg>