<?xml version="1.0" encoding="UTF-8"?>
<svg width="212px" height="202px" viewBox="0 0 212 202" version="1.1" xmlns="http://www.w3.org/2000/svg" xmlns:xlink="http://www.w3.org/1999/xlink">
    <title>Untitled</title>
    <g id="Page-1" stroke="none" stroke-width="1" fill="none" fill-rule="evenodd">
        <path d="M140.80625,9 L71.19425,9 C59.98025,9 49.61825,15.004 44.01125,24.75 L9.20525,85.25 C3.59825,94.996 3.59825,107.004 9.20525,116.751 L44.01125,177.25 C49.61825,186.997 59.98025,193 71.19425,193 L140.80625,193 C152.02025,193 162.38225,186.997 167.98925,177.25 L202.79425,116.751 C208.40225,107.004 208.40225,94.996 202.79425,85.25 L167.98925,24.75 C162.38225,15.004 152.02025,9 140.80625,9" id="Path" stroke="#ED4D62" stroke-width="10"></path>
        <path d="M87.40925,61.269 C88.28425,50.423 96.65925,45 106.00125,45 C115.34325,45 123.71625,50.423 124.59325,61.269 C125.05125,66.931 123.95625,80.325 121.52825,85.395 C119.40625,89.831 114.46125,94.09 108.98425,95.547 C106.33325,96.003 105.67025,96 103.01925,95.547 C97.54025,94.092 92.59725,89.831 90.47325,85.395 C88.04525,80.325 86.94925,66.931 87.40925,61.269 Z" id="Path" stroke="#ED4D62" stroke-width="10"></path>
        <path d="M82.16925,109.344 L89.40725,106.002 C99.80725,114.99 112.19425,114.99 122.59425,106.002 L129.83125,109.344 C136.42525,112.388 143.00025,117.776 143.00025,125.114 L143.00025,146.311 C143.00025,149.973 140.02025,153 136.41625,153 L75.58425,153 C71.98025,153 69.00025,149.991 69.00025,146.311 L69.00025,125.114 C69.00025,117.755 75.57525,112.389 82.16925,109.344 Z" id="Path" stroke="#ED4D62" stroke-width="10"></path>
        <rect id="Rectangle" opacity="0" x="5.00025" y="0" width="202" height="202"></rect>
    </g>
</svg>