<?xml version="1.0" encoding="UTF-8"?>
<svg width="173px" height="159px" viewBox="0 0 173 159" version="1.1" xmlns="http://www.w3.org/2000/svg" xmlns:xlink="http://www.w3.org/1999/xlink">
    <!-- Generator: Sketch 52.6 (67491) - http://www.bohemiancoding.com/sketch -->
    <title>Group 34</title>
    <desc>Created with Sketch.</desc>
    <g id="Page-1" stroke="none" stroke-width="1" fill="none" fill-rule="evenodd">
        <g id="27" transform="translate(-1.000000, -8.000000)" stroke="#ED4962" stroke-width="10">
            <g id="Group-34" transform="translate(6.000000, 13.000000)">
                <path d="M109.58603,0 L53.4139703,0 C44.3650495,0 36.0036337,4.84481188 31.4791733,12.7091584 L3.39314356,61.5284653 C-1.13131683,69.3928119 -1.13131683,79.0824356 3.39314356,86.9475891 L31.4791733,135.766089 C36.0036337,143.631243 44.3650495,148.475248 53.4139703,148.475248 L109.58603,148.475248 C118.63495,148.475248 126.996366,143.631243 131.520827,135.766089 L159.60605,86.9475891 C164.131317,79.0824356 164.131317,69.3928119 159.60605,61.5284653 L131.520827,12.7091584 C126.996366,4.84481188 118.63495,0 109.58603,0" id="Path"></path>
                <path d="M66.4983515,42.1774604 C67.2044158,33.4254901 73.9624604,29.049505 81.5008069,29.049505 C89.0391535,29.049505 95.7955842,33.4254901 96.5032624,42.1774604 C96.8728366,46.746302 95.9892475,57.5543317 94.0300198,61.6454703 C92.3177129,65.2250149 88.3274406,68.6617327 83.9078812,69.8374307 C81.7687079,70.2053911 81.2337129,70.2029703 79.0945396,69.8374307 C74.6733663,68.6633465 70.6847079,65.2250149 68.9707871,61.6454703 C67.0115594,57.5543317 66.1271634,46.746302 66.4983515,42.1774604 Z" id="Path"></path>
                <path d="M62.2700347,80.9706535 L68.110599,78.2738911 C76.5026782,85.5265842 86.4981287,85.5265842 94.8902079,78.2738911 L100.729965,80.9706535 C106.050866,83.4269505 111.356436,87.7746931 111.356436,93.6959505 L111.356436,110.80046 C111.356436,113.755441 108.951782,116.19802 106.043604,116.19802 L56.956396,116.19802 C54.0482178,116.19802 51.6435644,113.769965 51.6435644,110.80046 L51.6435644,93.6959505 C51.6435644,87.7577475 56.9491337,83.4277574 62.2700347,80.9706535 Z" id="Path"></path>
            </g>
        </g>
    </g>
</svg>