<?xml version="1.0" encoding="UTF-8"?>
<svg width="202px" height="202px" viewBox="0 0 202 202" version="1.1" xmlns="http://www.w3.org/2000/svg" xmlns:xlink="http://www.w3.org/1999/xlink">
    <title>Untitled</title>
    <g id="Page-1" stroke="none" stroke-width="1" fill="none" fill-rule="evenodd">
        <path d="M78.063,192 C67.275,192 52.945,185.079 46.219,176.617 L17.617,140.639 C10.892,132.181 7.352,116.625 9.752,106.076 L19.961,61.209 C22.361,50.657 32.278,38.186 41.997,33.49 L83.328,13.522 C93.048,8.826 108.953,8.826 118.672,13.522 L160.004,33.49 C169.723,38.186 179.639,50.657 182.039,61.209 L192.248,106.076 C194.648,116.625 191.108,132.181 184.383,140.639 L155.782,176.617 C149.055,185.079 134.726,192 123.938,192 L78.063,192 L78.063,192 Z" id="Path" stroke="#ED4D62" stroke-width="10"></path>
        <path d="M82.409,60.269 C83.284,49.423 91.659,44 101.001,44 C110.343,44 118.716,49.423 119.593,60.269 C120.051,65.931 118.956,79.325 116.528,84.395 C114.406,88.83 109.461,93.09 103.984,94.547 C101.333,95.003 100.67,95 98.019,94.547 C92.54,93.092 87.597,88.83 85.473,84.395 C83.045,79.325 81.949,65.931 82.409,60.269 Z" id="Path" stroke="#ED4D62" stroke-width="10"></path>
        <path d="M77.169,108.344 L84.407,105.002 C94.807,113.99 107.194,113.99 117.594,105.002 L124.831,108.344 C131.425,111.388 138,116.776 138,124.114 L138,145.311 C138,148.973 135.02,152 131.416,152 L70.584,152 C66.98,152 64,148.991 64,145.311 L64,124.114 C64,116.755 70.575,111.389 77.169,108.344 Z" id="Path" stroke="#ED4D62" stroke-width="10"></path>
        <rect id="Rectangle" opacity="0" x="0" y="0" width="202" height="202"></rect>
    </g>
</svg>