<?xml version="1.0" encoding="UTF-8"?>
<svg width="173px" height="173px" viewBox="0 0 173 173" version="1.1" xmlns="http://www.w3.org/2000/svg" xmlns:xlink="http://www.w3.org/1999/xlink">
    <!-- Generator: Sketch 52.6 (67491) - http://www.bohemiancoding.com/sketch -->
    <title>Group 39</title>
    <desc>Created with Sketch.</desc>
    <defs>
        <path d="M16.1326183,14.2572419 C16.8994194,4.75241398 24.2388011,0 32.4256075,0 C40.612414,0 47.950043,4.75241398 48.7185968,14.2572419 C49.1199624,19.2191022 48.1603656,30.9568548 46.0326022,35.3999194 C44.173,39.2873817 39.8394785,43.0197312 35.0397419,44.2965645 C32.7165538,44.6961774 32.1355376,44.6935484 29.8123495,44.2965645 C25.0108602,43.0214839 20.6790914,39.2873817 18.8177366,35.3999194 C16.6899731,30.9568548 15.7295,19.2191022 16.1326183,14.2572419 Z M11.5405753,49.3767312 L17.8835538,46.4479892 C26.9975323,54.3245699 37.8528065,54.3245699 46.9667849,46.4479892 L53.3088871,49.3767312 C59.0875,52.0443226 64.8494624,56.7660645 64.8494624,63.1966774 L64.8494624,81.772543 C64.8494624,84.9817151 62.237957,87.6344086 59.0796129,87.6344086 L5.76984946,87.6344086 C2.61150538,87.6344086 0,84.9974892 0,81.772543 L0,63.1966774 C0,56.7476613 5.76196237,52.0451989 11.5405753,49.3767312 Z" id="path-1"></path>
    </defs>
    <g id="Page-1" stroke="none" stroke-width="1" fill="none" fill-rule="evenodd">
        <g id="30" transform="translate(0.000000, -1.000000)">
            <g id="Group-39" transform="translate(5.000000, 6.000000)">
                <path d="M81.5,163 C126.510785,163 163,126.510785 163,81.5 C163,36.4892151 126.510785,0 81.5,0 C36.4892151,0 0,36.4892151 0,81.5 C0,126.510785 36.4892151,163 81.5,163 Z" id="Path" stroke="#ED4962" stroke-width="10"></path>
                <g id="Group-127" transform="translate(49.075269, 36.806452)">
                    <mask id="mask-2" fill="white">
                        <use xlink:href="#path-1"></use>
                    </mask>
                    <g id="Clip-126"></g>
                    <polygon id="Fill-125" fill="#FFFFFE" mask="url(#mask-2)" points="-0.0876344086 87.6519355 64.902043 87.6519355 64.902043 -0.0525806452 -0.0876344086 -0.0525806452"></polygon>
                </g>
                <path d="M65.2078871,44.0529409 C65.9746882,34.5481129 73.3140699,29.7956989 81.5008763,29.7956989 C89.6876828,29.7956989 97.0253118,34.5481129 97.7938656,44.0529409 C98.1952312,49.0148011 97.2356344,60.7525538 95.107871,65.1956183 C93.2482688,69.0830806 88.9147473,72.8154301 84.1150108,74.0922634 C81.7918226,74.4918763 81.2108065,74.4892473 78.8876183,74.0922634 C74.086129,72.8171828 69.7543602,69.0830806 67.8930054,65.1956183 C65.7652419,60.7525538 64.8047688,49.0148011 65.2078871,44.0529409 Z M60.6158441,86.1831828 L66.9588226,83.2544409 C76.0728011,91.1310215 86.9280753,91.1310215 96.0420538,83.2544409 L102.384156,86.1831828 C108.162769,88.8507742 113.924731,93.5725161 113.924731,100.003129 L113.924731,118.578995 C113.924731,121.788167 111.313226,124.44086 108.154882,124.44086 L54.8451183,124.44086 C51.6867742,124.44086 49.0752688,121.803941 49.0752688,118.578995 L49.0752688,100.003129 C49.0752688,93.5541129 54.8372312,88.8516505 60.6158441,86.1831828 Z" id="Stroke-128" stroke="#ED4962" stroke-width="10"></path>
            </g>
        </g>
    </g>
</svg>