<?xml version="1.0" encoding="UTF-8"?>
<svg width="202px" height="202px" viewBox="0 0 202 202" version="1.1" xmlns="http://www.w3.org/2000/svg" xmlns:xlink="http://www.w3.org/1999/xlink">
    <title>Untitled</title>
    <defs>
        <path d="M53.594,53.002 L60.831,56.344 C67.425,59.388 74,64.776 74,72.114 L74,93.311 C74,96.973 71.02,100 67.416,100 L6.584,100 C2.98,100 0,96.991 0,93.311 L0,72.114 C0,64.755 6.575,59.389 13.169,56.344 L20.407,53.002 C30.807,61.99 43.194,61.99 53.594,53.002 Z M37.001,0 C46.343,0 54.716,5.423 55.593,16.269 C56.051,21.931 54.956,35.325 52.528,40.395 C50.406,44.831 45.461,49.09 39.984,50.547 C37.333,51.003 36.67,51 34.019,50.547 C28.54,49.092 23.597,44.831 21.473,40.395 C19.045,35.325 17.949,21.931 18.409,16.269 C19.284,5.423 27.659,0 37.001,0 Z" id="path-1"></path>
    </defs>
    <g id="Page-1" stroke="none" stroke-width="1" fill="none" fill-rule="evenodd">
        <path d="M101,194 C152.362,194 194,152.362 194,101 C194,49.638 152.362,8 101,8 C49.638,8 8,49.638 8,101 C8,152.362 49.638,194 101,194 Z" id="Path" stroke="#ED4D62" stroke-width="10"></path>
        <g id="Group-127" transform="translate(64.000000, 50.000000)">
            <mask id="mask-2" fill="white">
                <use xlink:href="#path-1"></use>
            </mask>
            <g id="Clip-126"></g>
            <polygon id="Fill-125" fill="#FFFFFE" mask="url(#mask-2)" points="-0.1 100.02 74.06 100.02 74.06 -0.06 -0.1 -0.06"></polygon>
        </g>
        <path d="M82.409,58.269 C83.284,47.423 91.659,42 101.001,42 C110.343,42 118.716,47.423 119.593,58.269 C120.051,63.931 118.956,77.325 116.528,82.395 C114.406,86.831 109.461,91.09 103.984,92.547 C101.333,93.003 100.67,93 98.019,92.547 C92.54,91.092 87.597,86.831 85.473,82.395 C83.045,77.325 81.949,63.931 82.409,58.269 Z M77.169,106.344 L84.407,103.002 C94.807,111.99 107.194,111.99 117.594,103.002 L124.831,106.344 C131.425,109.388 138,114.776 138,122.114 L138,143.311 C138,146.973 135.02,150 131.416,150 L70.584,150 C66.98,150 64,146.991 64,143.311 L64,122.114 C64,114.755 70.575,109.389 77.169,106.344 Z" id="Stroke-128" stroke="#ED4D62" stroke-width="10"></path>
        <rect id="Rectangle" opacity="0" x="0" y="0" width="202" height="202"></rect>
    </g>
</svg>