<?xml version="1.0" encoding="UTF-8"?>
<svg width="202px" height="202px" viewBox="0 0 202 202" version="1.1" xmlns="http://www.w3.org/2000/svg" xmlns:xlink="http://www.w3.org/1999/xlink">
    <title>Untitled</title>
    <g id="Page-1" stroke="none" stroke-width="1" fill="none" fill-rule="evenodd">
        <path d="M82.409,59.269 C83.284,48.423 91.659,43 101.001,43 C110.343,43 118.716,48.423 119.593,59.269 C120.051,64.931 118.956,78.325 116.528,83.395 C114.406,87.831 109.461,92.09 103.984,93.547 C101.333,94.003 100.67,94 98.019,93.547 C92.54,92.092 87.597,87.831 85.473,83.395 C83.045,78.325 81.949,64.931 82.409,59.269 Z M77.168,107.344 L84.407,104.002 C94.807,112.99 107.194,112.99 117.594,104.002 L124.832,107.344 C131.425,110.388 138,115.776 138,123.114 L138,144.312 C138,147.973 135.02,151 131.416,151 L70.584,151 C66.98,151 64,147.991 64,144.312 L64,123.114 C64,115.755 70.575,110.389 77.168,107.344 Z" id="Stroke-129" stroke="#15ADE4" stroke-width="10"></path>
        <rect id="Rectangle" opacity="0" x="0" y="0" width="202" height="202"></rect>
    </g>
</svg>