<?xml version="1.0" encoding="utf-8"?>
<svg width="174px" height="174px" viewBox="0 0 174 174" version="1.1" xmlns="http://www.w3.org/2000/svg">
  <title>Stroke 129</title>
  <desc>Created with Sketch.</desc>
  <g id="Page-1" stroke="none" stroke-width="1" fill="none" fill-rule="evenodd" transform="matrix(0.752381, 0, 0, 0.724576, 56.600002, 40.000004)">
    <g id="62" transform="translate(-45.000000, -28.000000)" fill="#00AFE4" fill-rule="nonzero">
      <path d="M98.0184434,71.2353938 C99.7452264,67.6296319 101.084658,55.5489898 100.609266,49.6719813 C100.011747,42.2823659 94.6884019,38 87.001,38 C79.3129599,38 73.9888679,42.2826494 73.3928079,49.6710682 C72.9155336,55.5457026 74.2551958,67.6284253 75.9827072,71.2357083 C77.5197722,74.4458874 81.2703956,77.5700337 85.1025103,78.6595585 C86.8954258,78.9637955 87.1202978,78.9638779 88.896966,78.660433 C92.7312265,77.5691603 96.4833717,74.4444305 98.0184434,71.2353938 Z M87.001,28 C99.6293481,28 109.533779,35.9676213 110.576722,48.865866 C111.181873,56.3470121 109.659214,70.0802227 107.038499,75.5526373 C104.209569,81.4664598 97.9905047,86.590992 91.2694028,88.3789499 L91.0526499,88.4366108 L90.8316049,88.4746329 C87.6276205,89.0257521 86.3933106,89.0251934 83.1768127,88.4755617 L82.9540773,88.4375009 L82.735683,88.3795043 C76.0140842,86.5945205 69.795723,81.469857 66.9634434,75.5546062 C64.341227,70.0790556 62.8181351,56.3430779 63.4253057,48.8655244 C64.466509,35.9677145 74.3722494,28 87.001,28 Z M55,113.114 L55,134.312 C55,135.238695 55.7508636,136 56.584,136 L117.416,136 C118.240917,136 119,135.228932 119,134.312 L119,113.114 C119,108.994559 115.110981,104.82681 108.735993,101.883466 L104.284785,99.828211 C93.3798021,107.714633 80.6210308,107.714596 69.7160653,99.8281025 L65.264127,101.883411 C58.8742693,104.834672 55,108.98237 55,113.114 Z M61.0715303,92.8047473 L71.2376725,88.1113853 L73.6763871,90.2189975 C82.198806,97.5843342 91.802194,97.5843342 100.324613,90.2189975 L102.763468,88.1112636 L105.690007,89.4625335 L112.927902,92.8044853 C122.457577,97.2043535 129,104.215678 129,113.114 L129,134.312 C129,140.717019 123.799132,146 117.416,146 L56.584,146 C50.1968662,146 45,140.730864 45,134.312 L45,113.114 C45,104.200613 51.5272755,97.2127946 61.0715303,92.8047473 Z" id="Stroke-129"/>
    </g>
  </g>
</svg>