<?xml version="1.0" encoding="UTF-8"?>
<svg width="202px" height="202px" viewBox="0 0 202 202" version="1.1" xmlns="http://www.w3.org/2000/svg" xmlns:xlink="http://www.w3.org/1999/xlink">
    <title>Untitled</title>
    <g id="Page-1" stroke="none" stroke-width="1" fill="none" fill-rule="evenodd">
        <path d="M100,196 C139.765,196 172,153.467 172,101 C172,48.533 139.765,6 100,6 C60.235,6 28,48.533 28,101 C28,153.467 60.235,196 100,196 Z" id="Path" stroke="#ED4D62" stroke-width="10"></path>
        <path d="M82.409,58.269 C83.284,47.423 91.659,42 101.001,42 C110.343,42 118.716,47.423 119.593,58.269 C120.051,63.931 118.956,77.325 116.528,82.395 C114.406,86.831 109.461,91.09 103.984,92.547 C101.333,93.003 100.67,93 98.019,92.547 C92.54,91.092 87.597,86.831 85.473,82.395 C83.045,77.325 81.949,63.931 82.409,58.269 Z" id="Path" stroke="#ED4D62" stroke-width="10"></path>
        <path d="M77.169,106.344 L84.407,103.002 C94.807,111.99 107.194,111.99 117.594,103.002 L124.832,106.344 C131.425,109.388 138,114.776 138,122.114 L138,143.312 C138,146.973 135.02,150 131.416,150 L70.584,150 C66.98,150 64,146.991 64,143.312 L64,122.114 C64,114.755 70.575,109.389 77.169,106.344 Z" id="Path" stroke="#ED4D62" stroke-width="10"></path>
        <polygon id="Fill-278" fill="#EA4D64" points="60 140 142 140 142 124 60 124"></polygon>
        <rect id="Rectangle" opacity="0" x="0" y="0" width="202" height="202"></rect>
    </g>
</svg>