<?xml version="1.0" encoding="UTF-8"?>
<svg width="134px" height="173px" viewBox="0 0 134 173" version="1.1" xmlns="http://www.w3.org/2000/svg" xmlns:xlink="http://www.w3.org/1999/xlink">
    <!-- Generator: Sketch 52.6 (67491) - http://www.bohemiancoding.com/sketch -->
    <title>Group 70</title>
    <desc>Created with Sketch.</desc>
    <g id="Page-1" stroke="none" stroke-width="1" fill="none" fill-rule="evenodd">
        <g id="51" transform="translate(-20.000000, -1.000000)">
            <g id="Group-70" transform="translate(25.000000, 6.000000)">
                <path d="M61.7684211,163 C95.8826053,163 123.536842,126.511163 123.536842,81.5 C123.536842,36.4888368 95.8826053,0 61.7684211,0 C27.6542368,0 0,36.4888368 0,81.5 C0,126.511163 27.6542368,163 61.7684211,163 Z" id="Path" stroke="#ED4962" stroke-width="10"></path>
                <path d="M46.6771947,44.8413 C47.4278526,35.5365737 54.6127211,30.8842105 62.6271737,30.8842105 C70.6416263,30.8842105 77.8247789,35.5365737 78.5771526,44.8413 C78.9700684,49.6987 78.0306737,61.1893421 75.9477053,65.5388684 C74.1272526,69.3444895 69.8849632,72.9982632 65.1862737,74.2482158 C62.9119947,74.6394158 62.3432105,74.6368421 60.0689316,74.2482158 C55.3685263,72.9999789 51.1279526,69.3444895 49.3057842,65.5388684 C47.2228158,61.1893421 46.2825632,49.6987 46.6771947,44.8413 Z" id="Path" stroke="#ED4962" stroke-width="10"></path>
                <path d="M42.1818263,86.0845895 L48.3912684,83.2175053 C57.3133737,90.9282632 67.9401158,90.9282632 76.8622211,83.2175053 L83.0716632,86.0845895 C88.7277632,88.6960211 94.3684211,93.3183579 94.3684211,99.6135895 L94.3684211,117.799242 C94.3684211,120.939995 91.8118947,123.536842 88.7200421,123.536842 L36.5325895,123.536842 C33.4407368,123.536842 30.8842105,120.955437 30.8842105,117.799242 L30.8842105,99.6135895 C30.8842105,93.3003421 36.5248684,88.6968789 42.1818263,86.0845895 Z" id="Path" stroke="#ED4962" stroke-width="10"></path>
                <polygon id="Fill-278" fill="#EA4A65" points="27.4526316 114.957895 97.8 114.957895 97.8 101.231579 27.4526316 101.231579"></polygon>
            </g>
        </g>
    </g>
</svg>