<?xml version="1.0" encoding="UTF-8"?>
<svg width="132px" height="174px" viewBox="0 0 132 174" version="1.1" xmlns="http://www.w3.org/2000/svg" xmlns:xlink="http://www.w3.org/1999/xlink">
    <!-- Generator: Sketch 52.6 (67491) - http://www.bohemiancoding.com/sketch -->
    <title>Group 71</title>
    <desc>Created with Sketch.</desc>
    <g id="Page-1" stroke="none" stroke-width="1" fill="none" fill-rule="evenodd">
        <g id="52" transform="translate(-21.000000, 0.000000)">
            <g id="Group-71" transform="translate(26.000000, 5.000000)">
                <path d="M121.291667,135.918417 C121.291667,151.426667 109.552854,164 95.0713125,164 L26.2203542,164 C11.7405208,164 0,151.427521 0,135.918417 L0,28.0807292 C0,12.5724792 11.7405208,0 26.2203542,0 L95.0713125,0 C109.552854,0 121.291667,12.5724792 121.291667,28.0807292 L121.291667,135.918417 Z" id="Stroke-258" stroke="#ED4962" stroke-width="10"></path>
                <path d="M43.9118542,48.9172708 C44.65925,39.6529792 51.8128958,35.0208333 59.7925208,35.0208333 C67.7721458,35.0208333 74.9240833,39.6529792 75.6731875,48.9172708 C76.0643958,53.7535625 75.1290833,65.1942708 73.0551667,69.5248958 C71.242625,73.3139792 67.0187708,76.951875 62.3405,78.1963958 C60.0761042,78.5858958 59.5097917,78.5833333 57.2453958,78.1963958 C52.5654167,76.9535833 48.3432708,73.3139792 46.5290208,69.5248958 C44.4551042,65.1942708 43.5189375,53.7535625 43.9118542,48.9172708 Z" id="Path" stroke="#ED4962" stroke-width="10"></path>
                <path d="M39.4360208,89.9813333 L45.6184792,87.1267083 C54.5018125,94.8039583 65.082375,94.8039583 73.9657083,87.1267083 L80.1481667,89.9813333 C85.7796875,92.5814167 91.3958333,97.1836667 91.3958333,103.451542 L91.3958333,121.557312 C91.3958333,124.685271 88.8504167,127.270833 85.772,127.270833 L33.8113333,127.270833 C30.7329167,127.270833 28.1875,124.700646 28.1875,121.557312 L28.1875,103.451542 C28.1875,97.1657292 33.8036458,92.5822708 39.4360208,89.9813333 Z" id="Path" stroke="#ED4962" stroke-width="10"></path>
                <polygon id="Fill-280" fill="#EA4A65" points="24.7708333 118.729167 94.8125 118.729167 94.8125 105.0625 24.7708333 105.0625"></polygon>
            </g>
        </g>
    </g>
</svg>