<?xml version="1.0" encoding="UTF-8"?>
<svg width="202px" height="202px" viewBox="0 0 202 202" version="1.1" xmlns="http://www.w3.org/2000/svg" xmlns:xlink="http://www.w3.org/1999/xlink">
    <title>Untitled</title>
    <g id="Page-1" stroke="none" stroke-width="1" fill="none" fill-rule="evenodd">
        <path d="M173,164.124 C173,182.28 159.257,197 142.303,197 L61.697,197 C44.745,197 31,182.281 31,164.124 L31,37.875 C31,19.719 44.745,5 61.697,5 L142.303,5 C159.257,5 173,19.719 173,37.875 L173,164.124 Z" id="Stroke-258" stroke="#ED4D62" stroke-width="10"></path>
        <path d="M82.409,62.269 C83.284,51.423 91.659,46 101.001,46 C110.343,46 118.716,51.423 119.593,62.269 C120.051,67.931 118.956,81.325 116.528,86.395 C114.406,90.831 109.461,95.09 103.984,96.547 C101.333,97.003 100.67,97 98.019,96.547 C92.54,95.092 87.597,90.831 85.473,86.395 C83.045,81.325 81.949,67.931 82.409,62.269 Z" id="Path" stroke="#ED4D62" stroke-width="10"></path>
        <path d="M77.169,110.344 L84.407,107.002 C94.807,115.99 107.194,115.99 117.594,107.002 L124.832,110.344 C131.425,113.388 138,118.776 138,126.114 L138,147.311 C138,150.973 135.02,154 131.416,154 L70.584,154 C66.98,154 64,150.991 64,147.311 L64,126.114 C64,118.755 70.575,113.389 77.169,110.344 Z" id="Path" stroke="#ED4D62" stroke-width="10"></path>
        <polygon id="Fill-280" fill="#EA4D64" points="60 144 142 144 142 128 60 128"></polygon>
        <rect id="Rectangle" opacity="0" x="0" y="0" width="202" height="202"></rect>
    </g>
</svg>