<?xml version="1.0" encoding="UTF-8"?>
<svg width="173px" height="125px" viewBox="0 0 173 125" version="1.1" xmlns="http://www.w3.org/2000/svg" xmlns:xlink="http://www.w3.org/1999/xlink">
    <!-- Generator: Sketch 52.6 (67491) - http://www.bohemiancoding.com/sketch -->
    <title>Group 73</title>
    <desc>Created with Sketch.</desc>
    <defs>
        <path d="M26.0430108,0 L146.956989,0 C161.340172,0 173,11.659828 173,26.0430108 L173,98.5913978 C173,112.974581 161.340172,124.634409 146.956989,124.634409 L26.0430108,124.634409 C11.659828,124.634409 0,112.974581 0,98.5913978 L0,26.0430108 C0,11.659828 11.659828,0 26.0430108,0 Z" id="path-1"></path>
    </defs>
    <g id="Page-1" stroke="none" stroke-width="1" fill="none" fill-rule="evenodd">
        <g id="53" transform="translate(-1.000000, -25.000000)">
            <g id="Group-73" transform="translate(1.000000, 25.000000)">
                <g id="Group-251">
                    <mask id="mask-2" fill="white">
                        <use xlink:href="#path-1"></use>
                    </mask>
                    <g id="Clip-250"></g>
                    <path d="M26.0430108,0 L146.956989,0 C161.340172,0 173,11.659828 173,26.0430108 L173,98.5913978 C173,112.974581 161.340172,124.634409 146.956989,124.634409 L26.0430108,124.634409 C11.659828,124.634409 0,112.974581 0,98.5913978 L0,26.0430108 C0,11.659828 11.659828,0 26.0430108,0 Z" id="Stroke-249" stroke="#ED4962" stroke-width="20" mask="url(#mask-2)"></path>
                </g>
                <path d="M70.6146935,31.7724731 C71.3187849,22.9922581 78.0564839,18.6021505 85.5708226,18.6021505 C93.0860914,18.6021505 99.821,22.9922581 100.526022,31.7724731 C100.894344,36.356043 100.014462,47.1992366 98.0612366,51.3038011 C96.3535591,54.8940161 92.3764194,58.3428548 87.9705,59.5222312 C85.8377634,59.8905538 85.3048118,59.8886935 83.1720753,59.5222312 C78.7642957,58.3437849 74.788086,54.8940161 73.0794785,51.3038011 C71.1271828,47.1992366 70.2454409,36.356043 70.6146935,31.7724731 Z M66.3994462,70.6909624 L72.2219194,67.9852796 C80.5882366,75.2615108 90.5524785,75.2615108 98.9187957,67.9852796 L104.740339,70.6909624 C110.044742,73.1548172 115.333333,77.5170215 115.333333,83.4576183 L115.333333,100.617172 C115.333333,103.581425 112.936446,106.032258 110.036371,106.032258 L61.1024839,106.032258 C58.2033387,106.032258 55.8064516,103.596306 55.8064516,100.617172 L55.8064516,83.4576183 C55.8064516,77.5002796 61.095043,73.1557473 66.3994462,70.6909624 Z" id="Stroke-252" stroke="#ED4962" stroke-width="8"></path>
                <polygon id="Fill-296" fill="#EA4A65" points="53.9462366 96.7311828 119.053763 96.7311828 119.053763 83.7096774 53.9462366 83.7096774"></polygon>
            </g>
        </g>
    </g>
</svg>