<?xml version="1.0" encoding="UTF-8"?>
<svg width="172px" height="155px" viewBox="0 0 172 155" version="1.1" xmlns="http://www.w3.org/2000/svg" xmlns:xlink="http://www.w3.org/1999/xlink">
    <!-- Generator: Sketch 52.6 (67491) - http://www.bohemiancoding.com/sketch -->
    <title>Group 74</title>
    <desc>Created with Sketch.</desc>
    <g id="Page-1" stroke="none" stroke-width="1" fill="none" fill-rule="evenodd">
        <g id="54" transform="translate(-1.000000, -10.000000)">
            <g id="Group-74" transform="translate(6.000000, 15.000000)">
                <path d="M61.5924,11.1055263 L3.03536842,111.630789 C-5.58985263,126.438442 5.19252632,144.947368 22.4429684,144.947368 L139.557032,144.947368 C156.807474,144.947368 167.589853,126.438442 158.964632,111.630789 L100.4076,11.1055263 C91.7815263,-3.70212632 70.2184737,-3.70212632 61.5924,11.1055263" id="Stroke-257" stroke="#ED4962" stroke-width="10"></path>
                <path d="M65.1487263,46.2714632 C65.8947789,37.0238211 73.0355684,32.4 81.0008526,32.4 C88.9661368,32.4 96.1052211,37.0238211 96.8529789,46.2714632 C97.2434842,51.0990632 96.3098526,62.5192105 94.2396632,66.8420526 C92.4303789,70.6243263 88.2141158,74.2556842 83.5442526,75.4979684 C81.2839263,75.8867684 80.7186316,75.8842105 78.4583053,75.4979684 C73.7867368,74.2573895 69.5721789,70.6243263 67.7611895,66.8420526 C65.691,62.5192105 64.7565158,51.0990632 65.1487263,46.2714632 Z" id="Path" stroke="#ED4962" stroke-width="10"></path>
                <path d="M60.6800842,87.2617263 L66.8522842,84.4122316 C75.7196526,92.0756842 86.2812,92.0756842 95.1485684,84.4122316 L101.319063,87.2617263 C106.941316,89.8571368 112.547368,94.4511158 112.547368,100.707726 L112.547368,118.780958 C112.547368,121.903295 110.006526,124.484211 106.933642,124.484211 L55.0663579,124.484211 C51.9934737,124.484211 49.4526316,121.918642 49.4526316,118.780958 L49.4526316,100.707726 C49.4526316,94.4332105 55.0586842,89.8579895 60.6800842,87.2617263 Z" id="Path" stroke="#ED4962" stroke-width="10"></path>
                <polygon id="Fill-282" fill="#EA4A65" points="46.0421053 115.957895 115.957895 115.957895 115.957895 102.315789 46.0421053 102.315789"></polygon>
            </g>
        </g>
    </g>
</svg>