<?xml version="1.0" encoding="UTF-8"?>
<svg width="202px" height="202px" viewBox="0 0 202 202" version="1.1" xmlns="http://www.w3.org/2000/svg" xmlns:xlink="http://www.w3.org/1999/xlink">
    <title>Untitled</title>
    <g id="Page-1" stroke="none" stroke-width="1" fill="none" fill-rule="evenodd">
        <path d="M78.238,29.025 L9.56,146.925 C-0.556,164.292 12.09,186 32.322,186 L169.678,186 C189.91,186 202.556,164.292 192.44,146.925 L123.762,29.025 C113.645,11.658 88.355,11.658 78.238,29.025" id="Stroke-257" stroke="#ED4D62" stroke-width="10"></path>
        <path d="M82.409,70.269 C83.284,59.423 91.659,54 101.001,54 C110.343,54 118.716,59.423 119.593,70.269 C120.051,75.931 118.956,89.325 116.528,94.395 C114.406,98.831 109.461,103.09 103.984,104.547 C101.333,105.003 100.67,105 98.019,104.547 C92.54,103.092 87.597,98.831 85.473,94.395 C83.045,89.325 81.949,75.931 82.409,70.269 Z" id="Path" stroke="#ED4D62" stroke-width="10"></path>
        <path d="M77.168,118.344 L84.407,115.002 C94.807,123.99 107.194,123.99 117.594,115.002 L124.831,118.344 C131.425,121.388 138,126.776 138,134.114 L138,155.311 C138,158.973 135.02,162 131.416,162 L70.584,162 C66.98,162 64,158.991 64,155.311 L64,134.114 C64,126.755 70.575,121.389 77.168,118.344 Z" id="Path" stroke="#ED4D62" stroke-width="10"></path>
        <polygon id="Fill-282" fill="#EA4D64" points="60 152 142 152 142 136 60 136"></polygon>
        <rect id="Rectangle" opacity="0" x="0" y="0" width="202" height="202"></rect>
    </g>
</svg>