<?xml version="1.0" encoding="UTF-8"?>
<svg width="172px" height="167px" viewBox="0 0 172 167" version="1.1" xmlns="http://www.w3.org/2000/svg" xmlns:xlink="http://www.w3.org/1999/xlink">
    <!-- Generator: Sketch 52.6 (67491) - http://www.bohemiancoding.com/sketch -->
    <title>Group 77</title>
    <desc>Created with Sketch.</desc>
    <g id="Page-1" stroke="none" stroke-width="1" fill="none" fill-rule="evenodd">
        <g id="56" transform="translate(-1.000000, -4.000000)">
            <g id="Group-77" transform="translate(6.000000, 9.000000)">
                <path d="M65.1001263,5.17121053 L11.1515684,44.4093158 C1.67115789,51.3045474 -2.29528421,63.5270211 1.32584211,74.6845579 L21.9313895,138.174063 C25.5533684,149.330747 35.9392737,156.884211 47.6586947,156.884211 L114.342158,156.884211 C126.060726,156.884211 136.446632,149.330747 140.067758,138.174063 L160.674158,74.6845579 C164.295284,63.5270211 160.328842,51.3045474 150.847579,44.4093158 L96.8998737,5.17121053 C87.4186105,-1.72402105 74.5805368,-1.72402105 65.1001263,5.17121053 Z" id="Path" stroke="#ED4962" stroke-width="10"></path>
                <path d="M65.1487263,47.9767263 C65.8947789,38.7290842 73.0355684,34.1052632 81.0008526,34.1052632 C88.9661368,34.1052632 96.1052211,38.7290842 96.8529789,47.9767263 C97.2434842,52.8043263 96.3098526,64.2244737 94.2396632,68.5473158 C92.4303789,72.3287368 88.2141158,75.9609474 83.5442526,77.2032316 C81.2839263,77.5920316 80.7186316,77.5894737 78.4583053,77.2032316 C73.7867368,75.9626526 69.5721789,72.3287368 67.7611895,68.5473158 C65.691,64.2244737 64.7565158,52.8043263 65.1487263,47.9767263 Z" id="Path" stroke="#ED4962" stroke-width="10"></path>
                <path d="M60.6809368,88.9669895 L66.8522842,86.1174947 C75.7196526,93.7809474 86.2812,93.7809474 95.1485684,86.1174947 L101.319916,88.9669895 C106.941316,91.5624 112.547368,96.1563789 112.547368,102.412989 L112.547368,120.486221 C112.547368,123.608558 110.006526,126.189474 106.933642,126.189474 L55.0663579,126.189474 C51.9934737,126.189474 49.4526316,123.623905 49.4526316,120.486221 L49.4526316,102.412989 C49.4526316,96.1384737 55.0586842,91.5632526 60.6809368,88.9669895 Z" id="Path" stroke="#ED4962" stroke-width="10"></path>
                <polygon id="Fill-286" fill="#EA4A65" points="46.0421053 117.663158 115.957895 117.663158 115.957895 104.021053 46.0421053 104.021053"></polygon>
            </g>
        </g>
    </g>
</svg>