<?xml version="1.0" encoding="UTF-8"?>
<svg width="174px" height="159px" viewBox="0 0 174 159" version="1.1" xmlns="http://www.w3.org/2000/svg" xmlns:xlink="http://www.w3.org/1999/xlink">
    <!-- Generator: Sketch 52.6 (67491) - http://www.bohemiancoding.com/sketch -->
    <title>Group 78</title>
    <desc>Created with Sketch.</desc>
    <g id="Page-1" stroke="none" stroke-width="1" fill="none" fill-rule="evenodd">
        <g id="57" transform="translate(0.000000, -8.000000)">
            <g id="Group-78" transform="translate(5.000000, 13.000000)">
                <path d="M109.715192,0 L53.4769261,0 C44.4173399,0 36.046069,4.85052217 31.5162759,12.7241379 L3.39714286,61.6009852 C-1.13265025,69.474601 -1.13265025,79.1756453 3.39714286,87.050069 L31.5162759,135.926108 C36.046069,143.800532 44.4173399,148.650246 53.4769261,148.650246 L109.715192,148.650246 C118.774778,148.650246 127.146049,143.800532 131.675842,135.926108 L159.794975,87.050069 C164.324768,79.1756453 164.324768,69.474601 159.794975,61.6009852 L131.675842,12.7241379 C127.146049,4.85052217 118.774778,0 109.715192,0" id="Path" stroke="#ED4962" stroke-width="10"></path>
                <path d="M66.5767291,42.2271724 C67.2836256,33.4648867 74.0496355,29.0837438 81.596867,29.0837438 C89.1440985,29.0837438 95.9084926,33.4648867 96.6170049,42.2271724 C96.9870148,46.801399 96.1023842,57.6221675 94.1408473,61.7181281 C92.4265222,65.3018916 88.4315468,68.7426601 84.0067783,69.9197438 C81.8650837,70.2881379 81.3294581,70.2857143 79.1877635,69.9197438 C74.7613793,68.7442759 70.7680197,65.3018916 69.0520788,61.7181281 C67.0905419,57.6221675 66.2051034,46.801399 66.5767291,42.2271724 Z" id="Path" stroke="#ED4962" stroke-width="10"></path>
                <path d="M62.3426207,81.0660887 L68.1908768,78.3661478 C76.5928473,85.6273892 86.6000788,85.6273892 95.0020493,78.3661478 L100.84869,81.0660887 C106.175862,83.5252808 111.487685,87.8781478 111.487685,93.8063842 L111.487685,110.931054 C111.487685,113.889517 109.080197,116.334975 106.168591,116.334975 L57.0235271,116.334975 C54.1119212,116.334975 51.7044335,113.904059 51.7044335,110.931054 L51.7044335,93.8063842 C51.7044335,87.8611823 57.0162562,83.5260887 62.3426207,81.0660887 Z" id="Path" stroke="#ED4962" stroke-width="10"></path>
                <polygon id="Fill-288" fill="#EA4A65" points="51.7044335 108.256158 113.103448 108.256158 113.103448 95.3300493 51.7044335 95.3300493"></polygon>
            </g>
        </g>
    </g>
</svg>