<?xml version="1.0" encoding="UTF-8"?>
<svg width="173px" height="172px" viewBox="0 0 173 172" version="1.1" xmlns="http://www.w3.org/2000/svg" xmlns:xlink="http://www.w3.org/1999/xlink">
    <!-- Generator: Sketch 52.6 (67491) - http://www.bohemiancoding.com/sketch -->
    <title>Group 80</title>
    <desc>Created with Sketch.</desc>
    <g id="Page-1" stroke="none" stroke-width="1" fill="none" fill-rule="evenodd">
        <g id="58" transform="translate(-1.000000, -1.000000)">
            <g id="Group-80" transform="translate(6.000000, 6.000000)">
                <path d="M61.1808098,161.228261 C51.6240489,161.228261 38.929538,155.097158 32.9711793,147.600929 L7.63353804,115.729114 C1.67606522,108.236429 -1.45991304,94.4558424 0.665288043,85.1108043 L9.71090217,45.3644946 C11.8361033,36.0167989 20.6212717,24.9691196 29.231038,20.8090761 L65.844913,3.12003261 C74.4555652,-1.04001087 88.5453207,-1.04001087 97.155087,3.12003261 L133.769848,20.8090761 C142.379614,24.9691196 151.163897,36.0167989 153.289984,45.3644946 L162.333826,85.1108043 C164.459913,94.4558424 161.323935,108.236429 155.366462,115.729114 L130.029707,147.600929 C124.070462,155.097158 111.375951,161.228261 101.820076,161.228261 L61.1808098,161.228261 Z" id="Path" stroke="#ED4962" stroke-width="10"></path>
                <path d="M64.1449293,44.5317772 C64.9200652,34.9236359 72.3392228,30.1195652 80.6150163,30.1195652 C88.8908098,30.1195652 96.3081957,34.9236359 97.0851033,44.5317772 C97.4908315,49.5475707 96.5208043,61.4129076 94.369913,65.9042663 C92.4900978,69.8330978 88.1094728,73.6069022 83.2575652,74.8976141 C80.909125,75.3015707 80.3217935,75.298913 77.9733533,74.8976141 C73.1196739,73.6086739 68.7408207,69.8330978 66.8592337,65.9042663 C64.7083424,61.4129076 63.7374293,49.5475707 64.1449293,44.5317772 Z" id="Path" stroke="#ED4962" stroke-width="10"></path>
                <path d="M59.502087,87.1199565 L65.9148967,84.1593804 C75.1279402,92.1215761 86.1012065,92.1215761 95.31425,84.1593804 L101.725288,87.1199565 C107.566712,89.8165435 113.391304,94.5896087 113.391304,101.09012 L113.391304,119.867897 C113.391304,123.111951 110.751413,125.793478 107.558739,125.793478 L53.6695217,125.793478 C50.4768478,125.793478 47.8369565,123.127897 47.8369565,119.867897 L47.8369565,101.09012 C47.8369565,94.5710054 53.6615489,89.8174293 59.502087,87.1199565 Z" id="Path" stroke="#ED4962" stroke-width="10"></path>
                <polygon id="Fill-290" fill="#EA4A65" points="44.2934783 116.934783 111.619565 116.934783 111.619565 102.76087 44.2934783 102.76087"></polygon>
            </g>
        </g>
    </g>
</svg>