<?xml version="1.0" encoding="UTF-8"?>
<svg width="202px" height="202px" viewBox="0 0 202 202" version="1.1" xmlns="http://www.w3.org/2000/svg" xmlns:xlink="http://www.w3.org/1999/xlink">
    <title>Untitled</title>
    <g id="Page-1" stroke="none" stroke-width="1" fill="none" fill-rule="evenodd">
        <path d="M127.609,5 L74.388,5 C65.966,5 57.89,8.346 51.934,14.301 L14.301,51.935 C8.346,57.89 5,65.967 5,74.389 L5,127.612 C5,136.033 8.346,144.11 14.301,150.066 L51.934,187.699 C57.89,193.655 65.966,197 74.388,197 L127.609,197 C136.031,197 144.109,193.655 150.064,187.699 L187.696,150.066 C193.653,144.11 197,136.033 197,127.612 L197,74.389 C197,65.967 193.653,57.89 187.696,51.935 L150.064,14.301 C144.109,8.346 136.031,5 127.609,5" id="Path" stroke="#ED4D62" stroke-width="10"></path>
        <path d="M82.409,59.269 C83.284,48.423 91.659,43 101.001,43 C110.343,43 118.716,48.423 119.593,59.269 C120.051,64.931 118.956,78.325 116.528,83.395 C114.406,87.831 109.461,92.09 103.984,93.547 C101.333,94.003 100.67,94 98.019,93.547 C92.54,92.092 87.597,87.831 85.473,83.395 C83.045,78.325 81.949,64.931 82.409,59.269 Z" id="Path" stroke="#ED4D62" stroke-width="10"></path>
        <path d="M77.169,107.344 L84.407,104.002 C94.807,112.99 107.194,112.99 117.594,104.002 L124.832,107.344 C131.425,110.388 138,115.776 138,123.114 L138,144.311 C138,147.973 135.02,151 131.416,151 L70.584,151 C66.98,151 64,147.991 64,144.311 L64,123.114 C64,115.755 70.575,110.389 77.169,107.344 Z" id="Path" stroke="#ED4D62" stroke-width="10"></path>
        <polygon id="Fill-292" fill="#EA4D64" points="62 141 138 141 138 125 62 125"></polygon>
        <rect id="Rectangle" opacity="0" x="0" y="0" width="202" height="202"></rect>
    </g>
</svg>