<?xml version="1.0" encoding="UTF-8"?>
<svg width="172px" height="172px" viewBox="0 0 172 172" version="1.1" xmlns="http://www.w3.org/2000/svg" xmlns:xlink="http://www.w3.org/1999/xlink">
    <!-- Generator: Sketch 52.6 (67491) - http://www.bohemiancoding.com/sketch -->
    <title>Group 81</title>
    <desc>Created with Sketch.</desc>
    <g id="Page-1" stroke="none" stroke-width="1" fill="none" fill-rule="evenodd">
        <g id="59" transform="translate(-1.000000, -1.000000)">
            <g id="Group-81" transform="translate(6.000000, 6.000000)">
                <path d="M103.451344,0 L58.546125,0 C51.4400625,0 44.6259375,2.8231875 39.6005625,7.84771875 L7.84771875,39.6014062 C2.8231875,44.6259375 0,51.4409062 0,58.5469688 L0,103.453875 C0,110.559094 2.8231875,117.374063 7.84771875,122.399438 L39.6005625,154.152281 C44.6259375,159.177656 51.4400625,162 58.546125,162 L103.451344,162 C110.557406,162 117.373219,159.177656 122.39775,154.152281 L154.14975,122.399438 C159.175969,117.374063 162,110.559094 162,103.453875 L162,58.5469688 C162,51.4409062 159.175969,44.6259375 154.14975,39.6014062 L122.39775,7.84771875 C117.373219,2.8231875 110.557406,0 103.451344,0" id="Path" stroke="#ED4962" stroke-width="10"></path>
                <path d="M66.1575938,45.7894687 C66.895875,36.6381562 73.9622813,32.0625 81.8445938,32.0625 C89.7269063,32.0625 96.791625,36.6381562 97.5315938,45.7894687 C97.9180313,50.5667812 96.994125,61.8679687 94.9455,66.1457812 C93.1550625,69.8886563 88.9827188,73.4821875 84.3615,74.7115312 C82.1247188,75.0962812 81.5653125,75.09375 79.3285313,74.7115312 C74.705625,73.483875 70.5349688,69.8886563 68.7428438,66.1457812 C66.6942188,61.8679687 65.7694688,50.5667812 66.1575938,45.7894687 Z" id="Path" stroke="#ED4962" stroke-width="10"></path>
                <path d="M61.7363438,86.35275 L67.8434062,83.5329375 C76.6184063,91.1165625 87.0699375,91.1165625 95.8449375,83.5329375 L101.952,86.35275 C107.514844,88.921125 113.0625,93.46725 113.0625,99.6586875 L113.0625,117.543656 C113.0625,120.633469 110.548125,123.1875 107.50725,123.1875 L56.18025,123.1875 C53.139375,123.1875 50.625,120.648656 50.625,117.543656 L50.625,99.6586875 C50.625,93.4495313 56.1726563,88.9219688 61.7363438,86.35275 Z" id="Path" stroke="#ED4962" stroke-width="10"></path>
                <polygon id="Fill-292" fill="#EA4A65" points="48.9375 114.75 113.0625 114.75 113.0625 101.25 48.9375 101.25"></polygon>
            </g>
        </g>
    </g>
</svg>