<?xml version="1.0" encoding="UTF-8"?>
<svg width="172px" height="172px" viewBox="0 0 172 172" version="1.1" xmlns="http://www.w3.org/2000/svg" xmlns:xlink="http://www.w3.org/1999/xlink">
    <!-- Generator: Sketch 52.6 (67491) - http://www.bohemiancoding.com/sketch -->
    <title>Group 82</title>
    <desc>Created with Sketch.</desc>
    <defs>
        <path d="M16.0336452,14.1697742 C16.7957419,4.72325806 24.0900968,0 32.2266774,0 C40.3632581,0 47.655871,4.72325806 48.4197097,14.1697742 C48.8186129,19.1011935 47.8649032,30.7669355 45.7501935,35.1827419 C43.902,39.0463548 39.5950645,42.7558065 34.8247742,44.0248065 C32.5158387,44.4219677 31.9383871,44.4193548 29.6294516,44.0248065 C24.8574194,42.7575484 20.5522258,39.0463548 18.7022903,35.1827419 C16.5875806,30.7669355 15.633,19.1011935 16.0336452,14.1697742 Z M11.4697742,49.0738065 L17.7738387,46.1630323 C26.8319032,53.9912903 37.6205806,53.9912903 46.6786452,46.1630323 L52.9818387,49.0738065 C58.725,51.7250323 64.4516129,56.4178065 64.4516129,62.8089677 L64.4516129,81.270871 C64.4516129,84.4603548 61.856129,87.0967742 58.7171613,87.0967742 L5.73445161,87.0967742 C2.59548387,87.0967742 0,84.4760323 0,81.270871 L0,62.8089677 C0,56.3995161 5.7266129,51.7259032 11.4697742,49.0738065 Z" id="path-1"></path>
    </defs>
    <g id="Page-1" stroke="none" stroke-width="1" fill="none" fill-rule="evenodd">
        <g id="60" transform="translate(-1.000000, -1.000000)">
            <g id="Group-82" transform="translate(6.000000, 6.000000)">
                <path d="M81,162 C125.734645,162 162,125.734645 162,81 C162,36.2653548 125.734645,0 81,0 C36.2644839,0 0,36.2653548 0,81 C0,125.734645 36.2644839,162 81,162 Z" id="Path" stroke="#ED4962" stroke-width="10"></path>
                <g id="Group-262" transform="translate(48.774194, 36.580645)">
                    <mask id="mask-2" fill="white">
                        <use xlink:href="#path-1"></use>
                    </mask>
                    <g id="Clip-261"></g>
                    <polygon id="Fill-260" fill="#FFFFFE" mask="url(#mask-2)" points="-0.0870967742 87.1141935 64.503871 87.1141935 64.503871 -0.0522580645 -0.0870967742 -0.0522580645"></polygon>
                </g>
                <path d="M64.8078387,43.7826774 C65.5699355,34.3361613 72.8642903,29.6129032 81.000871,29.6129032 C89.1374516,29.6129032 96.4300645,34.3361613 97.1939032,43.7826774 C97.5928065,48.7140968 96.6390968,60.3798387 94.5243871,64.7956452 C92.6761935,68.6592581 88.3692581,72.3687097 83.5989677,73.6377097 C81.2900323,74.034871 80.7125806,74.0322581 78.4036452,73.6377097 C73.6316129,72.3704516 69.3264194,68.6592581 67.4764839,64.7956452 C65.3617742,60.3798387 64.4071935,48.7140968 64.8078387,43.7826774 Z" id="Path" stroke="#ED4962" stroke-width="10"></path>
                <path d="M60.2430968,85.6544516 L66.5480323,82.7436774 C75.6060968,90.5719355 86.3947742,90.5719355 95.4528387,82.7436774 L101.756032,85.6544516 C107.499194,88.3056774 113.225806,92.9984516 113.225806,99.3896129 L113.225806,117.851516 C113.225806,121.041 110.630323,123.677419 107.491355,123.677419 L54.5086452,123.677419 C51.3696774,123.677419 48.7741935,121.056677 48.7741935,117.851516 L48.7741935,99.3896129 C48.7741935,92.9801613 54.5008065,88.3065484 60.2430968,85.6544516 Z" id="Path" stroke="#ED4962" stroke-width="10"></path>
                <polygon id="Fill-294" fill="#EA4A65" points="48.7741935 114.967742 114.967742 114.967742 114.967742 101.032258 48.7741935 101.032258"></polygon>
            </g>
        </g>
    </g>
</svg>