<?xml version="1.0" encoding="utf-8"?>
<svg width="174px" height="174px" viewBox="0 0 174 174" version="1.1" xmlns="http://www.w3.org/2000/svg">
  <title>Group 86</title>
  <desc>Created with Sketch.</desc>
  <g id="Page-1" stroke="none" stroke-width="1" fill="none" fill-rule="evenodd" transform="matrix(0.770732, 0, 0, 0.791667, 55.829266, 36.041672)">
    <g id="65" transform="translate(-45.000000, -28.000000)">
      <g id="Group-86" transform="translate(46.000000, 33.000000)">
        <path d="M22.409,16.269 C23.284,5.423 31.659,0 41.001,0 C50.343,0 58.716,5.423 59.593,16.269 C60.051,21.931 58.956,35.325 56.528,40.395 C54.406,44.831 49.461,49.09 43.984,50.547 C41.333,51.003 40.67,51 38.019,50.547 C32.54,49.092 27.597,44.831 25.473,40.395 C23.045,35.325 21.949,21.931 22.409,16.269 Z M17.168,64.344 L24.407,61.002 C34.807,69.99 47.194,69.99 57.594,61.002 L64.831,64.344 C71.425,67.388 78,72.776 78,80.114 L78,101.312 C78,104.973 75.02,108 71.416,108 L10.584,108 C6.98,108 4,104.991 4,101.312 L4,80.114 C4,72.755 10.575,67.389 17.168,64.344 Z" id="Stroke-139" stroke="#00AFE4" stroke-width="10"/>
        <polygon id="Fill-326" fill="#00AFE4" points="0 96 82 96 82 80 0 80"/>
      </g>
    </g>
  </g>
</svg>