<?xml version="1.0" encoding="UTF-8"?>
<svg width="202px" height="202px" viewBox="0 0 202 202" version="1.1" xmlns="http://www.w3.org/2000/svg" xmlns:xlink="http://www.w3.org/1999/xlink">
    <title>Untitled</title>
    <g id="Page-1" stroke="none" stroke-width="1" fill="none" fill-rule="evenodd">
        <path d="M82.409,61.269 C83.284,50.423 91.659,45 101.001,45 C110.343,45 118.716,50.423 119.593,61.269 C120.051,66.931 118.956,80.325 116.528,85.395 C114.406,89.831 109.461,94.09 103.984,95.547 C101.333,96.003 100.67,96 98.019,95.547 C92.54,94.092 87.597,89.831 85.473,85.395 C83.045,80.325 81.949,66.931 82.409,61.269 Z M77.168,109.344 L84.407,106.002 C94.807,114.99 107.194,114.99 117.594,106.002 L124.831,109.344 C131.425,112.388 138,117.776 138,125.114 L138,146.312 C138,149.973 135.02,153 131.416,153 L70.584,153 C66.98,153 64,149.991 64,146.312 L64,125.114 C64,117.755 70.575,112.389 77.168,109.344 Z" id="Stroke-139" stroke="#15ADE4" stroke-width="10"></path>
        <polygon id="Fill-326" fill="#15ADE4" points="60 141 142 141 142 125 60 125"></polygon>
        <rect id="Rectangle" opacity="0" x="0" y="0" width="202" height="202"></rect>
    </g>
</svg>